{
.formatVersion = 3;
axes = (
{
name = Weight;
tag = wght;
}
);
classes = (
{
code = "A Aacute Abreve Abreveacute Abrevedotbelow Abrevegrave Abrevehookabove Abrevetilde Acaron Acircumflex Acircumflexacute Acircumflexdotbelow Acircumflexgrave Acircumflexhookabove Acircumflextilde Adieresis Adotbelow Agrave Ahookabove Amacron Aogonek Aring Atilde AE B C Cacute Ccaron Ccedilla Cdotaccent D Dcaron Dcroat Eth E Eacute Ecaron Ecircumflex Ecircumflexacute Ecircumflexdotbelow Ecircumflexgrave Ecircumflexhookabove Ecircumflextilde Edieresis Edotaccent Edotbelow Egrave Ehookabove Emacron Eogonek Etilde F G Gbreve Gcommaaccent Gdotaccent H Hbar I Iacute Icircumflex Idieresis Idotaccent Idotbelow Igrave Ihookabove Imacron Iogonek Itilde J K Kcommaaccent L Lacute Lcaron Lcommaaccent Lslash M N Nacute Ncaron Ncommaaccent Ntilde Eng O Oacute Ocircumflex Ocircumflexacute Ocircumflexdotbelow Ocircumflexgrave Ocircumflexhookabove Ocircumflextilde Odieresis Odotbelow Ograve Ohookabove Ohorn Ohornacute Ohorndotbelow Ohorngrave Ohornhookabove Ohorntilde Ohungarumlaut Omacron Oslash Otilde OE P Thorn Q R Racute Rcaron Rcommaaccent S Sacute Scaron Scedilla Scommaaccent Germandbls T Tbar Tcaron Tcedilla Tcommaaccent U Uacute Ubreve Ucircumflex Udieresis Udotbelow Ugrave Uhookabove Uhorn Uhornacute Uhorndotbelow Uhorngrave Uhornhookabove Uhorntilde Uhungarumlaut Umacron Uogonek Uring Utilde V W Wacute Wcircumflex Wdieresis Wgrave X Y Yacute Ycircumflex Ydieresis Ydotbelow Ygrave Yhookabove Ytilde Z Zacute Zcaron Zdotaccent";
name = Uppercase;
}
);
familyName = Villanella;
customParameters = (
{
name = glyphOrder;
value = (
A,
Aacute,
Abreve,
Abreveacute,
Abrevedotbelow,
Abrevegrave,
Abrevehookabove,
Abrevetilde,
Acaron,
Acircumflex,
Acircumflexacute,
Acircumflexdotbelow,
Acircumflexgrave,
Acircumflexhookabove,
Acircumflextilde,
Adieresis,
Adotbelow,
Agrave,
Ahookabove,
Amacron,
Aogonek,
Aring,
Atilde,
AE,
B,
C,
Cacute,
Ccaron,
Ccedilla,
Cdotaccent,
D,
Dcaron,
Dcroat,
Eth,
E,
Eacute,

glyphs = (
{
glyphname = A;
layers = (
{
anchors = (
{
name = bottom;
position = "{358, 0}";
},
{
name = ogonek;
position = "{594, 0}";
},
{
name = top;
position = "{360, 700}";
}
);
hints = (
{
horizontal = 1;
origin = (0,7);
target = up;
type = BottomGhost;
},
{
horizontal = 1;
origin = (1,3);
target = (1,2);
type = Stem;
},
{
horizontal = 1;
origin = (0,2);
target = (0,6);
type = Stem;
}
);
layerId = "70CAE81F-A09E-4C14-9794-768AE0E0C4C3";
shapes = (
{
closed = 1;
nodes = (
(214,0,l),
(372,538,l),
(346,538,l),
(503,0,l),
(724,0,l),
(495,700,l),
(224,700,l),
(-7,0,l)
);
},
{
closed = 1;
nodes = (
(611,125,l),
(542,304,l),
(179,304,l),
(112,125,l)
);
}
);
width = 718;
},
{
anchors = (
{
name = bottom;
position = "{346, 0}";
},
{
name = ogonek;
position = "{598, 0}";
},
{
name = top;
position = "{347, 700}";
}
);
hints = (
{
horizontal = 1;
origin = (0,7);
target = up;
type = BottomGhost;
},
{
horizontal = 1;
origin = (1,3);
target = (1,2);
type = Stem;
},
{
horizontal = 1;
origin = (0,1);
target = (0,6);
type = Stem;
}
);
layerId = "E5E0E007-7D1B-446D-9E5D-3F173D74C5C6";
shapes = (
{
closed = 1;
nodes = (
(165,0,l),
(357,579,l),
(336,579,l),
(527,0,l),
(691,0,l),
(446,700,l),
(247,700,l),
(1,0,l)
);
},
{
closed = 1;
nodes = (
(580,153,l),
(528,287,l),
(167,287,l),
(116,153,l)
);
}
);
width = 693;
},
{
anchors = (
{
name = bottom;
position = "{330, 0}";
},
{
name = ogonek;
position = "{602, 0}";
},
{
name = top;
position = "{330, 700}";
}
);
layerId = "7BCD794D-E026-4384-BE12-1D1749EC9686";
shapes = (
{
closed = 1;
nodes = (
(104,0,l),
(338,629,l),
(323,629,l),
(555,0,l),
(650,0,l),
(386,700,l),
(274,700,l),
(10,0,l)
);
},
{
closed = 1;
nodes = (
(542,187,l),
(510,266,l),
(151,266,l),
(120,187,l)
);
}
);
width = 660;
},
{
anchors = (
{
name = bottom;
position = "{315, 0}";
},
{
name = ogonek;
position = "{605, 0}";
},
{
name = top;
position = "{315, 700}";
}
);
layerId = "88D78F5D-58B5-49C3-9C35-A3A5CAE2A296";
shapes = (
{
closed = 1;
nodes = (
(48,0,l),
(320,675,l),
(311,675,l),
(581,0,l),
(612,0,l),
(330,700,l),
(299,700,l),
(18,0,l)
);
},
{
closed = 1;
nodes = (
(506,219,l),
(494,247,l),
(136,247,l),
(124,219,l)
);
}
);
width = 629;
}
);
leftKerningGroup = A;
rightKerningGroup = A;
unicode = 65;
},
{
glyphname = Aacute;
layers = (
{
layerId = "70CAE81F-A09E-4C14-9794-768AE0E0C4C3";
shapes = (
{
closed = 1;
nodes = (
(214,0,l),
(372,538,l),
(346,538,l),
(503,0,l),
(724,0,l),
(495,700,l),
(224,700,l),
(-7,0,l)
);
},
{
closed = 1;
nodes = (
(611,125,l),
(542,304,l),
(179,304,l),
(112,125,l)
);
},
{
closed = 1;
nodes = (
(463,741,l),
(576,917,l),
(341,917,l),
(257,741,l)
);
}
);
width = 718;
},
{
layerId = "E5E0E007-7D1B-446D-9E5D-3F173D74C5C6";
shapes = (
{
closed = 1;
nodes = (
(165,0,l),
(357,579,l),
(336,579,l),
(527,0,l),
(691,0,l),
(446,700,l),
(247,700,l),
(1,0,l)
);
},
{
closed = 1;
nodes = (
(580,153,l),
(528,287,l),
(167,287,l),
(116,153,l)
);
},
{
closed = 1;
nodes = (
(424,755,l),
(531,914,l),
(355,914,l),
(270,755,l)
);
}
);
width = 693;
},
{
layerId = "7BCD794D-E026-4384-BE12-1D1749EC9686";
shapes = (
{
closed = 1;
nodes = (
(104,0,l),
(338,629,l),
(323,629,l),
(555,0,l),
(650,0,l),
(386,700,l),
(274,700,l),
(10,0,l)
);
},
{
closed = 1;
nodes = (
(542,187,l),
(510,266,l),
(151,266,l),
(120,187,l)
);
},
{
closed = 1;
nodes = (
(375,772,l),
(476,910,l),
(371,910,l),
(285,772,l)
);
}
);
width = 660;
},
{
layerId = "88D78F5D-58B5-49C3-9C35-A3A5CAE2A296";
shapes = (
{
closed = 1;
nodes = (
(48,0,l),
(320,675,l),
(311,675,l),
(581,0,l),
(612,0,l),
(330,700,l),
(299,700,l),
(18,0,l)
);
},
{
closed = 1;
nodes = (
(506,219,l),
(494,247,l),
(136,247,l),
(124,219,l)
);
},
{
closed = 1;
nodes = (
(331,788,l),
(425,907,l),
(386,907,l),
(299,788,l)
);
}
);
width = 629;
}
);
leftKerningGroup = A;
rightKerningGroup = A;
unicode = 193;
},
{
glyphname = Abreve;
layers = (
{
layerId = "70CAE81F-A09E-4C14-9794-768AE0E0C4C3";
shapes = (
{
closed = 1;
nodes = (
(214,0,l),
(372,538,l),
(346,538,l),
(503,0,l),
(724,0,l),
(495,700,l),
(224,700,l),
(-7,0,l)
);
},
{
closed = 1;
nodes = (
(611,125,l),
(542,304,l),
(179,304,l),
(112,125,l)
);
},
{
closed = 1;
nodes = (
(467,736,o),
(553,774,o),
(553,917,c),
(396,917,l),
(396,884,o),
(384,867,o),
(360,867,cs),
(337,867,o),
(325,884,o),
(325,917,c),
(165,917,l),
(165,774,o),
(253,736,o),
(360,736,cs)
);
}
);
width = 718;
},
{
layerId = "E5E0E007-7D1B-446D-9E5D-3F173D74C5C6";
shapes = (
{
closed = 1;
nodes = (
(165,0,l),
(357,579,l),
(336,579,l),
(527,0,l),
(691,0,l),
(446,700,l),
(247,700,l),
(1,0,l)
);
},
{
closed = 1;
nodes = (
(580,153,l),
(528,287,l),
(167,287,l),
(116,153,l)
);
},
{
closed = 1;
nodes = (
(447,750,o),
(522,789,o),
(522,914,c),
(404,914,l),
(404,863,o),
(389,849,o),
(347,849,cs),
(305,849,o),
(291,863,o),
(291,914,c),
(171,914,l),
(171,789,o),
(247,750,o),
(347,750,cs)
);
}
);
width = 693;
},
{
layerId = "7BCD794D-E026-4384-BE12-1D1749EC9686";
shapes = (
{
closed = 1;
nodes = (
(104,0,l),
(338,629,l),
(323,629,l),
(555,0,l),
(650,0,l),
(386,700,l),
(274,700,l),
(10,0,l)
);
},
{
closed = 1;
nodes = (
(542,187,l),
(510,266,l),
(151,266,l),
(120,187,l)
);
},
{
closed = 1;
nodes = (
(421,767,o),
(483,807,o),
(483,910,c),
(412,910,l),
(412,851,o),
(385,827,o),
(330,827,cs),
(275,827,o),
(249,851,o),
(249,910,c),
(177,910,l),
(177,807,o),
(239,767,o),
(330,767,cs)
);
}
);
width = 660;
},
{
layerId = "88D78F5D-58B5-49C3-9C35-A3A5CAE2A296";
shapes = (
{
closed = 1;
nodes = (
(48,0,l),
(320,675,l),
(311,675,l),
(581,0,l),
(612,0,l),
(330,700,l),
(299,700,l),
(18,0,l)
);
},
{
closed = 1;
nodes = (
(506,219,l),
(494,247,l),
(136,247,l),
(124,219,l)
);
},
{
closed = 1;
nodes = (
(398,783,o),
(447,824,o),
(447,907,c),
(420,907,l),
(420,839,o),
(382,806,o),
(315,806,cs),
(248,806,o),
(210,839,o),
(210,907,c),
(183,907,l),
(183,824,o),
(232,783,o),
(315,783,cs)
);
}
);
width = 629;
}
);
leftKerningGroup = A;
rightKerningGroup = A;
unicode = 258;
},
{
color = 8;
glyphname = Abreveacute;
layers = (
{
layerId = "70CAE81F-A09E-4C14-9794-768AE0E0C4C3";
shapes = (
{
closed = 1;
nodes = (
(214,0,l),
(372,538,l),
(346,538,l),
(503,0,l),
(724,0,l),
(495,700,l),
(224,700,l),
(-7,0,l)
);
},
{
closed = 1;
nodes = (
(611,125,l),
(542,304,l),
(179,304,l),
(112,125,l)
);
},
{
closed = 1;
nodes = (
(467,736,o),
(553,774,o),
(553,897,c),
(396,897,l),
(396,869,o),
(382,857,o),
(360,857,cs),
(339,857,o),
(325,869,o),
(325,897,c),
(165,897,l),
(165,774,o),
(253,736,o),
(360,736,cs)
);
},
{
closed = 1;
nodes = (
(458,936,l),
(564,1074,l),
(349,1074,l),
(263,936,l)
);
}
);
width = 718;
},
{
layerId = "E5E0E007-7D1B-446D-9E5D-3F173D74C5C6";
shapes = (
{
closed = 1;
nodes = (
(165,0,l),
(357,579,l),
(336,579,l),
(527,0,l),
(691,0,l),
(446,700,l),
(247,700,l),
(1,0,l)
);
},
{
closed = 1;
nodes = (
(580,153,l),
(528,287,l),
(167,287,l),
(116,153,l)
);
},
{
closed = 1;
nodes = (
(447,750,o),
(522,789,o),
(522,894,c),
(404,894,l),
(404,867,o),
(381,849,o),
(347,849,cs),
(313,849,o),
(291,867,o),
(291,894,c),
(171,894,l),
(171,789,o),
(247,750,o),
(347,750,cs)
);
},
{
closed = 1;
nodes = (
(420,936,l),
(521,1058,l),
(360,1058,l),
(274,936,l)
);
}
);
width = 693;
},
{
layerId = "7BCD794D-E026-4384-BE12-1D1749EC9686";
shapes = (
{
closed = 1;
nodes = (
(104,0,l),
(338,629,l),
(323,629,l),
(555,0,l),
(650,0,l),
(386,700,l),
(274,700,l),
(10,0,l)
);
},
{
closed = 1;
nodes = (
(542,187,l),
(510,266,l),
(151,266,l),
(120,187,l)
);
},
{
closed = 1;
nodes = (
(421,767,o),
(483,807,o),
(483,890,c),
(412,890,l),
(412,853,o),
(381,827,o),
(330,827,cs),
(279,827,o),
(249,853,o),
(249,890,c),
(177,890,l),
(177,807,o),
(239,767,o),
(330,767,cs)
);
},
{
closed = 1;
nodes = (
(373,931,l),
(468,1049,l),
(373,1049,l),
(287,931,l)
);
}
);
width = 660;
},
{
layerId = "88D78F5D-58B5-49C3-9C35-A3A5CAE2A296";
shapes = (
{
closed = 1;
nodes = (
(48,0,l),
(320,675,l),
(311,675,l),
(581,0,l),
(612,0,l),
(330,700,l),
(299,700,l),
(18,0,l)
);
},
{
closed = 1;
nodes = (
(506,219,l),
(494,247,l),
(136,247,l),
(124,219,l)
);
},
{
closed = 1;
nodes = (
(398,783,o),
(447,824,o),
(447,887,c),
(420,887,l),
(420,839,o),
(382,806,o),
(315,806,cs),
(248,806,o),
(210,839,o),
(210,887,c),
(183,887,l),
(183,824,o),
(232,783,o),
(315,783,cs)
);
},
{
closed = 1;
nodes = (
(330,926,l),
(419,1041,l),
(385,1041,l),
(299,926,l)
);
}
);
width = 629;
}
);
leftKerningGroup = A;
rightKerningGroup = A;
unicode = 7854;
},
{
color = 8;
glyphname = Abrevedotbelow;
layers = (
{
layerId = "70CAE81F-A09E-4C14-9794-768AE0E0C4C3";
shapes = (
{
closed = 1;
nodes = (
(214,0,l),
(372,538,l),
(346,538,l),
(503,0,l),
(724,0,l),
(495,700,l),
(224,700,l),
(-7,0,l)
);
},
{
closed = 1;
nodes = (
(611,125,l),
(542,304,l),
(179,304,l),
(112,125,l)
);
},
{
closed = 1;
nodes = (
(470,-210,l),
(470,-49,l),
(246,-49,l),
(246,-210,l)
);
},
{
closed = 1;
nodes = (
(467,736,o),
(553,774,o),
(553,917,c),
(396,917,l),
(396,884,o),
(384,867,o),
(360,867,cs),
(337,867,o),
(325,884,o),
(325,917,c),
(165,917,l),
(165,774,o),
(253,736,o),
(360,736,cs)
);
}
);
width = 718;
},
{
layerId = "E5E0E007-7D1B-446D-9E5D-3F173D74C5C6";
shapes = (
{
closed = 1;
nodes = (
(165,0,l),
(357,579,l),
(336,579,l),
(527,0,l),
(691,0,l),
(446,700,l),
(247,700,l),
(1,0,l)
);
},
{
closed = 1;
nodes = (
(580,153,l),
(528,287,l),
(167,287,l),
(116,153,l)
);
},
{
closed = 1;
nodes = (
(429,-210,l),
(429,-70,l),
(263,-70,l),
(263,-210,l)
);
},
{
closed = 1;
nodes = (
(447,750,o),
(522,789,o),
(522,914,c),
(404,914,l),
(404,863,o),
(389,849,o),
(347,849,cs),
(305,849,o),
(291,863,o),
(291,914,c),
(171,914,l),
(171,789,o),
(247,750,o),
(347,750,cs)
);
}
);
width = 693;
},
{
layerId = "7BCD794D-E026-4384-BE12-1D1749EC9686";
shapes = (
{
closed = 1;
nodes = (
(104,0,l),
(338,629,l),
(323,629,l),
(555,0,l),
(650,0,l),
(386,700,l),
(274,700,l),
(10,0,l)
);
},
{
closed = 1;
nodes = (
(542,187,l),
(510,266,l),
(151,266,l),
(120,187,l)
);
},
{
closed = 1;
nodes = (
(378,-182,l),
(378,-66,l),
(281,-66,l),
(281,-182,l)
);
},
{
closed = 1;
nodes = (
(421,767,o),
(483,807,o),
(483,910,c),
(412,910,l),
(412,851,o),
(385,827,o),
(330,827,cs),
(275,827,o),
(249,851,o),
(249,910,c),
(177,910,l),
(177,807,o),
(239,767,o),
(330,767,cs)
);
}
);
width = 660;
},
{
layerId = "88D78F5D-58B5-49C3-9C35-A3A5CAE2A296";
shapes = (
{
closed = 1;
nodes = (
(48,0,l),
(320,675,l),
(311,675,l),
(581,0,l),
(612,0,l),
(330,700,l),
(299,700,l),
(18,0,l)
);
},
{
closed = 1;
nodes = (
(506,219,l),
(494,247,l),
(136,247,l),
(124,219,l)
);
},
{
closed = 1;
nodes = (
(332,-156,l),
(332,-63,l),
(299,-63,l),
(299,-156,l)
);
},
{
closed = 1;
nodes = (
(398,783,o),
(447,824,o),
(447,907,c),
(420,907,l),
(420,839,o),
(382,806,o),
(315,806,cs),
(248,806,o),
(210,839,o),
(210,907,c),
(183,907,l),
(183,824,o),
(232,783,o),
(315,783,cs)
);
}
);
width = 629;
}
);
leftKerningGroup = A;
rightKerningGroup = A;
unicode = 7862;
},
{
color = 8;
glyphname = Abrevegrave;
layers = (
{
layerId = "70CAE81F-A09E-4C14-9794-768AE0E0C4C3";
shapes = (
{
closed = 1;
nodes = (
(214,0,l),
(372,538,l),
(346,538,l),
(503,0,l),
(724,0,l),
(495,700,l),
(224,700,l),
(-7,0,l)
);
},
{
closed = 1;
nodes = (
(611,125,l),
(542,304,l),
(179,304,l),
(112,125,l)
);
},
{
closed = 1;
nodes = (
(467,736,o),
(553,774,o),
(553,897,c),
(396,897,l),
(396,870,o),
(381,857,o),
(360,857,cs),
(340,857,o),
(325,870,o),
(325,897,c),
(165,897,l),
(165,774,o),
(253,736,o),
(360,736,cs)
);
},
{
closed = 1;
nodes = (
(457,936,l),
(371,1074,l),
(156,1074,l),
(262,936,l)
);
}
);
width = 718;
},
{
layerId = "E5E0E007-7D1B-446D-9E5D-3F173D74C5C6";
shapes = (
{
closed = 1;
nodes = (
(165,0,l),
(357,579,l),
(336,579,l),
(527,0,l),
(691,0,l),
(446,700,l),
(247,700,l),
(1,0,l)
);
},
{
closed = 1;
nodes = (
(580,153,l),
(528,287,l),
(167,287,l),
(116,153,l)
);
},
{
closed = 1;
nodes = (
(447,750,o),
(522,789,o),
(522,894,c),
(404,894,l),
(404,867,o),
(381,849,o),
(347,849,cs),
(313,849,o),
(291,867,o),
(291,894,c),
(171,894,l),
(171,789,o),
(247,750,o),
(347,750,cs)
);
},
{
closed = 1;
nodes = (
(420,936,l),
(334,1058,l),
(173,1058,l),
(274,936,l)
);
}
);
width = 693;
},
{
layerId = "7BCD794D-E026-4384-BE12-1D1749EC9686";
shapes = (
{
closed = 1;
nodes = (
(104,0,l),
(338,629,l),
(323,629,l),
(555,0,l),
(650,0,l),
(386,700,l),
(274,700,l),
(10,0,l)
);
},
{
closed = 1;
nodes = (
(542,187,l),
(510,266,l),
(151,266,l),
(120,187,l)
);
},
{
closed = 1;
nodes = (
(421,767,o),
(483,807,o),
(483,890,c),
(412,890,l),
(412,853,o),
(381,827,o),
(330,827,cs),
(279,827,o),
(249,853,o),
(249,890,c),
(177,890,l),
(177,807,o),
(239,767,o),
(330,767,cs)
);
},
{
closed = 1;
nodes = (
(373,931,l),
(287,1049,l),
(192,1049,l),
(287,931,l)
);
}
);
width = 660;
},
{
layerId = "88D78F5D-58B5-49C3-9C35-A3A5CAE2A296";
shapes = (
{
closed = 1;
nodes = (
(48,0,l),
(320,675,l),
(311,675,l),
(581,0,l),
(612,0,l),
(330,700,l),
(299,700,l),
(18,0,l)
);
},
{
closed = 1;
nodes = (
(506,219,l),
(494,247,l),
(136,247,l),
(124,219,l)
);
},
{
closed = 1;
nodes = (
(398,783,o),
(447,824,o),
(447,887,c),
(420,887,l),
(420,839,o),
(382,806,o),
(315,806,cs),
(248,806,o),
(210,839,o),
(210,887,c),
(183,887,l),
(183,824,o),
(232,783,o),
(315,783,cs)
);
},
{
closed = 1;
nodes = (
(331,926,l),
(245,1041,l),
(211,1041,l),
(300,926,l)
);
}
);
width = 629;
}
);
leftKerningGroup = A;
rightKerningGroup = A;
unicode = 7856;
},
{
color = 8;
glyphname = Abrevehookabove;
layers = (
{
layerId = "70CAE81F-A09E-4C14-9794-768AE0E0C4C3";
shapes = (
{
closed = 1;
nodes = (
(214,0,l),
(372,538,l),
(346,538,l),
(503,0,l),
(724,0,l),
(495,700,l),
(224,700,l),
(-7,0,l)
);
},
{
closed = 1;
nodes = (
(611,125,l),
(542,304,l),
(179,304,l),
(112,125,l)
);
},
{
closed = 1;
nodes = (
(467,736,o),
(553,774,o),
(553,897,c),
(396,897,l),
(396,870,o),
(381,857,o),
(360,857,cs),
(340,857,o),
(325,870,o),
(325,897,c),
(165,897,l),
(165,774,o),
(253,736,o),
(360,736,cs)
);
},
{
closed = 1;
nodes = (
(433,936,l),
(472,957,o),
(497,1008,o),
(497,1037,cs),
(497,1111,o),
(433,1153,o),
(346,1153,cs),
(304,1153,o),
(253,1143,o),
(219,1127,c),
(219,1014,l),
(243,1022,o),
(269,1029,o),
(295,1029,cs),
(320,1029,o),
(341,1023,o),
(341,1002,cs),
(341,989,o),
(331,969,o),
(290,936,c)
);
}
);
width = 718;
},
{
layerId = "E5E0E007-7D1B-446D-9E5D-3F173D74C5C6";
shapes = (
{
closed = 1;
nodes = (
(165,0,l),
(357,579,l),
(336,579,l),
(527,0,l),
(691,0,l),
(446,700,l),
(247,700,l),
(1,0,l)
);
},
{
closed = 1;
nodes = (
(580,153,l),
(528,287,l),
(167,287,l),
(116,153,l)
);
},
{
closed = 1;
nodes = (
(447,750,o),
(522,789,o),
(522,894,c),
(404,894,l),
(404,867,o),
(381,849,o),
(347,849,cs),
(313,849,o),
(291,867,o),
(291,894,c),
(171,894,l),
(171,789,o),
(247,750,o),
(347,750,cs)
);
},
{
closed = 1;
nodes = (
(404,936,l),
(444,957,o),
(463,989,o),
(463,1024,cs),
(463,1073,o),
(418,1110,o),
(339,1110,cs),
(304,1110,o),
(259,1102,o),
(229,1088,c),
(229,1004,l),
(250,1011,o),
(279,1015,o),
(300,1015,cs),
(323,1015,o),
(334,1007,o),
(334,994,cs),
(334,980,o),
(326,965,o),
(290,936,c)
);
}
);
width = 693;
},
{
layerId = "7BCD794D-E026-4384-BE12-1D1749EC9686";
shapes = (
{
closed = 1;
nodes = (
(104,0,l),
(338,629,l),
(323,629,l),
(555,0,l),
(650,0,l),
(386,700,l),
(274,700,l),
(10,0,l)
);
},
{
closed = 1;
nodes = (
(542,187,l),
(510,266,l),
(151,266,l),
(120,187,l)
);
},
{
closed = 1;
nodes = (
(421,767,o),
(483,807,o),
(483,890,c),
(412,890,l),
(412,853,o),
(381,827,o),
(330,827,cs),
(279,827,o),
(249,853,o),
(249,890,c),
(177,890,l),
(177,807,o),
(239,767,o),
(330,767,cs)
);
},
{
closed = 1;
nodes = (
(371,931,l),
(405,953,o),
(421,980,o),
(421,1011,cs),
(421,1055,o),
(383,1087,o),
(321,1087,cs),
(292,1087,o),
(256,1079,o),
(229,1064,c),
(229,1011,l),
(252,1023,o),
(280,1028,o),
(301,1028,cs),
(330,1028,o),
(345,1014,o),
(345,996,cs),
(345,977,o),
(332,958,o),
(299,931,c)
);
}
);
width = 660;
},
{
layerId = "88D78F5D-58B5-49C3-9C35-A3A5CAE2A296";
shapes = (
{
closed = 1;
nodes = (
(48,0,l),
(320,675,l),
(311,675,l),
(581,0,l),
(612,0,l),
(330,700,l),
(299,700,l),
(18,0,l)
);
},
{
closed = 1;
nodes = (
(506,219,l),
(494,247,l),
(136,247,l),
(124,219,l)
);
},
{
closed = 1;
nodes = (
(398,783,o),
(447,824,o),
(447,887,c),
(420,887,l),
(420,839,o),
(382,806,o),
(315,806,cs),
(248,806,o),
(210,839,o),
(210,887,c),
(183,887,l),
(183,824,o),
(232,783,o),
(315,783,cs)
);
},
{
closed = 1;
nodes = (
(342,926,l),
(369,950,o),
(383,972,o),
(383,998,cs),
(383,1038,o),
(352,1065,o),
(306,1065,cs),
(282,1065,o),
(254,1058,o),
(230,1041,c),
(230,1018,l),
(254,1034,o),
(282,1041,o),
(303,1041,cs),
(337,1041,o),
(356,1021,o),
(356,997,cs),
(356,974,o),
(339,952,o),
(309,926,c)
);
}
);
width = 629;
}
);
leftKerningGroup = A;
rightKerningGroup = A;
unicode = 7858;
},
{
color = 8;
glyphname = Abrevetilde;
layers = (
{
layerId = "70CAE81F-A09E-4C14-9794-768AE0E0C4C3";
shapes = (
{
closed = 1;
nodes = (
(214,0,l),
(372,538,l),
(346,538,l),
(503,0,l),
(724,0,l),
(495,700,l),
(224,700,l),
(-7,0,l)
);
},
{
closed = 1;
nodes = (
(611,125,l),
(542,304,l),
(179,304,l),
(112,125,l)
);
},
{
closed = 1;
nodes = (
(528,933,o),
(570,1009,o),
(570,1097,c),
(441,1097,l),
(440,1076,o),
(437,1064,o),
(423,1064,cs),
(406,1064,o),
(345,1107,o),
(285,1107,cs),
(193,1107,o),
(156,1031,o),
(155,943,c),
(278,943,l),
(279,966,o),
(284,977,o),
(299,977,cs),
(318,977,o),
(370,933,o),
(436,933,cs)
);
},
{
closed = 1;
nodes = (
(467,736,o),
(553,774,o),
(553,897,c),
(396,897,l),
(396,870,o),
(381,857,o),
(360,857,cs),
(340,857,o),
(325,870,o),
(325,897,c),
(165,897,l),
(165,774,o),
(253,736,o),
(360,736,cs)
);
}
);
width = 718;
},
{
layerId = "E5E0E007-7D1B-446D-9E5D-3F173D74C5C6";
shapes = (
{
closed = 1;
nodes = (
(165,0,l),
(357,579,l),
(336,579,l),
(527,0,l),
(691,0,l),
(446,700,l),
(247,700,l),
(1,0,l)
);
},
{
closed = 1;
nodes = (
(580,153,l),
(528,287,l),
(167,287,l),
(116,153,l)
);
},
{
closed = 1;
nodes = (
(490,933,o),
(527,995,o),
(527,1073,c),
(430,1073,l),
(429,1047,o),
(422,1032,o),
(405,1032,cs),
(379,1032,o),
(341,1085,o),
(281,1085,cs),
(205,1085,o),
(171,1023,o),
(170,946,c),
(263,946,l),
(264,974,o),
(273,987,o),
(291,987,cs),
(318,987,o),
(350,933,o),
(414,933,cs)
);
},
{
closed = 1;
nodes = (
(447,750,o),
(522,789,o),
(522,894,c),
(404,894,l),
(404,867,o),
(381,849,o),
(347,849,cs),
(313,849,o),
(291,867,o),
(291,894,c),
(171,894,l),
(171,789,o),
(247,750,o),
(347,750,cs)
);
}
);
width = 693;
},
{
layerId = "7BCD794D-E026-4384-BE12-1D1749EC9686";
shapes = (
{
closed = 1;
nodes = (
(104,0,l),
(338,629,l),
(323,629,l),
(555,0,l),
(650,0,l),
(386,700,l),
(274,700,l),
(10,0,l)
);
},
{
closed = 1;
nodes = (
(542,187,l),
(510,266,l),
(151,266,l),
(120,187,l)
);
},
{
closed = 1;
nodes = (
(451,934,o),
(483,979,o),
(483,1045,c),
(424,1045,l),
(423,1013,o),
(412,994,o),
(390,994,cs),
(354,994,o),
(327,1060,o),
(267,1060,cs),
(210,1060,o),
(179,1014,o),
(178,950,c),
(235,950,l),
(236,984,o),
(250,1000,o),
(272,1000,cs),
(308,1000,o),
(333,934,o),
(395,934,cs)
);
},
{
closed = 1;
nodes = (
(421,767,o),
(483,807,o),
(483,890,c),
(412,890,l),
(412,853,o),
(381,827,o),
(330,827,cs),
(279,827,o),
(249,853,o),
(249,890,c),
(177,890,l),
(177,807,o),
(239,767,o),
(330,767,cs)
);
}
);
width = 660;
},
{
layerId = "88D78F5D-58B5-49C3-9C35-A3A5CAE2A296";
shapes = (
{
closed = 1;
nodes = (
(48,0,l),
(320,675,l),
(311,675,l),
(581,0,l),
(612,0,l),
(330,700,l),
(299,700,l),
(18,0,l)
);
},
{
closed = 1;
nodes = (
(506,219,l),
(494,247,l),
(136,247,l),
(124,219,l)
);
},
{
closed = 1;
nodes = (
(416,934,o),
(442,965,o),
(442,1019,c),
(420,1019,l),
(419,981,o),
(403,959,o),
(377,959,cs),
(331,959,o),
(314,1036,o),
(254,1036,cs),
(215,1036,o),
(187,1005,o),
(187,954,c),
(209,954,l),
(210,993,o),
(229,1013,o),
(255,1013,cs),
(299,1013,o),
(318,934,o),
(378,934,cs)
);
},
{
closed = 1;
nodes = (
(398,783,o),
(447,824,o),
(447,887,c),
(420,887,l),
(420,839,o),
(382,806,o),
(315,806,cs),
(248,806,o),
(210,839,o),
(210,887,c),
(183,887,l),
(183,824,o),
(232,783,o),
(315,783,cs)
);
}
);
width = 629;
}
);
leftKerningGroup = A;
rightKerningGroup = A;
unicode = 7860;
},
{
glyphname = Acaron;
layers = (
{
layerId = "70CAE81F-A09E-4C14-9794-768AE0E0C4C3";
shapes = (
{
closed = 1;
nodes = (
(214,0,l),
(372,538,l),
(346,538,l),
(503,0,l),
(724,0,l),
(495,700,l),
(224,700,l),
(-7,0,l)
);
},
{
closed = 1;
nodes = (
(611,125,l),
(542,304,l),
(179,304,l),
(112,125,l)
);
},
{
closed = 1;
nodes = (
(466,741,l),
(591,917,l),
(401,917,l),
(304,793,l),
(419,793,l),
(319,917,l),
(128,917,l),
(253,741,l)
);
}
);
width = 718;
},
{
layerId = "E5E0E007-7D1B-446D-9E5D-3F173D74C5C6";
shapes = (
{
closed = 1;
nodes = (
(165,0,l),
(357,579,l),
(336,579,l),
(527,0,l),
(691,0,l),
(446,700,l),
(247,700,l),
(1,0,l)
);
},
{
closed = 1;
nodes = (
(580,153,l),
(528,287,l),
(167,287,l),
(116,153,l)
);
},
{
closed = 1;
nodes = (
(426,755,l),
(551,914,l),
(408,914,l),
(305,796,l),
(391,796,l),
(286,914,l),
(142,914,l),
(267,755,l)
);
}
);
width = 693;
},
{
layerId = "7BCD794D-E026-4384-BE12-1D1749EC9686";
shapes = (
{
closed = 1;
nodes = (
(104,0,l),
(338,629,l),
(323,629,l),
(555,0,l),
(650,0,l),
(386,700,l),
(274,700,l),
(10,0,l)
);
},
{
closed = 1;
nodes = (
(542,187,l),
(510,266,l),
(151,266,l),
(120,187,l)
);
},
{
closed = 1;
nodes = (
(376,772,l),
(502,910,l),
(415,910,l),
(305,799,l),
(356,799,l),
(245,910,l),
(158,910,l),
(283,772,l)
);
}
);
width = 660;
},
{
layerId = "88D78F5D-58B5-49C3-9C35-A3A5CAE2A296";
shapes = (
{
closed = 1;
nodes = (
(48,0,l),
(320,675,l),
(311,675,l),
(581,0,l),
(612,0,l),
(330,700,l),
(299,700,l),
(18,0,l)
);
},
{
closed = 1;
nodes = (
(506,219,l),
(494,247,l),
(136,247,l),
(124,219,l)
);
},
{
closed = 1;
nodes = (
(330,788,l),
(457,907,l),
(423,907,l),
(306,802,l),
(324,802,l),
(207,907,l),
(173,907,l),
(299,788,l)
);
}
);
width = 629;
}
);
leftKerningGroup = A;
rightKerningGroup = A;
unicode = 461;
},
{
glyphname = Acircumflex;
layers = (
{
layerId = "70CAE81F-A09E-4C14-9794-768AE0E0C4C3";
shapes = (
{
closed = 1;
nodes = (
(214,0,l),
(372,538,l),
(346,538,l),
(503,0,l),
(724,0,l),
(495,700,l),
(224,700,l),
(-7,0,l)
);
},
{
closed = 1;
nodes = (
(611,125,l),
(542,304,l),
(179,304,l),
(112,125,l)
);
},
{
closed = 1;
nodes = (
(319,741,l),
(416,864,l),
(301,864,l),
(401,741,l),
(592,741,l),
(467,917,l),
(254,917,l),
(129,741,l)
);
}
);
width = 718;
},
{
layerId = "E5E0E007-7D1B-446D-9E5D-3F173D74C5C6";
shapes = (
{
closed = 1;
nodes = (
(165,0,l),
(357,579,l),
(336,579,l),
(527,0,l),
(691,0,l),
(446,700,l),
(247,700,l),
(1,0,l)
);
},
{
closed = 1;
nodes = (
(580,153,l),
(528,287,l),
(167,287,l),
(116,153,l)
);
},
{
closed = 1;
nodes = (
(286,755,l),
(389,873,l),
(303,873,l),
(408,755,l),
(552,755,l),
(427,914,l),
(268,914,l),
(143,755,l)
);
}
);
width = 693;
},
{
layerId = "7BCD794D-E026-4384-BE12-1D1749EC9686";
shapes = (
{
closed = 1;
nodes = (
(104,0,l),
(338,629,l),
(323,629,l),
(555,0,l),
(650,0,l),
(386,700,l),
(274,700,l),
(10,0,l)
);
},
{
closed = 1;
nodes = (
(542,187,l),
(510,266,l),
(151,266,l),
(120,187,l)
);
},
{
closed = 1;
nodes = (
(245,772,l),
(355,884,l),
(304,884,l),
(415,772,l),
(502,772,l),
(377,910,l),
(284,910,l),
(158,772,l)
);
}
);
width = 660;
},
{
layerId = "88D78F5D-58B5-49C3-9C35-A3A5CAE2A296";
shapes = (
{
closed = 1;
nodes = (
(48,0,l),
(320,675,l),
(311,675,l),
(581,0,l),
(612,0,l),
(330,700,l),
(299,700,l),
(18,0,l)
);
},
{
closed = 1;
nodes = (
(506,219,l),
(494,247,l),
(136,247,l),
(124,219,l)
);
},
{
closed = 1;
nodes = (
(207,788,l),
(324,894,l),
(306,894,l),
(423,788,l),
(457,788,l),
(331,907,l),
(300,907,l),
(173,788,l)
);
}
);
width = 629;
}
);
leftKerningGroup = A;
rightKerningGroup = A;
unicode = 194;
},
{
color = 8;
glyphname = Acircumflexacute;
layers = (
{
layerId = "70CAE81F-A09E-4C14-9794-768AE0E0C4C3";
shapes = (
{
closed = 1;
nodes = (
(214,0,l),
(372,538,l),
(346,538,l),
(503,0,l),
(724,0,l),
(495,700,l),
(224,700,l),
(-7,0,l)
);
},
{
closed = 1;
nodes = (
(611,125,l),
(542,304,l),
(179,304,l),
(112,125,l)
);
},
{
closed = 1;
nodes = (
(319,741,l),
(416,844,l),
(301,844,l),
(401,741,l),
(592,741,l),
(467,897,l),
(254,897,l),
(129,741,l)
);
},
{
closed = 1;
nodes = (
(455,936,l),
(562,1071,l),
(346,1071,l),
(262,936,l)
);
}
);
width = 718;
},
{
layerId = "E5E0E007-7D1B-446D-9E5D-3F173D74C5C6";
shapes = (
{
closed = 1;
nodes = (
(165,0,l),
(357,579,l),
(336,579,l),
(527,0,l),
(691,0,l),
(446,700,l),
(247,700,l),
(1,0,l)
);
},
{
closed = 1;
nodes = (
(580,153,l),
(528,287,l),
(167,287,l),
(116,153,l)
);
},
{
closed = 1;
nodes = (
(286,755,l),
(389,843,l),
(303,843,l),
(408,755,l),
(552,755,l),
(427,894,l),
(268,894,l),
(143,755,l)
);
},
{
closed = 1;
nodes = (
(420,939,l),
(521,1061,l),
(360,1061,l),
(275,939,l)
);
}
);
width = 693;
},
{
layerId = "7BCD794D-E026-4384-BE12-1D1749EC9686";
shapes = (
{
closed = 1;
nodes = (
(104,0,l),
(338,629,l),
(323,629,l),
(555,0,l),
(650,0,l),
(386,700,l),
(274,700,l),
(10,0,l)
);
},
{
closed = 1;
nodes = (
(542,187,l),
(510,266,l),
(151,266,l),
(120,187,l)
);
},
{
closed = 1;
nodes = (
(245,772,l),
(355,856,l),
(304,856,l),
(415,772,l),
(502,772,l),
(376,890,l),
(284,890,l),
(158,772,l)
);
},
{
closed = 1;
nodes = (
(373,933,l),
(468,1051,l),
(373,1051,l),
(287,933,l)
);
}
);
width = 660;
},
{
layerId = "88D78F5D-58B5-49C3-9C35-A3A5CAE2A296";
shapes = (
{
closed = 1;
nodes = (
(48,0,l),
(320,675,l),
(311,675,l),
(581,0,l),
(612,0,l),
(330,700,l),
(299,700,l),
(18,0,l)
);
},
{
closed = 1;
nodes = (
(506,219,l),
(494,247,l),
(136,247,l),
(124,219,l)
);
},
{
closed = 1;
nodes = (
(207,788,l),
(324,869,l),
(306,869,l),
(423,788,l),
(457,788,l),
(330,887,l),
(299,887,l),
(173,788,l)
);
},
{
closed = 1;
nodes = (
(330,927,l),
(419,1041,l),
(385,1041,l),
(299,927,l)
);
}
);
width = 629;
}
);
leftKerningGroup = A;
rightKerningGroup = A;
unicode = 7844;
},
{
color = 8;
glyphname = Acircumflexdotbelow;
layers = (
{
layerId = "70CAE81F-A09E-4C14-9794-768AE0E0C4C3";
shapes = (
{
closed = 1;
nodes = (
(214,0,l),
(372,538,l),
(346,538,l),
(503,0,l),
(724,0,l),
(495,700,l),
(224,700,l),
(-7,0,l)
);
},
{
closed = 1;
nodes = (
(611,125,l),
(542,304,l),
(179,304,l),
(112,125,l)
);
},
{
closed = 1;
nodes = (
(470,-210,l),
(470,-49,l),
(246,-49,l),
(246,-210,l)
);
},
{
closed = 1;
nodes = (
(319,741,l),
(416,864,l),
(301,864,l),
(401,741,l),
(592,741,l),
(467,917,l),
(254,917,l),
(129,741,l)
);
}
);
width = 718;
},
{
layerId = "E5E0E007-7D1B-446D-9E5D-3F173D74C5C6";
shapes = (
{
closed = 1;
nodes = (
(165,0,l),
(357,579,l),
(336,579,l),
(527,0,l),
(691,0,l),
(446,700,l),
(247,700,l),
(1,0,l)
);
},
{
closed = 1;
nodes = (
(580,153,l),
(528,287,l),
(167,287,l),
(116,153,l)
);
},
{
closed = 1;
nodes = (
(429,-210,l),
(429,-70,l),
(263,-70,l),
(263,-210,l)
);
},
{
closed = 1;
nodes = (
(286,755,l),
(389,873,l),
(303,873,l),
(408,755,l),
(552,755,l),
(427,914,l),
(268,914,l),
(143,755,l)
);
}
);
width = 693;
},
{
layerId = "7BCD794D-E026-4384-BE12-1D1749EC9686";
shapes = (
{
closed = 1;
nodes = (
(104,0,l),
(338,629,l),
(323,629,l),
(555,0,l),
(650,0,l),
(386,700,l),
(274,700,l),
(10,0,l)
);
},
{
closed = 1;
nodes = (
(542,187,l),
(510,266,l),
(151,266,l),
(120,187,l)
);
},
{
closed = 1;
nodes = (
(378,-182,l),
(378,-66,l),
(281,-66,l),
(281,-182,l)
);
},
{
closed = 1;
nodes = (
(245,772,l),
(355,884,l),
(304,884,l),
(415,772,l),
(502,772,l),
(377,910,l),
(284,910,l),
(158,772,l)
);
}
);
width = 660;
},
{
layerId = "88D78F5D-58B5-49C3-9C35-A3A5CAE2A296";
shapes = (
{
closed = 1;
nodes = (
(48,0,l),
(320,675,l),
(311,675,l),
(581,0,l),
(612,0,l),
(330,700,l),
(299,700,l),
(18,0,l)
);
},
{
closed = 1;
nodes = (
(506,219,l),
(494,247,l),
(136,247,l),
(124,219,l)
);
},
{
closed = 1;
nodes = (
(332,-156,l),
(332,-63,l),
(299,-63,l),
(299,-156,l)
);
},
{
closed = 1;
nodes = (
(207,788,l),
(324,894,l),
(306,894,l),
(423,788,l),
(457,788,l),
(331,907,l),
(300,907,l),
(173,788,l)
);
}
);
width = 629;
}
);
leftKerningGroup = A;
rightKerningGroup = A;
unicode = 7852;
},
{
color = 8;
glyphname = Acircumflexgrave;
layers = (
{
layerId = "70CAE81F-A09E-4C14-9794-768AE0E0C4C3";
shapes = (
{
closed = 1;
nodes = (
(214,0,l),
(372,538,l),
(346,538,l),
(503,0,l),
(724,0,l),
(495,700,l),
(224,700,l),
(-7,0,l)
);
},
{
closed = 1;
nodes = (
(611,125,l),
(542,304,l),
(179,304,l),
(112,125,l)
);
},
{
closed = 1;
nodes = (
(320,741,l),
(420,844,l),
(305,844,l),
(402,741,l),
(592,741,l),
(467,897,l),
(254,897,l),
(129,741,l)
);
},
{
closed = 1;
nodes = (
(459,936,l),
(375,1071,l),
(159,1071,l),
(266,936,l)
);
}
);
width = 718;
},
{
layerId = "E5E0E007-7D1B-446D-9E5D-3F173D74C5C6";
shapes = (
{
closed = 1;
nodes = (
(165,0,l),
(357,579,l),
(336,579,l),
(527,0,l),
(691,0,l),
(446,700,l),
(247,700,l),
(1,0,l)
);
},
{
closed = 1;
nodes = (
(580,153,l),
(528,287,l),
(167,287,l),
(116,153,l)
);
},
{
closed = 1;
nodes = (
(286,755,l),
(389,843,l),
(303,843,l),
(408,755,l),
(552,755,l),
(427,894,l),
(268,894,l),
(143,755,l)
);
},
{
closed = 1;
nodes = (
(419,939,l),
(333,1061,l),
(172,1061,l),
(273,939,l)
);
}
);
width = 693;
},
{
layerId = "7BCD794D-E026-4384-BE12-1D1749EC9686";
shapes = (
{
closed = 1;
nodes = (
(104,0,l),
(338,629,l),
(323,629,l),
(555,0,l),
(650,0,l),
(386,700,l),
(274,700,l),
(10,0,l)
);
},
{
closed = 1;
nodes = (
(542,187,l),
(510,266,l),
(151,266,l),
(120,187,l)
);
},
{
closed = 1;
nodes = (
(245,772,l),
(355,856,l),
(304,856,l),
(415,772,l),
(502,772,l),
(377,890,l),
(284,890,l),
(158,772,l)
);
},
{
closed = 1;
nodes = (
(373,933,l),
(287,1051,l),
(192,1051,l),
(287,933,l)
);
}
);
width = 660;
},
{
layerId = "88D78F5D-58B5-49C3-9C35-A3A5CAE2A296";
shapes = (
{
closed = 1;
nodes = (
(48,0,l),
(320,675,l),
(311,675,l),
(581,0,l),
(612,0,l),
(330,700,l),
(299,700,l),
(18,0,l)
);
},
{
closed = 1;
nodes = (
(506,219,l),
(494,247,l),
(136,247,l),
(124,219,l)
);
},
{
closed = 1;
nodes = (
(207,788,l),
(324,869,l),
(306,869,l),
(423,788,l),
(457,788,l),
(331,887,l),
(300,887,l),
(173,788,l)
);
},
{
closed = 1;
nodes = (
(331,927,l),
(245,1041,l),
(211,1041,l),
(300,927,l)
);
}
);
width = 629;
}
);
leftKerningGroup = A;
rightKerningGroup = A;
unicode = 7846;
},
{
color = 8;
glyphname = Acircumflexhookabove;
layers = (
{
layerId = "70CAE81F-A09E-4C14-9794-768AE0E0C4C3";
shapes = (
{
closed = 1;
nodes = (
(214,0,l),
(372,538,l),
(346,538,l),
(503,0,l),
(724,0,l),
(495,700,l),
(224,700,l),
(-7,0,l)
);
},
{
closed = 1;
nodes = (
(611,125,l),
(542,304,l),
(179,304,l),
(112,125,l)
);
},
{
closed = 1;
nodes = (
(319,741,l),
(416,844,l),
(301,844,l),
(401,741,l),
(592,741,l),
(467,897,l),
(254,897,l),
(129,741,l)
);
},
{
closed = 1;
nodes = (
(433,936,l),
(472,957,o),
(497,1008,o),
(497,1037,cs),
(497,1111,o),
(433,1153,o),
(346,1153,cs),
(304,1153,o),
(253,1143,o),
(219,1127,c),
(219,1014,l),
(243,1022,o),
(269,1029,o),
(295,1029,cs),
(320,1029,o),
(341,1023,o),
(341,1002,cs),
(341,989,o),
(331,969,o),
(290,936,c)
);
}
);
width = 718;
},
{
layerId = "E5E0E007-7D1B-446D-9E5D-3F173D74C5C6";
shapes = (
{
closed = 1;
nodes = (
(165,0,l),
(357,579,l),
(336,579,l),
(527,0,l),
(691,0,l),
(446,700,l),
(247,700,l),
(1,0,l)
);
},
{
closed = 1;
nodes = (
(580,153,l),
(528,287,l),
(167,287,l),
(116,153,l)
);
},
{
closed = 1;
nodes = (
(286,755,l),
(389,843,l),
(303,843,l),
(408,755,l),
(552,755,l),
(427,894,l),
(268,894,l),
(143,755,l)
);
},
{
closed = 1;
nodes = (
(404,939,l),
(444,957,o),
(463,989,o),
(463,1024,cs),
(463,1073,o),
(418,1110,o),
(339,1110,cs),
(304,1110,o),
(259,1102,o),
(229,1088,c),
(229,1004,l),
(250,1011,o),
(279,1015,o),
(300,1015,cs),
(323,1015,o),
(334,1007,o),
(334,994,cs),
(334,980,o),
(326,965,o),
(290,939,c)
);
}
);
width = 693;
},
{
layerId = "7BCD794D-E026-4384-BE12-1D1749EC9686";
shapes = (
{
closed = 1;
nodes = (
(104,0,l),
(338,629,l),
(323,629,l),
(555,0,l),
(650,0,l),
(386,700,l),
(274,700,l),
(10,0,l)
);
},
{
closed = 1;
nodes = (
(542,187,l),
(510,266,l),
(151,266,l),
(120,187,l)
);
},
{
closed = 1;
nodes = (
(245,772,l),
(355,856,l),
(304,856,l),
(415,772,l),
(502,772,l),
(377,890,l),
(284,890,l),
(158,772,l)
);
},
{
closed = 1;
nodes = (
(367,932,l),
(401,953,o),
(417,978,o),
(417,1008,cs),
(417,1051,o),
(380,1082,o),
(318,1082,cs),
(289,1082,o),
(253,1074,o),
(227,1058,c),
(227,1006,l),
(249,1018,o),
(279,1023,o),
(300,1023,cs),
(327,1023,o),
(341,1011,o),
(341,993,cs),
(341,974,o),
(328,958,o),
(295,932,c)
);
}
);
width = 660;
},
{
layerId = "88D78F5D-58B5-49C3-9C35-A3A5CAE2A296";
shapes = (
{
closed = 1;
nodes = (
(48,0,l),
(320,675,l),
(311,675,l),
(581,0,l),
(612,0,l),
(330,700,l),
(299,700,l),
(18,0,l)
);
},
{
closed = 1;
nodes = (
(506,219,l),
(494,247,l),
(136,247,l),
(124,219,l)
);
},
{
closed = 1;
nodes = (
(207,788,l),
(324,869,l),
(306,869,l),
(423,788,l),
(457,788,l),
(331,887,l),
(300,887,l),
(173,788,l)
);
},
{
closed = 1;
nodes = (
(334,926,l),
(361,950,o),
(375,967,o),
(375,993,cs),
(375,1030,o),
(346,1055,o),
(300,1055,cs),
(276,1055,o),
(249,1048,o),
(225,1031,c),
(225,1008,l),
(249,1024,o),
(279,1031,o),
(300,1031,cs),
(332,1031,o),
(348,1015,o),
(348,992,cs),
(348,969,o),
(331,952,o),
(301,926,c)
);
}
);
width = 629;
}
);
leftKerningGroup = A;
rightKerningGroup = A;
unicode = 7848;
},
{
color = 8;
glyphname = Acircumflextilde;
layers = (
{
layerId = "70CAE81F-A09E-4C14-9794-768AE0E0C4C3";
shapes = (
{
closed = 1;
nodes = (
(214,0,l),
(372,538,l),
(346,538,l),
(503,0,l),
(724,0,l),
(495,700,l),
(224,700,l),
(-7,0,l)
);
},
{
closed = 1;
nodes = (
(611,125,l),
(542,304,l),
(179,304,l),
(112,125,l)
);
},
{
closed = 1;
nodes = (
(528,926,o),
(570,1001,o),
(570,1089,c),
(441,1089,l),
(440,1068,o),
(437,1057,o),
(423,1057,cs),
(406,1057,o),
(345,1099,o),
(285,1099,cs),
(193,1099,o),
(156,1023,o),
(155,936,c),
(278,936,l),
(279,959,o),
(284,969,o),
(299,969,cs),
(318,969,o),
(370,926,o),
(436,926,cs)
);
},
{
closed = 1;
nodes = (
(319,741,l),
(416,838,l),
(301,838,l),
(401,741,l),
(592,741,l),
(467,891,l),
(254,891,l),
(129,741,l)
);
}
);
width = 718;
},
{
layerId = "E5E0E007-7D1B-446D-9E5D-3F173D74C5C6";
shapes = (
{
closed = 1;
nodes = (
(165,0,l),
(357,579,l),
(336,579,l),
(527,0,l),
(691,0,l),
(446,700,l),
(247,700,l),
(1,0,l)
);
},
{
closed = 1;
nodes = (
(580,153,l),
(528,287,l),
(167,287,l),
(116,153,l)
);
},
{
closed = 1;
nodes = (
(490,933,o),
(527,995,o),
(527,1073,c),
(430,1073,l),
(429,1047,o),
(422,1032,o),
(405,1032,cs),
(379,1032,o),
(341,1085,o),
(281,1085,cs),
(205,1085,o),
(171,1023,o),
(170,946,c),
(263,946,l),
(264,974,o),
(273,987,o),
(291,987,cs),
(318,987,o),
(350,933,o),
(414,933,cs)
);
},
{
closed = 1;
nodes = (
(286,755,l),
(389,843,l),
(303,843,l),
(408,755,l),
(552,755,l),
(427,894,l),
(268,894,l),
(143,755,l)
);
}
);
width = 693;
},
{
layerId = "7BCD794D-E026-4384-BE12-1D1749EC9686";
shapes = (
{
closed = 1;
nodes = (
(104,0,l),
(338,629,l),
(323,629,l),
(555,0,l),
(650,0,l),
(386,700,l),
(274,700,l),
(10,0,l)
);
},
{
closed = 1;
nodes = (
(542,187,l),
(510,266,l),
(151,266,l),
(120,187,l)
);
},
{
closed = 1;
nodes = (
(451,937,o),
(483,982,o),
(483,1048,c),
(424,1048,l),
(423,1016,o),
(412,997,o),
(390,997,cs),
(354,997,o),
(327,1063,o),
(267,1063,cs),
(210,1063,o),
(179,1016,o),
(178,953,c),
(235,953,l),
(236,986,o),
(250,1004,o),
(272,1004,cs),
(308,1004,o),
(333,937,o),
(395,937,cs)
);
},
{
closed = 1;
nodes = (
(245,772,l),
(355,862,l),
(304,862,l),
(415,772,l),
(502,772,l),
(377,896,l),
(284,896,l),
(158,772,l)
);
}
);
width = 660;
},
{
layerId = "88D78F5D-58B5-49C3-9C35-A3A5CAE2A296";
shapes = (
{
closed = 1;
nodes = (
(48,0,l),
(320,675,l),
(311,675,l),
(581,0,l),
(612,0,l),
(330,700,l),
(299,700,l),
(18,0,l)
);
},
{
closed = 1;
nodes = (
(506,219,l),
(494,247,l),
(136,247,l),
(124,219,l)
);
},
{
closed = 1;
nodes = (
(416,940,o),
(442,970,o),
(442,1025,c),
(420,1025,l),
(419,987,o),
(403,964,o),
(377,964,cs),
(331,964,o),
(314,1042,o),
(254,1042,cs),
(215,1042,o),
(187,1010,o),
(187,959,c),
(209,959,l),
(210,998,o),
(229,1019,o),
(255,1019,cs),
(299,1019,o),
(318,940,o),
(378,940,cs)
);
},
{
closed = 1;
nodes = (
(207,788,l),
(324,879,l),
(306,879,l),
(423,788,l),
(457,788,l),
(331,897,l),
(300,897,l),
(173,788,l)
);
}
);
width = 629;
}
);
leftKerningGroup = A;
rightKerningGroup = A;
unicode = 7850;
},
{
glyphname = Adieresis;
layers = (
{
layerId = "70CAE81F-A09E-4C14-9794-768AE0E0C4C3";
shapes = (
{
closed = 1;
nodes = (
(214,0,l),
(372,538,l),
(346,538,l),
(503,0,l),
(724,0,l),
(495,700,l),
(224,700,l),
(-7,0,l)
);
},
{
closed = 1;
nodes = (
(611,125,l),
(542,304,l),
(179,304,l),
(112,125,l)
);
},
{
closed = 1;
nodes = (
(577,741,l),
(577,902,l),
(377,902,l),
(377,741,l)
);
},
{
closed = 1;
nodes = (
(341,741,l),
(341,902,l),
(147,902,l),
(147,741,l)
);
}
);
width = 718;
},
{
layerId = "E5E0E007-7D1B-446D-9E5D-3F173D74C5C6";
shapes = (
{
closed = 1;
nodes = (
(165,0,l),
(357,579,l),
(336,579,l),
(527,0,l),
(691,0,l),
(446,700,l),
(247,700,l),
(1,0,l)
);
},
{
closed = 1;
nodes = (
(580,153,l),
(528,287,l),
(167,287,l),
(116,153,l)
);
},
{
closed = 1;
nodes = (
(529,778,l),
(529,914,l),
(381,914,l),
(381,778,l)
);
},
{
closed = 1;
nodes = (
(312,778,l),
(312,914,l),
(164,914,l),
(164,778,l)
);
}
);
width = 693;
},
{
layerId = "7BCD794D-E026-4384-BE12-1D1749EC9686";
shapes = (
{
closed = 1;
nodes = (
(104,0,l),
(338,629,l),
(323,629,l),
(555,0,l),
(650,0,l),
(386,700,l),
(274,700,l),
(10,0,l)
);
},
{
closed = 1;
nodes = (
(542,187,l),
(510,266,l),
(151,266,l),
(120,187,l)
);
},
{
closed = 1;
nodes = (
(474,795,l),
(474,901,l),
(388,901,l),
(388,795,l)
);
},
{
closed = 1;
nodes = (
(272,795,l),
(272,901,l),
(186,901,l),
(186,795,l)
);
}
);
width = 660;
},
{
layerId = "88D78F5D-58B5-49C3-9C35-A3A5CAE2A296";
shapes = (
{
closed = 1;
nodes = (
(48,0,l),
(320,675,l),
(311,675,l),
(581,0,l),
(612,0,l),
(330,700,l),
(299,700,l),
(18,0,l)
);
},
{
closed = 1;
nodes = (
(506,219,l),
(494,247,l),
(136,247,l),
(124,219,l)
);
},
{
closed = 1;
nodes = (
(423,811,l),
(423,888,l),
(395,888,l),
(395,811,l)
);
},
{
closed = 1;
nodes = (
(235,811,l),
(235,888,l),
(207,888,l),
(207,811,l)
);
}
);
width = 629;
}
);
leftKerningGroup = A;
rightKerningGroup = A;
unicode = 196;
},
{
color = 8;
glyphname = Adotbelow;
layers = (
{
layerId = "70CAE81F-A09E-4C14-9794-768AE0E0C4C3";
shapes = (
{
closed = 1;
nodes = (
(214,0,l),
(372,538,l),
(346,538,l),
(503,0,l),
(724,0,l),
(495,700,l),
(224,700,l),
(-7,0,l)
);
},
{
closed = 1;
nodes = (
(611,125,l),
(542,304,l),
(179,304,l),
(112,125,l)
);
},
{
closed = 1;
nodes = (
(470,-210,l),
(470,-49,l),
(246,-49,l),
(246,-210,l)
);
}
);
width = 718;
},
{
layerId = "E5E0E007-7D1B-446D-9E5D-3F173D74C5C6";
shapes = (
{
closed = 1;
nodes = (
(165,0,l),
(357,579,l),
(336,579,l),
(527,0,l),
(691,0,l),
(446,700,l),
(247,700,l),
(1,0,l)
);
},
{
closed = 1;
nodes = (
(580,153,l),
(528,287,l),
(167,287,l),
(116,153,l)
);
},
{
closed = 1;
nodes = (
(429,-210,l),
(429,-70,l),
(263,-70,l),
(263,-210,l)
);
}
);
width = 693;
},
{
layerId = "7BCD794D-E026-4384-BE12-1D1749EC9686";
shapes = (
{
closed = 1;
nodes = (
(104,0,l),
(338,629,l),
(323,629,l),
(555,0,l),
(650,0,l),
(386,700,l),
(274,700,l),
(10,0,l)
);
},
{
closed = 1;
nodes = (
(542,187,l),
(510,266,l),
(151,266,l),
(120,187,l)
);
},
{
closed = 1;
nodes = (
(378,-182,l),
(378,-66,l),
(281,-66,l),
(281,-182,l)
);
}
);
width = 660;
},
{
layerId = "88D78F5D-58B5-49C3-9C35-A3A5CAE2A296";
shapes = (
{
closed = 1;
nodes = (
(48,0,l),
(320,675,l),
(311,675,l),
(581,0,l),
(612,0,l),
(330,700,l),
(299,700,l),
(18,0,l)
);
},
{
closed = 1;
nodes = (
(506,219,l),
(494,247,l),
(136,247,l),
(124,219,l)
);
},
{
closed = 1;
nodes = (
(332,-156,l),
(332,-63,l),
(299,-63,l),
(299,-156,l)
);
}
);
width = 629;
}
);
leftKerningGroup = A;
rightKerningGroup = A;
unicode = 7840;
},
{
glyphname = Agrave;
layers = (
{
layerId = "70CAE81F-A09E-4C14-9794-768AE0E0C4C3";
shapes = (
{
closed = 1;
nodes = (
(214,0,l),
(372,538,l),
(346,538,l),
(503,0,l),
(724,0,l),
(495,700,l),
(224,700,l),
(-7,0,l)
);
},
{
closed = 1;
nodes = (
(611,125,l),
(542,304,l),
(179,304,l),
(112,125,l)
);
},
{
closed = 1;
nodes = (
(463,741,l),
(379,917,l),
(144,917,l),
(257,741,l)
);
}
);
width = 718;
},
{
layerId = "E5E0E007-7D1B-446D-9E5D-3F173D74C5C6";
shapes = (
{
closed = 1;
nodes = (
(165,0,l),
(357,579,l),
(336,579,l),
(527,0,l),
(691,0,l),
(446,700,l),
(247,700,l),
(1,0,l)
);
},
{
closed = 1;
nodes = (
(580,153,l),
(528,287,l),
(167,287,l),
(116,153,l)
);
},
{
closed = 1;
nodes = (
(424,755,l),
(339,914,l),
(163,914,l),
(270,755,l)
);
}
);
width = 693;
},
{
layerId = "7BCD794D-E026-4384-BE12-1D1749EC9686";
shapes = (
{
closed = 1;
nodes = (
(104,0,l),
(338,629,l),
(323,629,l),
(555,0,l),
(650,0,l),
(386,700,l),
(274,700,l),
(10,0,l)
);
},
{
closed = 1;
nodes = (
(542,187,l),
(510,266,l),
(151,266,l),
(120,187,l)
);
},
{
closed = 1;
nodes = (
(375,772,l),
(289,910,l),
(184,910,l),
(285,772,l)
);
}
);
width = 660;
},
{
layerId = "88D78F5D-58B5-49C3-9C35-A3A5CAE2A296";
shapes = (
{
closed = 1;
nodes = (
(48,0,l),
(320,675,l),
(311,675,l),
(581,0,l),
(612,0,l),
(330,700,l),
(299,700,l),
(18,0,l)
);
},
{
closed = 1;
nodes = (
(506,219,l),
(494,247,l),
(136,247,l),
(124,219,l)
);
},
{
closed = 1;
nodes = (
(331,788,l),
(244,907,l),
(205,907,l),
(299,788,l)
);
}
);
width = 629;
}
);
leftKerningGroup = A;
rightKerningGroup = A;
unicode = 192;
},
{
color = 8;
glyphname = Ahookabove;
layers = (
{
layerId = "70CAE81F-A09E-4C14-9794-768AE0E0C4C3";
shapes = (
{
closed = 1;
nodes = (
(214,0,l),
(372,538,l),
(346,538,l),
(503,0,l),
(724,0,l),
(495,700,l),
(224,700,l),
(-7,0,l)
);
},
{
closed = 1;
nodes = (
(611,125,l),
(542,304,l),
(179,304,l),
(112,125,l)
);
},
{
closed = 1;
nodes = (
(439,741,l),
(480,772,o),
(503,823,o),
(503,852,cs),
(503,926,o),
(439,968,o),
(342,968,cs),
(300,968,o),
(249,958,o),
(215,942,c),
(215,829,l),
(239,837,o),
(265,844,o),
(291,844,cs),
(316,844,o),
(337,838,o),
(337,817,cs),
(337,804,o),
(331,784,o),
(286,741,c)
);
}
);
width = 718;
},
{
layerId = "E5E0E007-7D1B-446D-9E5D-3F173D74C5C6";
shapes = (
{
closed = 1;
nodes = (
(165,0,l),
(357,579,l),
(336,579,l),
(527,0,l),
(691,0,l),
(446,700,l),
(247,700,l),
(1,0,l)
);
},
{
closed = 1;
nodes = (
(580,153,l),
(528,287,l),
(167,287,l),
(116,153,l)
);
},
{
closed = 1;
nodes = (
(413,755,l),
(446,785,o),
(467,830,o),
(467,871,cs),
(467,931,o),
(418,971,o),
(343,971,cs),
(305,971,o),
(255,962,o),
(223,947,c),
(223,849,l),
(246,857,o),
(273,863,o),
(296,863,cs),
(315,863,o),
(337,859,o),
(337,835,cs),
(337,818,o),
(328,794,o),
(289,755,c)
);
}
);
width = 693;
},
{
layerId = "7BCD794D-E026-4384-BE12-1D1749EC9686";
shapes = (
{
closed = 1;
nodes = (
(104,0,l),
(338,629,l),
(323,629,l),
(555,0,l),
(650,0,l),
(386,700,l),
(274,700,l),
(10,0,l)
);
},
{
closed = 1;
nodes = (
(542,187,l),
(510,266,l),
(151,266,l),
(120,187,l)
);
},
{
closed = 1;
nodes = (
(372,772,l),
(402,799,o),
(419,832,o),
(419,865,cs),
(419,915,o),
(380,948,o),
(320,948,cs),
(289,948,o),
(250,940,o),
(223,924,c),
(223,865,l),
(246,877,o),
(274,884,o),
(296,884,cs),
(322,884,o),
(343,871,o),
(343,847,cs),
(343,827,o),
(330,804,o),
(295,772,c)
);
}
);
width = 660;
},
{
layerId = "88D78F5D-58B5-49C3-9C35-A3A5CAE2A296";
shapes = (
{
closed = 1;
nodes = (
(48,0,l),
(320,675,l),
(311,675,l),
(581,0,l),
(612,0,l),
(330,700,l),
(299,700,l),
(18,0,l)
);
},
{
closed = 1;
nodes = (
(506,219,l),
(494,247,l),
(136,247,l),
(124,219,l)
);
},
{
closed = 1;
nodes = (
(335,788,l),
(362,812,o),
(376,834,o),
(376,860,cs),
(376,900,o),
(345,927,o),
(299,927,cs),
(275,927,o),
(247,920,o),
(223,903,c),
(223,880,l),
(247,896,o),
(275,903,o),
(296,903,cs),
(330,903,o),
(349,883,o),
(349,859,cs),
(349,836,o),
(332,814,o),
(302,788,c)
);
}
);
width = 629;
}
);
leftKerningGroup = A;
rightKerningGroup = A;
unicode = 7842;
},
{
glyphname = Amacron;
layers = (
{
layerId = "70CAE81F-A09E-4C14-9794-768AE0E0C4C3";
shapes = (
{
closed = 1;
nodes = (
(214,0,l),
(372,538,l),
(346,538,l),
(503,0,l),
(724,0,l),
(495,700,l),
(224,700,l),
(-7,0,l)
);
},
{
closed = 1;
nodes = (
(611,125,l),
(542,304,l),
(179,304,l),
(112,125,l)
);
},
{
closed = 1;
nodes = (
(529,746,l),
(529,897,l),
(192,897,l),
(192,746,l)
);
}
);
width = 718;
},
{
layerId = "E5E0E007-7D1B-446D-9E5D-3F173D74C5C6";
shapes = (
{
closed = 1;
nodes = (
(165,0,l),
(357,579,l),
(336,579,l),
(527,0,l),
(691,0,l),
(446,700,l),
(247,700,l),
(1,0,l)
);
},
{
closed = 1;
nodes = (
(580,153,l),
(528,287,l),
(167,287,l),
(116,153,l)
);
},
{
closed = 1;
nodes = (
(507,771,l),
(507,884,l),
(188,884,l),
(188,771,l)
);
}
);
width = 693;
},
{
layerId = "7BCD794D-E026-4384-BE12-1D1749EC9686";
shapes = (
{
closed = 1;
nodes = (
(104,0,l),
(338,629,l),
(323,629,l),
(555,0,l),
(650,0,l),
(386,700,l),
(274,700,l),
(10,0,l)
);
},
{
closed = 1;
nodes = (
(542,187,l),
(510,266,l),
(151,266,l),
(120,187,l)
);
},
{
closed = 1;
nodes = (
(479,789,l),
(479,856,l),
(181,856,l),
(181,789,l)
);
}
);
width = 660;
},
{
layerId = "88D78F5D-58B5-49C3-9C35-A3A5CAE2A296";
shapes = (
{
closed = 1;
nodes = (
(48,0,l),
(320,675,l),
(311,675,l),
(581,0,l),
(612,0,l),
(330,700,l),
(299,700,l),
(18,0,l)
);
},
{
closed = 1;
nodes = (
(506,219,l),
(494,247,l),
(136,247,l),
(124,219,l)
);
},
{
closed = 1;
nodes = (
(454,805,l),
(454,830,l),
(176,830,l),
(176,805,l)
);
}
);
width = 629;
}
);
leftKerningGroup = A;
rightKerningGroup = A;
unicode = 256;
},
{
glyphname = Aogonek;
layers = (
{
layerId = "70CAE81F-A09E-4C14-9794-768AE0E0C4C3";
shapes = (
{
closed = 1;
nodes = (
(214,0,l),
(372,538,l),
(346,538,l),
(503,0,l),
(724,0,l),
(495,700,l),
(224,700,l),
(-7,0,l)
);
},
{
closed = 1;
nodes = (
(611,125,l),
(542,304,l),
(179,304,l),
(112,125,l)
);
},
{
closed = 1;
nodes = (
(594,-215,l),
(594,-81,l),
(577,-81,ls),
(565,-81,o),
(559,-75,o),
(559,-68,cs),
(559,-62,o),
(561,-57,o),
(568,-45,cs),
(594,0,l),
(506,84,l),
(432,1,ls),
(405,-30,o),
(383,-65,o),
(383,-100,cs),
(383,-170,o),
(434,-215,o),
(513,-215,cs)
);
}
);
width = 718;
},
{
layerId = "E5E0E007-7D1B-446D-9E5D-3F173D74C5C6";
shapes = (
{
closed = 1;
nodes = (
(165,0,l),
(357,579,l),
(336,579,l),
(527,0,l),
(691,0,l),
(446,700,l),
(247,700,l),
(1,0,l)
);
},
{
closed = 1;
nodes = (
(580,153,l),
(528,287,l),
(167,287,l),
(116,153,l)
);
},
{
closed = 1;
nodes = (
(598,-200,l),
(598,-99,l),
(580,-99,ls),
(560,-99,o),
(555,-87,o),
(555,-77,cs),
(555,-67,o),
(561,-56,o),
(566,-49,cs),
(598,0,l),
(530,72,l),
(486,23,ls),
(439,-29,o),
(424,-59,o),
(424,-100,cs),
(424,-160,o),
(466,-200,o),
(534,-200,cs)
);
}
);
width = 693;
},
{
layerId = "7BCD794D-E026-4384-BE12-1D1749EC9686";
shapes = (
{
closed = 1;
nodes = (
(104,0,l),
(338,629,l),
(323,629,l),
(555,0,l),
(650,0,l),
(386,700,l),
(274,700,l),
(10,0,l)
);
},
{
closed = 1;
nodes = (
(542,187,l),
(510,266,l),
(151,266,l),
(120,187,l)
);
},
{
closed = 1;
nodes = (
(599,-200,l),
(599,-138,l),
(571,-138,ls),
(547,-138,o),
(539,-123,o),
(539,-109,cs),
(539,-95,o),
(546,-81,o),
(554,-69,cs),
(602,0,l),
(559,42,l),
(506,-26,l),
(474,-64,o),
(461,-89,o),
(461,-121,cs),
(461,-166,o),
(492,-200,o),
(547,-200,cs)
);
}
);
width = 660;
},
{
layerId = "88D78F5D-58B5-49C3-9C35-A3A5CAE2A296";
shapes = (
{
closed = 1;
nodes = (
(48,0,l),
(320,675,l),
(311,675,l),
(581,0,l),
(612,0,l),
(330,700,l),
(299,700,l),
(18,0,l)
);
},
{
closed = 1;
nodes = (
(506,219,l),
(494,247,l),
(136,247,l),
(124,219,l)
);
},
{
closed = 1;
nodes = (
(599,-200,l),
(599,-175,l),
(561,-175,ls),
(535,-175,o),
(523,-157,o),
(523,-138,cs),
(523,-121,o),
(532,-104,o),
(543,-87,c),
(605,0,l),
(586,14,l),
(524,-72,ls),
(506,-96,o),
(495,-117,o),
(495,-140,cs),
(495,-172,o),
(515,-200,o),
(558,-200,cs)
);
}
);
width = 629;
}
);
leftKerningGroup = A;
rightKerningGroup = A;
unicode = 260;
},
{
glyphname = Aring;
layers = (
{
layerId = "70CAE81F-A09E-4C14-9794-768AE0E0C4C3";
shapes = (
{
closed = 1;
nodes = (
(214,0,l),
(372,538,l),
(346,538,l),
(503,0,l),
(724,0,l),
(495,700,l),
(224,700,l),
(-7,0,l)
);
},
{
closed = 1;
nodes = (
(611,125,l),
(542,304,l),
(179,304,l),
(112,125,l)
);
},
{
closed = 1;
nodes = (
(450,724,o),
(515,778,o),
(515,855,cs),
(515,931,o),
(450,985,o),
(359,985,cs),
(268,985,o),
(204,931,o),
(204,855,cs),
(204,778,o),
(268,724,o),
(359,724,cs)
);
},
{
closed = 1;
nodes = (
(334,818,o),
(317,832,o),
(317,854,cs),
(317,876,o),
(334,890,o),
(359,890,cs),
(384,890,o),
(401,876,o),
(401,854,cs),
(401,832,o),
(384,818,o),
(359,818,cs)
);
}
);
width = 718;
},
{
layerId = "E5E0E007-7D1B-446D-9E5D-3F173D74C5C6";
shapes = (
{
closed = 1;
nodes = (
(165,0,l),
(357,579,l),
(336,579,l),
(527,0,l),
(691,0,l),
(446,700,l),
(247,700,l),
(1,0,l)
);
},
{
closed = 1;
nodes = (
(580,153,l),
(528,287,l),
(167,287,l),
(116,153,l)
);
},
{
closed = 1;
nodes = (
(425,739,o),
(481,787,o),
(481,855,cs),
(481,922,o),
(425,970,o),
(346,970,cs),
(267,970,o),
(212,922,o),
(212,855,cs),
(212,787,o),
(267,739,o),
(346,739,cs)
);
},
{
closed = 1;
nodes = (
(318,812,o),
(298,828,o),
(298,854,cs),
(298,880,o),
(317,896,o),
(346,896,cs),
(375,896,o),
(394,880,o),
(394,854,cs),
(394,828,o),
(374,812,o),
(346,812,cs)
);
}
);
width = 693;
},
{
layerId = "7BCD794D-E026-4384-BE12-1D1749EC9686";
shapes = (
{
closed = 1;
nodes = (
(104,0,l),
(338,629,l),
(323,629,l),
(555,0,l),
(650,0,l),
(386,700,l),
(274,700,l),
(10,0,l)
);
},
{
closed = 1;
nodes = (
(542,187,l),
(510,266,l),
(151,266,l),
(120,187,l)
);
},
{
closed = 1;
nodes = (
(394,757,o),
(439,797,o),
(439,854,cs),
(439,911,o),
(394,952,o),
(330,952,cs),
(265,952,o),
(220,911,o),
(220,854,cs),
(220,797,o),
(265,757,o),
(330,757,cs)
);
},
{
closed = 1;
nodes = (
(297,803,o),
(274,823,o),
(274,854,cs),
(274,885,o),
(296,905,o),
(330,905,cs),
(362,905,o),
(385,885,o),
(385,854,cs),
(385,823,o),
(362,803,o),
(330,803,cs)
);
}
);
width = 660;
},
{
layerId = "88D78F5D-58B5-49C3-9C35-A3A5CAE2A296";
shapes = (
{
closed = 1;
nodes = (
(48,0,l),
(320,675,l),
(311,675,l),
(581,0,l),
(612,0,l),
(330,700,l),
(299,700,l),
(18,0,l)
);
},
{
closed = 1;
nodes = (
(506,219,l),
(494,247,l),
(136,247,l),
(124,219,l)
);
},
{
closed = 1;
nodes = (
(366,774,o),
(401,807,o),
(401,854,cs),
(401,901,o),
(366,935,o),
(315,935,cs),
(264,935,o),
(229,901,o),
(229,854,cs),
(229,807,o),
(264,774,o),
(315,774,cs)
);
},
{
closed = 1;
nodes = (
(279,794,o),
(253,819,o),
(253,854,cs),
(253,889,o),
(278,914,o),
(315,914,cs),
(351,914,o),
(377,889,o),
(377,854,cs),
(377,819,o),
(351,794,o),
(315,794,cs)
);
}
);
width = 629;
}
);
leftKerningGroup = A;
rightKerningGroup = A;
unicode = 197;
},
{
glyphname = Atilde;
layers = (
{
layerId = "70CAE81F-A09E-4C14-9794-768AE0E0C4C3";
shapes = (
{
closed = 1;
nodes = (
(214,0,l),
(372,538,l),
(346,538,l),
(503,0,l),
(724,0,l),
(495,700,l),
(224,700,l),
(-7,0,l)
);
},
{
closed = 1;
nodes = (
(611,125,l),
(542,304,l),
(179,304,l),
(112,125,l)
);
},
{
closed = 1;
nodes = (
(525,732,o),
(575,804,o),
(575,918,c),
(436,918,l),
(436,889,o),
(431,881,o),
(422,881,cs),
(396,881,o),
(352,947,o),
(282,947,cs),
(194,947,o),
(147,882,o),
(148,762,c),
(286,762,l),
(287,793,o),
(290,801,o),
(299,801,cs),
(319,801,o),
(361,732,o),
(435,732,cs)
);
}
);
width = 718;
},
{
layerId = "E5E0E007-7D1B-446D-9E5D-3F173D74C5C6";
shapes = (
{
closed = 1;
nodes = (
(165,0,l),
(357,579,l),
(336,579,l),
(527,0,l),
(691,0,l),
(446,700,l),
(247,700,l),
(1,0,l)
);
},
{
closed = 1;
nodes = (
(580,153,l),
(528,287,l),
(167,287,l),
(116,153,l)
);
},
{
closed = 1;
nodes = (
(497,738,o),
(540,794,o),
(540,891,c),
(436,891,l),
(436,873,o),
(435,853,o),
(418,853,cs),
(393,853,o),
(338,919,o),
(271,919,cs),
(197,919,o),
(156,863,o),
(156,767,c),
(260,767,l),
(260,787,o),
(261,806,o),
(276,806,cs),
(299,806,o),
(350,738,o),
(421,738,cs)
);
}
);
width = 693;
},
{
layerId = "7BCD794D-E026-4384-BE12-1D1749EC9686";
shapes = (
{
closed = 1;
nodes = (
(104,0,l),
(338,629,l),
(323,629,l),
(555,0,l),
(650,0,l),
(386,700,l),
(274,700,l),
(10,0,l)
);
},
{
closed = 1;
nodes = (
(542,187,l),
(510,266,l),
(151,266,l),
(120,187,l)
);
},
{
closed = 1;
nodes = (
(462,765,o),
(497,810,o),
(496,885,c),
(432,885,l),
(433,855,o),
(424,833,o),
(401,833,cs),
(363,833,o),
(320,911,o),
(257,911,cs),
(199,911,o),
(166,868,o),
(165,794,c),
(229,794,l),
(230,824,o),
(238,845,o),
(258,845,cs),
(293,845,o),
(335,765,o),
(402,765,cs)
);
}
);
width = 660;
},
{
layerId = "88D78F5D-58B5-49C3-9C35-A3A5CAE2A296";
shapes = (
{
closed = 1;
nodes = (
(48,0,l),
(320,675,l),
(311,675,l),
(581,0,l),
(612,0,l),
(330,700,l),
(299,700,l),
(18,0,l)
);
},
{
closed = 1;
nodes = (
(506,219,l),
(494,247,l),
(136,247,l),
(124,219,l)
);
},
{
closed = 1;
nodes = (
(430,791,o),
(457,825,o),
(456,880,c),
(430,880,l),
(431,839,o),
(415,815,o),
(386,815,cs),
(335,815,o),
(304,904,o),
(244,904,cs),
(202,904,o),
(176,872,o),
(174,819,c),
(200,819,l),
(202,858,o),
(217,881,o),
(242,881,cs),
(288,881,o),
(322,791,o),
(386,791,cs)
);
}
);
width = 629;
}
);
leftKerningGroup = A;
rightKerningGroup = A;
unicode = 195;
},
{
glyphname = AE;
layers = (
{
layerId = "70CAE81F-A09E-4C14-9794-768AE0E0C4C3";
shapes = (
{
closed = 1;
nodes = (
(215,0,l),
(485,578,l),
(440,591,l),
(440,0,l),
(929,0,l),
(929,192,l),
(654,192,l),
(654,595,l),
(564,508,l),
(929,508,l),
(929,700,l),
(318,700,l),
(-27,0,l)
);
},
{
closed = 1;
nodes = (
(552,107,l),
(552,286,l),
(177,286,l),
(71,107,l)
);
},
{
closed = 1;
nodes = (
(908,265,l),
(908,440,l),
(579,440,l),
(579,265,l)
);
}
);
width = 968;
},
{
layerId = "E5E0E007-7D1B-446D-9E5D-3F173D74C5C6";
shapes = (
{
closed = 1;
nodes = (
(154,0,l),
(481,607,l),
(448,617,l),
(448,0,l),
(909,0,l),
(909,145,l),
(606,145,l),
(606,622,l),
(539,555,l),
(909,555,l),
(909,700,l),
(359,700,l),
(-25,0,l)
);
},
{
closed = 1;
nodes = (
(531,143,l),
(531,277,l),
(173,277,l),
(93,143,l)
);
},
{
closed = 1;
nodes = (
(888,283,l),
(888,421,l),
(551,421,l),
(551,283,l)
);
}
);
width = 959;
},
{
layerId = "7BCD794D-E026-4384-BE12-1D1749EC9686";
shapes = (
{
closed = 1;
nodes = (
(86,0,l),
(482,642,l),
(462,649,l),
(462,0,l),
(890,0,l),
(890,84,l),
(553,84,l),
(553,655,l),
(514,616,l),
(890,616,l),
(890,700,l),
(414,700,l),
(-18,0,l)
);
},
{
closed = 1;
nodes = (
(510,187,l),
(510,266,l),
(172,266,l),
(125,187,l)
);
},
{
closed = 1;
nodes = (
(869,310,l),
(869,391,l),
(522,391,l),
(522,310,l)
);
}
);
width = 942;
},
{
layerId = "88D78F5D-58B5-49C3-9C35-A3A5CAE2A296";
shapes = (
{
closed = 1;
nodes = (
(22,0,l),
(482,675,l),
(475,678,l),
(475,0,l),
(872,0,l),
(872,28,l),
(504,28,l),
(504,685,l),
(491,672,l),
(872,672,l),
(872,700,l),
(465,700,l),
(-12,0,l)
);
},
{
closed = 1;
nodes = (
(491,228,l),
(491,256,l),
(172,256,l),
(154,228,l)
);
},
{
closed = 1;
nodes = (
(851,336,l),
(851,364,l),
(495,364,l),
(495,336,l)
);
}
);
width = 927;
}
);
rightKerningGroup = E;
unicode = 198;
},
{
glyphname = B;
layers = (
{
layerId = "70CAE81F-A09E-4C14-9794-768AE0E0C4C3";
shapes = (
{
closed = 1;
nodes = (
(379,0,ls),
(529,0,o),
(627,76,o),
(627,199,cs),
(627,302,o),
(564,370,o),
(461,370,c),
(456,344,l),
(542,344,o),
(599,412,o),
(599,513,cs),
(599,629,o),
(503,700,o),
(353,700,cs),
(52,700,l),
(52,0,l)
);
},
{
closed = 1;
nodes = (
(270,598,l),
(180,530,l),
(325,530,ls),
(358,530,o),
(380,511,o),
(380,482,cs),
(380,453,o),
(358,434,o),
(325,434,cs),
(195,434,l),
(195,276,l),
(356,276,ls),
(387,276,o),
(407,255,o),
(407,224,cs),
(407,193,o),
(381,173,o),
(341,173,cs),
(180,173,l),
(270,102,l)
);
}
);
width = 648;
},
{
layerId = "E5E0E007-7D1B-446D-9E5D-3F173D74C5C6";
shapes = (
{
closed = 1;
nodes = (
(363,0,ls),
(513,0,o),
(607,76,o),
(607,196,cs),
(607,285,o),
(546,369,o),
(424,369,c),
(421,347,l),
(535,347,o),
(578,438,o),
(578,518,cs),
(578,630,o),
(488,700,o),
(344,700,cs),
(70,700,l),
(70,0,l)
);
},
{
closed = 1;
nodes = (
(227,624,l),
(164,569,l),
(324,569,ls),
(381,569,o),
(416,541,o),
(416,496,cs),
(416,448,o),
(382,420,o),
(327,420,cs),
(175,420,l),
(175,295,l),
(349,295,ls),
(410,295,o),
(441,257,o),
(441,211,cs),
(441,161,o),
(401,131,o),
(336,131,cs),
(164,131,l),
(227,76,l)
);
}
);
width = 641;
},
{
layerId = "7BCD794D-E026-4384-BE12-1D1749EC9686";
shapes = (
{
closed = 1;
nodes = (
(338,0,ls),
(488,0,o),
(571,76,o),
(571,193,cs),
(571,289,o),
(498,368,o),
(374,368,c),
(372,351,l),
(491,351,o),
(546,434,o),
(546,524,cs),
(546,631,o),
(464,700,o),
(327,700,cs),
(86,700,l),
(86,0,l)
);
},
{
closed = 1;
nodes = (
(176,656,l),
(139,623,l),
(317,623,ls),
(402,623,o),
(453,579,o),
(453,513,cs),
(453,443,o),
(406,396,o),
(323,396,cs),
(144,396,l),
(144,322,l),
(335,322,ls),
(422,322,o),
(476,269,o),
(476,201,cs),
(476,126,o),
(424,77,o),
(324,77,cs),
(139,77,l),
(176,44,l)
);
}
);
width = 619;
},
{
layerId = "88D78F5D-58B5-49C3-9C35-A3A5CAE2A296";
shapes = (
{
closed = 1;
nodes = (
(314,0,ls),
(465,0,o),
(538,76,o),
(538,190,cs),
(538,292,o),
(454,367,o),
(327,367,c),
(327,355,l),
(450,355,o),
(517,430,o),
(517,529,cs),
(517,632,o),
(441,700,o),
(312,700,cs),
(100,700,l),
(100,0,l)
);
},
{
closed = 1;
nodes = (
(129,685,l),
(116,673,l),
(311,673,ls),
(421,673,o),
(488,615,o),
(488,528,cs),
(488,439,o),
(429,374,o),
(320,374,cs),
(116,374,l),
(116,347,l),
(322,347,ls),
(433,347,o),
(508,281,o),
(508,191,cs),
(508,94,o),
(445,27,o),
(312,27,cs),
(116,27,l),
(129,15,l)
);
}
);
width = 598;
}
);
leftKerningGroup = H;
unicode = 66;
},
{
glyphname = C;
layers = (
{
anchors = (
{
name = bottom;
position = "{348, 0}";
},
{
name = top;
position = "{398, 700}";
}
);
layerId = "632B351B-3748-4642-A8C4-C39028D72536";
name = "#instance";
shapes = (
{
closed = 1;
nodes = (
(499,-15,o),
(589,26,o),
(659,98,c),
(523,257,l),
(478,213,o),
(439,195,o),
(394,195,cs),
(302,195,o),
(244,258,o),
(244,348,cs),
(244,352,ls),
(244,442,o),
(302,505,o),
(394,505,cs),
(437,505,o),
(473,489,o),
(516,450,c),
(653,608,l),
(584,677,o),
(501,715,o),
(394,715,cs),
(178,715,o),
(23,559,o),
(23,352,cs),
(23,348,ls),
(23,141,o),
(178,-15,o),
(394,-15,cs)
);
}
);
width = 660;
},
{
anchors = (
{
name = bottom;
position = "{348, 0}";
},
{
name = top;
position = "{398, 700}";
}
);
hints = (
{
horizontal = 1;
origin = (0,27);
target = (0,6);
type = Stem;
},
{
horizontal = 1;
origin = (0,13);
target = (0,20);
type = Stem;
},
{
origin = (0,24);
target = (0,10);
type = Stem;
}
);
layerId = "70CAE81F-A09E-4C14-9794-768AE0E0C4C3";
shapes = (
{
closed = 1;
nodes = (
(499,-15,o),
(589,26,o),
(659,98,c),
(523,257,l),
(478,213,o),
(439,195,o),
(394,195,cs),
(302,195,o),
(244,258,o),
(244,348,cs),
(244,352,ls),
(244,442,o),
(302,505,o),
(394,505,cs),
(437,505,o),
(473,489,o),
(516,450,c),
(653,608,l),
(584,677,o),
(501,715,o),
(394,715,cs),
(178,715,o),
(23,559,o),
(23,352,cs),
(23,348,ls),
(23,141,o),
(178,-15,o),
(394,-15,cs)
);
}
);
width = 660;
},
{
anchors = (
{
name = bottom;
position = "{362, 0}";
},
{
name = top;
position = "{406, 700}";
}
);
hints = (
{
horizontal = 1;
origin = (0,27);
target = (0,6);
type = Stem;
},
{
horizontal = 1;
origin = (0,13);
target = (0,20);
type = Stem;
},
{
origin = (0,24);
target = (0,10);
type = Stem;
}
);
layerId = "E5E0E007-7D1B-446D-9E5D-3F173D74C5C6";
shapes = (
{
closed = 1;
nodes = (
(497,-15,o),
(582,21,o),
(647,83,c),
(544,203,l),
(505,162,o),
(458,141,o),
(400,141,cs),
(282,141,o),
(199,225,o),
(199,345,cs),
(199,355,ls),
(199,475,o),
(282,559,o),
(400,559,cs),
(456,559,o),
(502,539,o),
(539,502,c),
(642,622,l),
(578,682,o),
(498,715,o),
(400,715,cs),
(197,715,o),
(35,566,o),
(35,355,cs),
(35,345,ls),
(35,134,o),
(197,-15,o),
(400,-15,cs)
);
}
);
width = 662;
},
{
anchors = (
{
name = bottom;
position = "{375, 0}";
},
{
name = top;
position = "{413, 700}";
}
);
layerId = "7BCD794D-E026-4384-BE12-1D1749EC9686";
shapes = (
{
closed = 1;
nodes = (
(491,-12,o),
(570,16,o),
(629,67,c),
(570,137,l),
(526,98,o),
(469,78,o),
(404,78,cs),
(255,78,o),
(142,185,o),
(142,342,cs),
(142,358,ls),
(142,515,o),
(255,622,o),
(404,622,cs),
(467,622,o),
(524,602,o),
(567,566,c),
(626,636,l),
(568,685,o),
(492,712,o),
(404,712,cs),
(205,712,o),
(47,568,o),
(47,358,cs),
(47,342,ls),
(47,132,o),
(205,-12,o),
(404,-12,cs)
);
}
);
width = 654;
},
{
anchors = (
{
name = bottom;
position = "{388, 0}";
},
{
name = top;
position = "{419, 700}";
}
);
layerId = "88D78F5D-58B5-49C3-9C35-A3A5CAE2A296";
shapes = (
{
closed = 1;
nodes = (
(486,-10,o),
(558,12,o),
(612,52,c),
(594,75,l),
(545,39,o),
(479,19,o),
(408,19,cs),
(229,19,o),
(88,148,o),
(88,339,cs),
(88,361,ls),
(88,552,o),
(229,681,o),
(408,681,cs),
(478,681,o),
(545,661,o),
(594,626,c),
(611,649,l),
(558,688,o),
(486,710,o),
(408,710,cs),
(213,710,o),
(58,569,o),
(58,361,cs),
(58,339,ls),
(58,131,o),
(213,-10,o),
(408,-10,cs)
);
}
);
width = 647;
}
);
leftKerningGroup = O;
rightKerningGroup = C;
unicode = 67;
},
{
glyphname = Cacute;
layers = (
{
layerId = "70CAE81F-A09E-4C14-9794-768AE0E0C4C3";
shapes = (
{
closed = 1;
nodes = (
(499,-15,o),
(589,26,o),
(659,98,c),
(523,257,l),
(478,213,o),
(439,195,o),
(394,195,cs),
(302,195,o),
(244,258,o),
(244,348,cs),
(244,352,ls),
(244,442,o),
(302,505,o),
(394,505,cs),
(437,505,o),
(473,489,o),
(516,450,c),
(653,608,l),
(584,677,o),
(501,715,o),
(394,715,cs),
(178,715,o),
(23,559,o),
(23,352,cs),
(23,348,ls),
(23,141,o),
(178,-15,o),
(394,-15,cs)
);
},
{
closed = 1;
nodes = (
(501,741,l),
(614,917,l),
(379,917,l),
(295,741,l)
);
}
);
width = 660;
},
{
layerId = "E5E0E007-7D1B-446D-9E5D-3F173D74C5C6";
shapes = (
{
closed = 1;
nodes = (
(497,-15,o),
(582,21,o),
(647,83,c),
(544,203,l),
(505,162,o),
(458,141,o),
(400,141,cs),
(282,141,o),
(199,225,o),
(199,345,cs),
(199,355,ls),
(199,475,o),
(282,559,o),
(400,559,cs),
(456,559,o),
(502,539,o),
(539,502,c),
(642,622,l),
(578,682,o),
(498,715,o),
(400,715,cs),
(197,715,o),
(35,566,o),
(35,355,cs),
(35,345,ls),
(35,134,o),
(197,-15,o),
(400,-15,cs)
);
},
{
closed = 1;
nodes = (
(483,755,l),
(590,914,l),
(414,914,l),
(329,755,l)
);
}
);
width = 662;
},
{
layerId = "7BCD794D-E026-4384-BE12-1D1749EC9686";
shapes = (
{
closed = 1;
nodes = (
(491,-12,o),
(570,16,o),
(629,67,c),
(570,137,l),
(526,98,o),
(469,78,o),
(404,78,cs),
(255,78,o),
(142,185,o),
(142,342,cs),
(142,358,ls),
(142,515,o),
(255,622,o),
(404,622,cs),
(467,622,o),
(524,602,o),
(567,566,c),
(626,636,l),
(568,685,o),
(492,712,o),
(404,712,cs),
(205,712,o),
(47,568,o),
(47,358,cs),
(47,342,ls),
(47,132,o),
(205,-12,o),
(404,-12,cs)
);
},
{
closed = 1;
nodes = (
(458,772,l),
(559,910,l),
(454,910,l),
(368,772,l)
);
}
);
width = 654;
},
{
layerId = "88D78F5D-58B5-49C3-9C35-A3A5CAE2A296";
shapes = (
{
closed = 1;
nodes = (
(486,-10,o),
(558,12,o),
(612,52,c),
(594,75,l),
(545,39,o),
(479,19,o),
(408,19,cs),
(229,19,o),
(88,148,o),
(88,339,cs),
(88,361,ls),
(88,552,o),
(229,681,o),
(408,681,cs),
(478,681,o),
(545,661,o),
(594,626,c),
(611,649,l),
(558,688,o),
(486,710,o),
(408,710,cs),
(213,710,o),
(58,569,o),
(58,361,cs),
(58,339,ls),
(58,131,o),
(213,-10,o),
(408,-10,cs)
);
},
{
closed = 1;
nodes = (
(435,788,l),
(529,907,l),
(490,907,l),
(403,788,l)
);
}
);
width = 647;
}
);
leftKerningGroup = O;
rightKerningGroup = C;
unicode = 262;
},
{
glyphname = Ccaron;
layers = (
{
layerId = "70CAE81F-A09E-4C14-9794-768AE0E0C4C3";
shapes = (
{
closed = 1;
nodes = (
(499,-15,o),
(589,26,o),
(659,98,c),
(523,257,l),
(478,213,o),
(439,195,o),
(394,195,cs),
(302,195,o),
(244,258,o),
(244,348,cs),
(244,352,ls),
(244,442,o),
(302,505,o),
(394,505,cs),
(437,505,o),
(473,489,o),
(516,450,c),
(653,608,l),
(584,677,o),
(501,715,o),
(394,715,cs),
(178,715,o),
(23,559,o),
(23,352,cs),
(23,348,ls),
(23,141,o),
(178,-15,o),
(394,-15,cs)
);
},
{
closed = 1;
nodes = (
(504,741,l),
(629,917,l),
(439,917,l),
(342,793,l),
(457,793,l),
(357,917,l),
(166,917,l),
(291,741,l)
);
}
);
width = 660;
},
{
layerId = "E5E0E007-7D1B-446D-9E5D-3F173D74C5C6";
shapes = (
{
closed = 1;
nodes = (
(497,-15,o),
(582,21,o),
(647,83,c),
(544,203,l),
(505,162,o),
(458,141,o),
(400,141,cs),
(282,141,o),
(199,225,o),
(199,345,cs),
(199,355,ls),
(199,475,o),
(282,559,o),
(400,559,cs),
(456,559,o),
(502,539,o),
(539,502,c),
(642,622,l),
(578,682,o),
(498,715,o),
(400,715,cs),
(197,715,o),
(35,566,o),
(35,355,cs),
(35,345,ls),
(35,134,o),
(197,-15,o),
(400,-15,cs)
);
},
{
closed = 1;
nodes = (
(485,755,l),
(610,914,l),
(467,914,l),
(364,796,l),
(450,796,l),
(345,914,l),
(201,914,l),
(326,755,l)
);
}
);
width = 662;
},
{
layerId = "7BCD794D-E026-4384-BE12-1D1749EC9686";
shapes = (
{
closed = 1;
nodes = (
(491,-12,o),
(570,16,o),
(629,67,c),
(570,137,l),
(526,98,o),
(469,78,o),
(404,78,cs),
(255,78,o),
(142,185,o),
(142,342,cs),
(142,358,ls),
(142,515,o),
(255,622,o),
(404,622,cs),
(467,622,o),
(524,602,o),
(567,566,c),
(626,636,l),
(568,685,o),
(492,712,o),
(404,712,cs),
(205,712,o),
(47,568,o),
(47,358,cs),
(47,342,ls),
(47,132,o),
(205,-12,o),
(404,-12,cs)
);
},
{
closed = 1;
nodes = (
(459,772,l),
(585,910,l),
(498,910,l),
(388,799,l),
(439,799,l),
(328,910,l),
(241,910,l),
(366,772,l)
);
}
);
width = 654;
},
{
layerId = "88D78F5D-58B5-49C3-9C35-A3A5CAE2A296";
shapes = (
{
closed = 1;
nodes = (
(486,-10,o),
(558,12,o),
(612,52,c),
(594,75,l),
(545,39,o),
(479,19,o),
(408,19,cs),
(229,19,o),
(88,148,o),
(88,339,cs),
(88,361,ls),
(88,552,o),
(229,681,o),
(408,681,cs),
(478,681,o),
(545,661,o),
(594,626,c),
(611,649,l),
(558,688,o),
(486,710,o),
(408,710,cs),
(213,710,o),
(58,569,o),
(58,361,cs),
(58,339,ls),
(58,131,o),
(213,-10,o),
(408,-10,cs)
);
},
{
closed = 1;
nodes = (
(434,788,l),
(561,907,l),
(527,907,l),
(410,802,l),
(428,802,l),
(311,907,l),
(277,907,l),
(403,788,l)
);
}
);
width = 647;
}
);
leftKerningGroup = O;
rightKerningGroup = C;
unicode = 268;
},
{
glyphname = Ccedilla;
layers = (
{
layerId = "70CAE81F-A09E-4C14-9794-768AE0E0C4C3";
shapes = (
{
closed = 1;
nodes = (
(499,-15,o),
(589,26,o),
(659,98,c),
(523,257,l),
(478,213,o),
(439,195,o),
(394,195,cs),
(302,195,o),
(244,258,o),
(244,348,cs),
(244,352,ls),
(244,442,o),
(302,505,o),
(394,505,cs),
(437,505,o),
(473,489,o),
(516,450,c),
(653,608,l),
(584,677,o),
(501,715,o),
(394,715,cs),
(178,715,o),
(23,559,o),
(23,352,cs),
(23,348,ls),
(23,141,o),
(178,-15,o),
(394,-15,cs)
);
},
{
closed = 1;
nodes = (
(320,-235,ls),
(412,-235,o),
(473,-191,o),
(473,-124,cs),
(473,-69,o),
(431,-32,o),
(367,-32,cs),
(326,-32,l),
(384,-54,l),
(418,50,l),
(286,50,l),
(245,-104,l),
(306,-104,ls),
(321,-104,o),
(331,-110,o),
(331,-120,cs),
(331,-131,o),
(321,-139,o),
(306,-139,cs),
(230,-139,l),
(230,-235,l)
);
}
);
width = 660;
},
{
layerId = "E5E0E007-7D1B-446D-9E5D-3F173D74C5C6";
shapes = (
{
closed = 1;
nodes = (
(497,-15,o),
(582,21,o),
(647,83,c),
(544,203,l),
(505,162,o),
(458,141,o),
(400,141,cs),
(282,141,o),
(199,225,o),
(199,345,cs),
(199,355,ls),
(199,475,o),
(282,559,o),
(400,559,cs),
(456,559,o),
(502,539,o),
(539,502,c),
(642,622,l),
(578,682,o),
(498,715,o),
(400,715,cs),
(197,715,o),
(35,566,o),
(35,355,cs),
(35,345,ls),
(35,134,o),
(197,-15,o),
(400,-15,cs)
);
},
{
closed = 1;
nodes = (
(347,-215,ls),
(435,-215,o),
(484,-181,o),
(484,-119,cs),
(484,-64,o),
(445,-33,o),
(376,-33,cs),
(320,-33,l),
(390,-55,l),
(415,36,l),
(315,36,l),
(284,-100,l),
(347,-100,ls),
(367,-100,o),
(377,-106,o),
(377,-121,cs),
(377,-136,o),
(367,-144,o),
(347,-144,cs),
(262,-144,l),
(262,-215,l)
);
}
);
width = 662;
},
{
layerId = "7BCD794D-E026-4384-BE12-1D1749EC9686";
shapes = (
{
closed = 1;
nodes = (
(491,-12,o),
(570,16,o),
(629,67,c),
(570,137,l),
(526,98,o),
(469,78,o),
(404,78,cs),
(255,78,o),
(142,185,o),
(142,342,cs),
(142,358,ls),
(142,515,o),
(255,622,o),
(404,622,cs),
(467,622,o),
(524,602,o),
(567,566,c),
(626,636,l),
(568,685,o),
(492,712,o),
(404,712,cs),
(205,712,o),
(47,568,o),
(47,358,cs),
(47,342,ls),
(47,132,o),
(205,-12,o),
(404,-12,cs)
);
},
{
closed = 1;
nodes = (
(387,-208,ls),
(455,-208,o),
(493,-177,o),
(493,-127,cs),
(493,-81,o),
(461,-52,o),
(402,-52,cs),
(354,-52,l),
(393,-67,l),
(407,19,l),
(346,19,l),
(328,-95,l),
(387,-95,ls),
(414,-95,o),
(428,-108,o),
(428,-128,cs),
(428,-148,o),
(414,-162,o),
(387,-162,cs),
(296,-162,l),
(296,-208,l)
);
}
);
width = 654;
},
{
layerId = "88D78F5D-58B5-49C3-9C35-A3A5CAE2A296";
shapes = (
{
closed = 1;
nodes = (
(486,-10,o),
(558,12,o),
(612,52,c),
(594,75,l),
(545,39,o),
(479,19,o),
(408,19,cs),
(229,19,o),
(88,148,o),
(88,339,cs),
(88,361,ls),
(88,552,o),
(229,681,o),
(408,681,cs),
(478,681,o),
(545,661,o),
(594,626,c),
(611,649,l),
(558,688,o),
(486,710,o),
(408,710,cs),
(213,710,o),
(58,569,o),
(58,361,cs),
(58,339,ls),
(58,131,o),
(213,-10,o),
(408,-10,cs)
);
},
{
closed = 1;
nodes = (
(426,-201,ls),
(475,-201,o),
(503,-174,o),
(503,-134,cs),
(503,-97,o),
(476,-69,o),
(428,-69,cs),
(386,-69,l),
(397,-79,l),
(401,4,l),
(376,4,l),
(369,-91,l),
(426,-91,ls),
(459,-91,o),
(477,-110,o),
(477,-134,cs),
(477,-160,o),
(459,-179,o),
(426,-179,cs),
(329,-179,l),
(329,-201,l)
);
}
);
width = 647;
}
);
leftKerningGroup = O;
rightKerningGroup = C;
unicode = 199;
},
{
glyphname = Cdotaccent;
layers = (
{
layerId = "70CAE81F-A09E-4C14-9794-768AE0E0C4C3";
shapes = (
{
closed = 1;
nodes = (
(499,-15,o),
(589,26,o),
(659,98,c),
(523,257,l),
(478,213,o),
(439,195,o),
(394,195,cs),
(302,195,o),
(244,258,o),
(244,348,cs),
(244,352,ls),
(244,442,o),
(302,505,o),
(394,505,cs),
(437,505,o),
(473,489,o),
(516,450,c),
(653,608,l),
(584,677,o),
(501,715,o),
(394,715,cs),
(178,715,o),
(23,559,o),
(23,352,cs),
(23,348,ls),
(23,141,o),
(178,-15,o),
(394,-15,cs)
);
},
{
closed = 1;
nodes = (
(510,741,l),
(510,901,l),
(286,901,l),
(286,741,l)
);
}
);
width = 660;
},
{
layerId = "E5E0E007-7D1B-446D-9E5D-3F173D74C5C6";
shapes = (
{
closed = 1;
nodes = (
(497,-15,o),
(582,21,o),
(647,83,c),
(544,203,l),
(505,162,o),
(458,141,o),
(400,141,cs),
(282,141,o),
(199,225,o),
(199,345,cs),
(199,355,ls),
(199,475,o),
(282,559,o),
(400,559,cs),
(456,559,o),
(502,539,o),
(539,502,c),
(642,622,l),
(578,682,o),
(498,715,o),
(400,715,cs),
(197,715,o),
(35,566,o),
(35,355,cs),
(35,345,ls),
(35,134,o),
(197,-15,o),
(400,-15,cs)
);
},
{
closed = 1;
nodes = (
(489,777,l),
(489,914,l),
(323,914,l),
(323,777,l)
);
}
);
width = 662;
},
{
layerId = "7BCD794D-E026-4384-BE12-1D1749EC9686";
shapes = (
{
closed = 1;
nodes = (
(491,-12,o),
(570,16,o),
(629,67,c),
(570,137,l),
(526,98,o),
(469,78,o),
(404,78,cs),
(255,78,o),
(142,185,o),
(142,342,cs),
(142,358,ls),
(142,515,o),
(255,622,o),
(404,622,cs),
(467,622,o),
(524,602,o),
(567,566,c),
(626,636,l),
(568,685,o),
(492,712,o),
(404,712,cs),
(205,712,o),
(47,568,o),
(47,358,cs),
(47,342,ls),
(47,132,o),
(205,-12,o),
(404,-12,cs)
);
},
{
closed = 1;
nodes = (
(461,793,l),
(461,902,l),
(365,902,l),
(365,793,l)
);
}
);
width = 654;
},
{
layerId = "88D78F5D-58B5-49C3-9C35-A3A5CAE2A296";
shapes = (
{
closed = 1;
nodes = (
(486,-10,o),
(558,12,o),
(612,52,c),
(594,75,l),
(545,39,o),
(479,19,o),
(408,19,cs),
(229,19,o),
(88,148,o),
(88,339,cs),
(88,361,ls),
(88,552,o),
(229,681,o),
(408,681,cs),
(478,681,o),
(545,661,o),
(594,626,c),
(611,649,l),
(558,688,o),
(486,710,o),
(408,710,cs),
(213,710,o),
(58,569,o),
(58,361,cs),
(58,339,ls),
(58,131,o),
(213,-10,o),
(408,-10,cs)
);
},
{
closed = 1;
nodes = (
(434,807,l),
(434,891,l),
(404,891,l),
(404,807,l)
);
}
);
width = 647;
}
);
leftKerningGroup = O;
rightKerningGroup = C;
unicode = 266;
},
{
glyphname = D;
layers = (
{
layerId = "70CAE81F-A09E-4C14-9794-768AE0E0C4C3";
shapes = (
{
closed = 1;
nodes = (
(344,0,ls),
(546,0,o),
(704,140,o),
(704,345,cs),
(704,354,ls),
(704,556,o),
(549,700,o),
(344,700,cs),
(52,700,l),
(52,0,l)
);
},
{
closed = 1;
nodes = (
(270,590,l),
(180,505,l),
(326,505,ls),
(424,505,o),
(482,441,o),
(482,354,cs),
(482,345,ls),
(482,254,o),
(420,195,o),
(326,195,cs),
(180,195,l),
(270,110,l)
);
}
);
width = 728;
},
{
layerId = "E5E0E007-7D1B-446D-9E5D-3F173D74C5C6";
shapes = (
{
closed = 1;
nodes = (
(338,0,ls),
(536,0,o),
(690,142,o),
(690,344,cs),
(690,354,ls),
(690,558,o),
(539,700,o),
(338,700,cs),
(70,700,l),
(70,0,l)
);
},
{
closed = 1;
nodes = (
(230,618,l),
(164,551,l),
(325,551,ls),
(446,551,o),
(526,473,o),
(526,354,cs),
(526,344,ls),
(526,227,o),
(443,149,o),
(325,149,cs),
(164,149,l),
(230,82,l)
);
}
);
width = 726;
},
{
layerId = "7BCD794D-E026-4384-BE12-1D1749EC9686";
shapes = (
{
closed = 1;
nodes = (
(325,0,ls),
(518,0,o),
(667,145,o),
(667,350,cs),
(667,361,ls),
(667,561,o),
(520,700,o),
(325,700,cs),
(86,700,l),
(86,0,l)
);
},
{
closed = 1;
nodes = (
(178,652,l),
(139,613,l),
(318,613,ls),
(466,613,o),
(573,511,o),
(573,361,cs),
(573,350,ls),
(573,194,o),
(465,87,o),
(318,87,cs),
(139,87,l),
(178,48,l)
);
}
);
width = 715;
},
{
layerId = "88D78F5D-58B5-49C3-9C35-A3A5CAE2A296";
shapes = (
{
closed = 1;
nodes = (
(312,0,ls),
(502,0,o),
(646,147,o),
(646,355,cs),
(646,368,ls),
(646,563,o),
(503,700,o),
(312,700,cs),
(100,700,l),
(100,0,l)
);
},
{
closed = 1;
nodes = (
(129,684,l),
(116,671,l),
(311,671,ls),
(485,671,o),
(617,547,o),
(617,368,cs),
(617,355,ls),
(617,164,o),
(485,29,o),
(311,29,cs),
(116,29,l),
(129,16,l)
);
}
);
width = 704;
}
);
leftKerningGroup = H;
rightKerningGroup = D;
unicode = 68;
},
{
glyphname = Dcaron;
layers = (
{
layerId = "70CAE81F-A09E-4C14-9794-768AE0E0C4C3";
shapes = (
{
closed = 1;
nodes = (
(344,0,ls),
(546,0,o),
(704,140,o),
(704,345,cs),
(704,354,ls),
(704,556,o),
(549,700,o),
(344,700,cs),
(52,700,l),
(52,0,l)
);
},
{
closed = 1;
nodes = (
(270,590,l),
(180,505,l),
(326,505,ls),
(424,505,o),
(482,441,o),
(482,354,cs),
(482,345,ls),
(482,254,o),
(420,195,o),
(326,195,cs),
(180,195,l),
(270,110,l)
);
},
{
closed = 1;
nodes = (
(465,741,l),
(590,917,l),
(400,917,l),
(303,793,l),
(418,793,l),
(318,917,l),
(127,917,l),
(252,741,l)
);
}
);
width = 728;
},
{
layerId = "E5E0E007-7D1B-446D-9E5D-3F173D74C5C6";
shapes = (
{
closed = 1;
nodes = (
(338,0,ls),
(536,0,o),
(690,142,o),
(690,344,cs),
(690,354,ls),
(690,558,o),
(539,700,o),
(338,700,cs),
(70,700,l),
(70,0,l)
);
},
{
closed = 1;
nodes = (
(230,618,l),
(164,551,l),
(325,551,ls),
(446,551,o),
(526,473,o),
(526,354,cs),
(526,344,ls),
(526,227,o),
(443,149,o),
(325,149,cs),
(164,149,l),
(230,82,l)
);
},
{
closed = 1;
nodes = (
(435,755,l),
(560,914,l),
(417,914,l),
(314,796,l),
(400,796,l),
(295,914,l),
(151,914,l),
(276,755,l)
);
}
);
width = 726;
},
{
layerId = "7BCD794D-E026-4384-BE12-1D1749EC9686";
shapes = (
{
closed = 1;
nodes = (
(325,0,ls),
(518,0,o),
(667,145,o),
(667,350,cs),
(667,361,ls),
(667,561,o),
(520,700,o),
(325,700,cs),
(86,700,l),
(86,0,l)
);
},
{
closed = 1;
nodes = (
(178,652,l),
(139,613,l),
(318,613,ls),
(466,613,o),
(573,511,o),
(573,361,cs),
(573,350,ls),
(573,194,o),
(465,87,o),
(318,87,cs),
(139,87,l),
(178,48,l)
);
},
{
closed = 1;
nodes = (
(393,772,l),
(519,910,l),
(432,910,l),
(322,799,l),
(373,799,l),
(262,910,l),
(175,910,l),
(300,772,l)
);
}
);
width = 715;
},
{
layerId = "88D78F5D-58B5-49C3-9C35-A3A5CAE2A296";
shapes = (
{
closed = 1;
nodes = (
(312,0,ls),
(502,0,o),
(646,147,o),
(646,355,cs),
(646,368,ls),
(646,563,o),
(503,700,o),
(312,700,cs),
(100,700,l),
(100,0,l)
);
},
{
closed = 1;
nodes = (
(129,684,l),
(116,671,l),
(311,671,ls),
(485,671,o),
(617,547,o),
(617,368,cs),
(617,355,ls),
(617,164,o),
(485,29,o),
(311,29,cs),
(116,29,l),
(129,16,l)
);
},
{
closed = 1;
nodes = (
(353,788,l),
(480,907,l),
(446,907,l),
(329,802,l),
(347,802,l),
(230,907,l),
(196,907,l),
(322,788,l)
);
}
);
width = 704;
}
);
leftKerningGroup = H;
rightKerningGroup = D;
unicode = 270;
},
{
glyphname = Dcroat;
layers = (
{
layerId = "70CAE81F-A09E-4C14-9794-768AE0E0C4C3";
shapes = (
{
closed = 1;
nodes = (
(389,0,ls),
(591,0,o),
(749,140,o),
(749,345,cs),
(749,354,ls),
(749,556,o),
(594,700,o),
(389,700,cs),
(97,700,l),
(97,0,l)
);
},
{
closed = 1;
nodes = (
(315,590,l),
(225,505,l),
(371,505,ls),
(469,505,o),
(527,441,o),
(527,354,cs),
(527,345,ls),
(527,254,o),
(465,195,o),
(371,195,cs),
(225,195,l),
(315,110,l)
);
},
{
closed = 1;
nodes = (
(433,273,l),
(433,430,l),
(19,430,l),
(19,273,l)
);
}
);
width = 773;
},
{
layerId = "E5E0E007-7D1B-446D-9E5D-3F173D74C5C6";
shapes = (
{
closed = 1;
nodes = (
(384,0,ls),
(582,0,o),
(736,142,o),
(736,344,cs),
(736,354,ls),
(736,558,o),
(585,700,o),
(384,700,cs),
(116,700,l),
(116,0,l)
);
},
{
closed = 1;
nodes = (
(276,618,l),
(210,551,l),
(371,551,ls),
(492,551,o),
(572,473,o),
(572,354,cs),
(572,344,ls),
(572,227,o),
(489,149,o),
(371,149,cs),
(210,149,l),
(276,82,l)
);
},
{
closed = 1;
nodes = (
(429,296,l),
(429,425,l),
(31,425,l),
(31,296,l)
);
}
);
width = 772;
},
{
layerId = "7BCD794D-E026-4384-BE12-1D1749EC9686";
shapes = (
{
closed = 1;
nodes = (
(360,0,ls),
(553,0,o),
(702,145,o),
(702,350,cs),
(702,361,ls),
(702,561,o),
(555,700,o),
(360,700,cs),
(121,700,l),
(121,0,l)
);
},
{
closed = 1;
nodes = (
(213,652,l),
(174,613,l),
(353,613,ls),
(501,613,o),
(608,511,o),
(608,361,cs),
(608,350,ls),
(608,194,o),
(500,87,o),
(353,87,cs),
(174,87,l),
(213,48,l)
);
},
{
closed = 1;
nodes = (
(375,322,l),
(375,398,l),
(33,398,l),
(33,322,l)
);
}
);
width = 749;
},
{
layerId = "88D78F5D-58B5-49C3-9C35-A3A5CAE2A296";
shapes = (
{
closed = 1;
nodes = (
(336,0,ls),
(526,0,o),
(670,147,o),
(670,355,cs),
(670,368,ls),
(670,563,o),
(527,700,o),
(336,700,cs),
(124,700,l),
(124,0,l)
);
},
{
closed = 1;
nodes = (
(153,684,l),
(140,671,l),
(335,671,ls),
(509,671,o),
(641,547,o),
(641,368,cs),
(641,355,ls),
(641,164,o),
(509,29,o),
(335,29,cs),
(140,29,l),
(153,16,l)
);
},
{
closed = 1;
nodes = (
(325,346,l),
(325,373,l),
(35,373,l),
(35,346,l)
);
}
);
width = 728;
}
);
leftKerningGroup = H;
rightKerningGroup = D;
unicode = 272;
},
{
glyphname = Eth;
layers = (
{
layerId = "70CAE81F-A09E-4C14-9794-768AE0E0C4C3";
shapes = (
{
closed = 1;
nodes = (
(389,0,ls),
(591,0,o),
(749,140,o),
(749,345,cs),
(749,354,ls),
(749,556,o),
(594,700,o),
(389,700,cs),
(97,700,l),
(97,0,l)
);
},
{
closed = 1;
nodes = (
(315,590,l),
(225,505,l),
(371,505,ls),
(469,505,o),
(527,441,o),
(527,354,cs),
(527,345,ls),
(527,254,o),
(465,195,o),
(371,195,cs),
(225,195,l),
(315,110,l)
);
},
{
closed = 1;
nodes = (
(433,273,l),
(433,430,l),
(19,430,l),
(19,273,l)
);
}
);
width = 773;
},
{
layerId = "E5E0E007-7D1B-446D-9E5D-3F173D74C5C6";
shapes = (
{
closed = 1;
nodes = (
(384,0,ls),
(582,0,o),
(736,142,o),
(736,344,cs),
(736,354,ls),
(736,558,o),
(585,700,o),
(384,700,cs),
(116,700,l),
(116,0,l)
);
},
{
closed = 1;
nodes = (
(276,618,l),
(210,551,l),
(371,551,ls),
(492,551,o),
(572,473,o),
(572,354,cs),
(572,344,ls),
(572,227,o),
(489,149,o),
(371,149,cs),
(210,149,l),
(276,82,l)
);
},
{
closed = 1;
nodes = (
(429,296,l),
(429,425,l),
(31,425,l),
(31,296,l)
);
}
);
width = 772;
},
{
layerId = "7BCD794D-E026-4384-BE12-1D1749EC9686";
shapes = (
{
closed = 1;
nodes = (
(360,0,ls),
(553,0,o),
(702,145,o),
(702,350,cs),
(702,361,ls),
(702,561,o),
(555,700,o),
(360,700,cs),
(121,700,l),
(121,0,l)
);
},
{
closed = 1;
nodes = (
(213,652,l),
(174,613,l),
(353,613,ls),
(501,613,o),
(608,511,o),
(608,361,cs),
(608,350,ls),
(608,194,o),
(500,87,o),
(353,87,cs),
(174,87,l),
(213,48,l)
);
},
{
closed = 1;
nodes = (
(375,322,l),
(375,398,l),
(33,398,l),
(33,322,l)
);
}
);
width = 749;
},
{
layerId = "88D78F5D-58B5-49C3-9C35-A3A5CAE2A296";
shapes = (
{
closed = 1;
nodes = (
(336,0,ls),
(526,0,o),
(670,147,o),
(670,355,cs),
(670,368,ls),
(670,563,o),
(527,700,o),
(336,700,cs),
(124,700,l),
(124,0,l)
);
},
{
closed = 1;
nodes = (
(153,684,l),
(140,671,l),
(335,671,ls),
(509,671,o),
(641,547,o),
(641,368,cs),
(641,355,ls),
(641,164,o),
(509,29,o),
(335,29,cs),
(140,29,l),
(153,16,l)
);
},
{
closed = 1;
nodes = (
(325,346,l),
(325,373,l),
(35,373,l),
(35,346,l)
);
}
);
width = 728;
}
);
leftKerningGroup = H;
rightKerningGroup = D;
unicode = 208;
},
{
glyphname = E;
layers = (
{
anchors = (
{
name = bottom;
position = "{341, 0}";
},
{
name = ogonek;
position = "{565, 0}";
},
{
name = top;
position = "{332, 700}";
}
);
hints = (
{
horizontal = 1;
origin = (0,7);
target = (0,2);
type = Stem;
},
{
horizontal = 1;
origin = (1,3);
target = (1,2);
type = Stem;
},
{
horizontal = 1;
origin = (0,4);
target = (0,6);
type = Stem;
},
{
place = (48,517);
type = Stem;
}
);
layerId = "70CAE81F-A09E-4C14-9794-768AE0E0C4C3";
shapes = (
{
closed = 1;
nodes = (
(565,0,l),
(565,192,l),
(266,192,l),
(266,508,l),
(565,508,l),
(565,700,l),
(48,700,l),
(48,0,l)
);
},
{
closed = 1;
nodes = (
(544,265,l),
(544,440,l),
(149,440,l),
(149,265,l)
);
}
);
width = 604;
},
{
anchors = (
{
name = bottom;
position = "{335, 0}";
},
{
name = ogonek;
position = "{545, 0}";
},
{
name = top;
position = "{327, 700}";
}
);
hints = (
{
horizontal = 1;
origin = (0,7);
target = (0,2);
type = Stem;
},
{
horizontal = 1;
origin = (1,3);
target = (1,2);
type = Stem;
},
{
horizontal = 1;
origin = (0,4);
target = (0,6);
type = Stem;
},
{
place = (64,481);
type = Stem;
}
);
layerId = "E5E0E007-7D1B-446D-9E5D-3F173D74C5C6";
shapes = (
{
closed = 1;
nodes = (
(545,0,l),
(545,145,l),
(222,145,l),
(222,555,l),
(545,555,l),
(545,700,l),
(64,700,l),
(64,0,l)
);
},
{
closed = 1;
nodes = (
(524,283,l),
(524,421,l),
(140,421,l),
(140,283,l)
);
}
);
width = 595;
},
{
anchors = (
{
name = bottom;
position = "{325, 0}";
},
{
name = ogonek;
position = "{518, 0}";
},
{
name = top;
position = "{317, 700}";
}
);
layerId = "7BCD794D-E026-4384-BE12-1D1749EC9686";
shapes = (
{
closed = 1;
nodes = (
(518,0,l),
(518,84,l),
(171,84,l),
(171,616,l),
(518,616,l),
(518,700,l),
(80,700,l),
(80,0,l)
);
},
{
closed = 1;
nodes = (
(497,310,l),
(497,391,l),
(126,391,l),
(126,310,l)
);
}
);
width = 570;
},
{
anchors = (
{
name = bottom;
position = "{315, 0}";
},
{
name = ogonek;
position = "{492, 0}";
},
{
name = top;
position = "{308, 700}";
}
);
layerId = "88D78F5D-58B5-49C3-9C35-A3A5CAE2A296";
shapes = (
{
closed = 1;
nodes = (
(492,0,l),
(492,28,l),
(123,28,l),
(123,672,l),
(492,672,l),
(492,700,l),
(94,700,l),
(94,0,l)
);
},
{
closed = 1;
nodes = (
(471,336,l),
(471,364,l),
(112,364,l),
(112,336,l)
);
}
);
width = 547;
}
);
leftKerningGroup = E;
rightKerningGroup = E;
unicode = 69;
},
{
glyphname = Eacute;
layers = (
{
layerId = "70CAE81F-A09E-4C14-9794-768AE0E0C4C3";
shapes = (
{
closed = 1;
nodes = (
(565,0,l),
(565,192,l),
(266,192,l),
(266,508,l),
(565,508,l),
(565,700,l),
(48,700,l),
(48,0,l)
);
},
{
closed = 1;
nodes = (
(544,265,l),
(544,440,l),
(149,440,l),
(149,265,l)
);
},
{
closed = 1;
nodes = (
(435,741,l),
(548,917,l),
(313,917,l),
(229,741,l)
);
}
);
width = 604;
},
{
layerId = "E5E0E007-7D1B-446D-9E5D-3F173D74C5C6";
shapes = (
{
closed = 1;
nodes = (
(545,0,l),
(545,145,l),
(222,145,l),
(222,555,l),
(545,555,l),
(545,700,l),
(64,700,l),
(64,0,l)
);
},
{
closed = 1;
nodes = (
(524,283,l),
(524,421,l),
(140,421,l),
(140,283,l)
);
},
{
closed = 1;
nodes = (
(404,755,l),
(511,914,l),
(335,914,l),
(250,755,l)
);
}
);
width = 595;
},
{
layerId = "7BCD794D-E026-4384-BE12-1D1749EC9686";
shapes = (
{
closed = 1;
nodes = (
(518,0,l),
(518,84,l),
(171,84,l),
(171,616,l),
(518,616,l),
(518,700,l),
(80,700,l),
(80,0,l)
);
},
{
closed = 1;
nodes = (
(497,310,l),
(497,391,l),
(126,391,l),
(126,310,l)
);
},
{
closed = 1;
nodes = (
(362,772,l),
(463,910,l),
(358,910,l),
(272,772,l)
);
}
);
width = 570;
},
{
layerId = "88D78F5D-58B5-49C3-9C35-A3A5CAE2A296";
shapes = (
{
closed = 1;
nodes = (
(492,0,l),
(492,28,l),
(123,28,l),
(123,672,l),
(492,672,l),
(492,700,l),
(94,700,l),
(94,0,l)
);
},
{
closed = 1;
nodes = (
(471,336,l),
(471,364,l),
(112,364,l),
(112,336,l)
);
},
{
closed = 1;
nodes = (
(324,788,l),
(418,907,l),
(379,907,l),
(292,788,l)
);
}
);
width = 547;
}
);
leftKerningGroup = E;
rightKerningGroup = E;
unicode = 201;
},
{
glyphname = Ecaron;
layers = (
{
layerId = "70CAE81F-A09E-4C14-9794-768AE0E0C4C3";
shapes = (
{
closed = 1;
nodes = (
(565,0,l),
(565,192,l),
(266,192,l),
(266,508,l),
(565,508,l),
(565,700,l),
(48,700,l),
(48,0,l)
);
},
{
closed = 1;
nodes = (
(544,265,l),
(544,440,l),
(149,440,l),
(149,265,l)
);
},
{
closed = 1;
nodes = (
(438,741,l),
(563,917,l),
(373,917,l),
(276,793,l),
(391,793,l),
(291,917,l),
(100,917,l),
(225,741,l)
);
}
);
width = 604;
},
{
layerId = "E5E0E007-7D1B-446D-9E5D-3F173D74C5C6";
shapes = (
{
closed = 1;
nodes = (
(545,0,l),
(545,145,l),
(222,145,l),
(222,555,l),
(545,555,l),
(545,700,l),
(64,700,l),
(64,0,l)
);
},
{
closed = 1;
nodes = (
(524,283,l),
(524,421,l),
(140,421,l),
(140,283,l)
);
},
{
closed = 1;
nodes = (
(406,755,l),
(531,914,l),
(388,914,l),
(285,796,l),
(371,796,l),
(266,914,l),
(122,914,l),
(247,755,l)
);
}
);
width = 595;
},
{
layerId = "7BCD794D-E026-4384-BE12-1D1749EC9686";
shapes = (
{
closed = 1;
nodes = (
(518,0,l),
(518,84,l),
(171,84,l),
(171,616,l),
(518,616,l),
(518,700,l),
(80,700,l),
(80,0,l)
);
},
{
closed = 1;
nodes = (
(497,310,l),
(497,391,l),
(126,391,l),
(126,310,l)
);
},
{
closed = 1;
nodes = (
(363,772,l),
(489,910,l),
(402,910,l),
(292,799,l),
(343,799,l),
(232,910,l),
(145,910,l),
(270,772,l)
);
}
);
width = 570;
},
{
layerId = "88D78F5D-58B5-49C3-9C35-A3A5CAE2A296";
shapes = (
{
closed = 1;
nodes = (
(492,0,l),
(492,28,l),
(123,28,l),
(123,672,l),
(492,672,l),
(492,700,l),
(94,700,l),
(94,0,l)
);
},
{
closed = 1;
nodes = (
(471,336,l),
(471,364,l),
(112,364,l),
(112,336,l)
);
},
{
closed = 1;
nodes = (
(323,788,l),
(450,907,l),
(416,907,l),
(299,802,l),
(317,802,l),
(200,907,l),
(166,907,l),
(292,788,l)
);
}
);
width = 547;
}
);
leftKerningGroup = E;
rightKerningGroup = E;
unicode = 282;
},
{
glyphname = Ecircumflex;
layers = (
{
layerId = "70CAE81F-A09E-4C14-9794-768AE0E0C4C3";
shapes = (
{
closed = 1;
nodes = (
(565,0,l),
(565,192,l),
(266,192,l),
(266,508,l),
(565,508,l),
(565,700,l),
(48,700,l),
(48,0,l)
);
},
{
closed = 1;
nodes = (
(544,265,l),
(544,440,l),
(149,440,l),
(149,265,l)
);
},
{
closed = 1;
nodes = (
(291,741,l),
(388,864,l),
(273,864,l),
(373,741,l),
(564,741,l),
(439,917,l),
(226,917,l),
(101,741,l)
);
}
);
width = 604;
},
{
layerId = "E5E0E007-7D1B-446D-9E5D-3F173D74C5C6";
shapes = (
{
closed = 1;
nodes = (
(545,0,l),
(545,145,l),
(222,145,l),
(222,555,l),
(545,555,l),
(545,700,l),
(64,700,l),
(64,0,l)
);
},
{
closed = 1;
nodes = (
(524,283,l),
(524,421,l),
(140,421,l),
(140,283,l)
);
},
{
closed = 1;
nodes = (
(266,755,l),
(369,873,l),
(283,873,l),
(388,755,l),
(532,755,l),
(407,914,l),
(248,914,l),
(123,755,l)
);
}
);
width = 595;
},
{
layerId = "7BCD794D-E026-4384-BE12-1D1749EC9686";
shapes = (
{
closed = 1;
nodes = (
(518,0,l),
(518,84,l),
(171,84,l),
(171,616,l),
(518,616,l),
(518,700,l),
(80,700,l),
(80,0,l)
);
},
{
closed = 1;
nodes = (
(497,310,l),
(497,391,l),
(126,391,l),
(126,310,l)
);
},
{
closed = 1;
nodes = (
(232,772,l),
(342,884,l),
(291,884,l),
(402,772,l),
(489,772,l),
(364,910,l),
(271,910,l),
(145,772,l)
);
}
);
width = 570;
},
{
layerId = "88D78F5D-58B5-49C3-9C35-A3A5CAE2A296";
shapes = (
{
closed = 1;
nodes = (
(492,0,l),
(492,28,l),
(123,28,l),
(123,672,l),
(492,672,l),
(492,700,l),
(94,700,l),
(94,0,l)
);
},
{
closed = 1;
nodes = (
(471,336,l),
(471,364,l),
(112,364,l),
(112,336,l)
);
},
{
closed = 1;
nodes = (
(200,788,l),
(317,894,l),
(299,894,l),
(416,788,l),
(450,788,l),
(324,907,l),
(293,907,l),
(166,788,l)
);
}
);
width = 547;
}
);
leftKerningGroup = E;
rightKerningGroup = E;
unicode = 202;
},
{
color = 8;
glyphname = Ecircumflexacute;
layers = (
{
layerId = "70CAE81F-A09E-4C14-9794-768AE0E0C4C3";
shapes = (
{
closed = 1;
nodes = (
(565,0,l),
(565,192,l),
(266,192,l),
(266,508,l),
(565,508,l),
(565,700,l),
(48,700,l),
(48,0,l)
);
},
{
closed = 1;
nodes = (
(544,265,l),
(544,440,l),
(149,440,l),
(149,265,l)
);
},
{
closed = 1;
nodes = (
(291,741,l),
(388,844,l),
(273,844,l),
(373,741,l),
(564,741,l),
(439,897,l),
(226,897,l),
(101,741,l)
);
},
{
closed = 1;
nodes = (
(427,936,l),
(534,1071,l),
(318,1071,l),
(234,936,l)
);
}
);
width = 604;
},
{
layerId = "E5E0E007-7D1B-446D-9E5D-3F173D74C5C6";
shapes = (
{
closed = 1;
nodes = (
(545,0,l),
(545,145,l),
(222,145,l),
(222,555,l),
(545,555,l),
(545,700,l),
(64,700,l),
(64,0,l)
);
},
{
closed = 1;
nodes = (
(524,283,l),
(524,421,l),
(140,421,l),
(140,283,l)
);
},
{
closed = 1;
nodes = (
(266,755,l),
(369,843,l),
(283,843,l),
(388,755,l),
(532,755,l),
(407,894,l),
(248,894,l),
(123,755,l)
);
},
{
closed = 1;
nodes = (
(400,939,l),
(501,1061,l),
(340,1061,l),
(255,939,l)
);
}
);
width = 595;
},
{
layerId = "7BCD794D-E026-4384-BE12-1D1749EC9686";
shapes = (
{
closed = 1;
nodes = (
(518,0,l),
(518,84,l),
(171,84,l),
(171,616,l),
(518,616,l),
(518,700,l),
(80,700,l),
(80,0,l)
);
},
{
closed = 1;
nodes = (
(497,310,l),
(497,391,l),
(126,391,l),
(126,310,l)
);
},
{
closed = 1;
nodes = (
(232,772,l),
(342,856,l),
(291,856,l),
(402,772,l),
(489,772,l),
(363,890,l),
(271,890,l),
(145,772,l)
);
},
{
closed = 1;
nodes = (
(360,933,l),
(455,1051,l),
(360,1051,l),
(274,933,l)
);
}
);
width = 570;
},
{
layerId = "88D78F5D-58B5-49C3-9C35-A3A5CAE2A296";
shapes = (
{
closed = 1;
nodes = (
(492,0,l),
(492,28,l),
(123,28,l),
(123,672,l),
(492,672,l),
(492,700,l),
(94,700,l),
(94,0,l)
);
},
{
closed = 1;
nodes = (
(471,336,l),
(471,364,l),
(112,364,l),
(112,336,l)
);
},
{
closed = 1;
nodes = (
(200,788,l),
(317,869,l),
(299,869,l),
(416,788,l),
(450,788,l),
(323,887,l),
(292,887,l),
(166,788,l)
);
},
{
closed = 1;
nodes = (
(323,927,l),
(412,1041,l),
(378,1041,l),
(292,927,l)
);
}
);
width = 547;
}
);
leftKerningGroup = E;
rightKerningGroup = E;
unicode = 7870;
},
{
color = 8;
glyphname = Ecircumflexdotbelow;
layers = (
{
layerId = "70CAE81F-A09E-4C14-9794-768AE0E0C4C3";
shapes = (
{
closed = 1;
nodes = (
(565,0,l),
(565,192,l),
(266,192,l),
(266,508,l),
(565,508,l),
(565,700,l),
(48,700,l),
(48,0,l)
);
},
{
closed = 1;
nodes = (
(544,265,l),
(544,440,l),
(149,440,l),
(149,265,l)
);
},
{
closed = 1;
nodes = (
(453,-210,l),
(453,-49,l),
(229,-49,l),
(229,-210,l)
);
},
{
closed = 1;
nodes = (
(291,741,l),
(388,864,l),
(273,864,l),
(373,741,l),
(564,741,l),
(439,917,l),
(226,917,l),
(101,741,l)
);
}
);
width = 604;
},
{
layerId = "E5E0E007-7D1B-446D-9E5D-3F173D74C5C6";
shapes = (
{
closed = 1;
nodes = (
(545,0,l),
(545,145,l),
(222,145,l),
(222,555,l),
(545,555,l),
(545,700,l),
(64,700,l),
(64,0,l)
);
},
{
closed = 1;
nodes = (
(524,283,l),
(524,421,l),
(140,421,l),
(140,283,l)
);
},
{
closed = 1;
nodes = (
(418,-210,l),
(418,-70,l),
(252,-70,l),
(252,-210,l)
);
},
{
closed = 1;
nodes = (
(266,755,l),
(369,873,l),
(283,873,l),
(388,755,l),
(532,755,l),
(407,914,l),
(248,914,l),
(123,755,l)
);
}
);
width = 595;
},
{
layerId = "7BCD794D-E026-4384-BE12-1D1749EC9686";
shapes = (
{
closed = 1;
nodes = (
(518,0,l),
(518,84,l),
(171,84,l),
(171,616,l),
(518,616,l),
(518,700,l),
(80,700,l),
(80,0,l)
);
},
{
closed = 1;
nodes = (
(497,310,l),
(497,391,l),
(126,391,l),
(126,310,l)
);
},
{
closed = 1;
nodes = (
(373,-182,l),
(373,-66,l),
(276,-66,l),
(276,-182,l)
);
},
{
closed = 1;
nodes = (
(232,772,l),
(342,884,l),
(291,884,l),
(402,772,l),
(489,772,l),
(364,910,l),
(271,910,l),
(145,772,l)
);
}
);
width = 570;
},
{
layerId = "88D78F5D-58B5-49C3-9C35-A3A5CAE2A296";
shapes = (
{
closed = 1;
nodes = (
(492,0,l),
(492,28,l),
(123,28,l),
(123,672,l),
(492,672,l),
(492,700,l),
(94,700,l),
(94,0,l)
);
},
{
closed = 1;
nodes = (
(471,336,l),
(471,364,l),
(112,364,l),
(112,336,l)
);
},
{
closed = 1;
nodes = (
(332,-156,l),
(332,-63,l),
(299,-63,l),
(299,-156,l)
);
},
{
closed = 1;
nodes = (
(200,788,l),
(317,894,l),
(299,894,l),
(416,788,l),
(450,788,l),
(324,907,l),
(293,907,l),
(166,788,l)
);
}
);
width = 547;
}
);
leftKerningGroup = E;
rightKerningGroup = E;
unicode = 7878;
},
{
color = 8;
glyphname = Ecircumflexgrave;
layers = (
{
layerId = "70CAE81F-A09E-4C14-9794-768AE0E0C4C3";
shapes = (
{
closed = 1;
nodes = (
(565,0,l),
(565,192,l),
(266,192,l),
(266,508,l),
(565,508,l),
(565,700,l),
(48,700,l),
(48,0,l)
);
},
{
closed = 1;
nodes = (
(544,265,l),
(544,440,l),
(149,440,l),
(149,265,l)
);
},
{
closed = 1;
nodes = (
(292,741,l),
(392,844,l),
(277,844,l),
(374,741,l),
(564,741,l),
(439,897,l),
(226,897,l),
(101,741,l)
);
},
{
closed = 1;
nodes = (
(431,936,l),
(347,1071,l),
(131,1071,l),
(238,936,l)
);
}
);
width = 604;
},
{
layerId = "E5E0E007-7D1B-446D-9E5D-3F173D74C5C6";
shapes = (
{
closed = 1;
nodes = (
(545,0,l),
(545,145,l),
(222,145,l),
(222,555,l),
(545,555,l),
(545,700,l),
(64,700,l),
(64,0,l)
);
},
{
closed = 1;
nodes = (
(524,283,l),
(524,421,l),
(140,421,l),
(140,283,l)
);
},
{
closed = 1;
nodes = (
(266,755,l),
(369,843,l),
(283,843,l),
(388,755,l),
(532,755,l),
(407,894,l),
(248,894,l),
(123,755,l)
);
},
{
closed = 1;
nodes = (
(399,939,l),
(313,1061,l),
(152,1061,l),
(253,939,l)
);
}
);
width = 595;
},
{
layerId = "7BCD794D-E026-4384-BE12-1D1749EC9686";
shapes = (
{
closed = 1;
nodes = (
(518,0,l),
(518,84,l),
(171,84,l),
(171,616,l),
(518,616,l),
(518,700,l),
(80,700,l),
(80,0,l)
);
},
{
closed = 1;
nodes = (
(497,310,l),
(497,391,l),
(126,391,l),
(126,310,l)
);
},
{
closed = 1;
nodes = (
(232,772,l),
(342,856,l),
(291,856,l),
(402,772,l),
(489,772,l),
(364,890,l),
(271,890,l),
(145,772,l)
);
},
{
closed = 1;
nodes = (
(360,933,l),
(274,1051,l),
(179,1051,l),
(274,933,l)
);
}
);
width = 570;
},
{
layerId = "88D78F5D-58B5-49C3-9C35-A3A5CAE2A296";
shapes = (
{
closed = 1;
nodes = (
(492,0,l),
(492,28,l),
(123,28,l),
(123,672,l),
(492,672,l),
(492,700,l),
(94,700,l),
(94,0,l)
);
},
{
closed = 1;
nodes = (
(471,336,l),
(471,364,l),
(112,364,l),
(112,336,l)
);
},
{
closed = 1;
nodes = (
(200,788,l),
(317,869,l),
(299,869,l),
(416,788,l),
(450,788,l),
(324,887,l),
(293,887,l),
(166,788,l)
);
},
{
closed = 1;
nodes = (
(324,927,l),
(238,1041,l),
(204,1041,l),
(293,927,l)
);
}
);
width = 547;
}
);
leftKerningGroup = E;
rightKerningGroup = E;
unicode = 7872;
},
{
color = 8;
glyphname = Ecircumflexhookabove;
layers = (
{
layerId = "70CAE81F-A09E-4C14-9794-768AE0E0C4C3";
shapes = (
{
closed = 1;
nodes = (
(565,0,l),
(565,192,l),
(266,192,l),
(266,508,l),
(565,508,l),
(565,700,l),
(48,700,l),
(48,0,l)
);
},
{
closed = 1;
nodes = (
(544,265,l),
(544,440,l),
(149,440,l),
(149,265,l)
);
},
{
closed = 1;
nodes = (
(291,741,l),
(388,844,l),
(273,844,l),
(373,741,l),
(564,741,l),
(439,897,l),
(226,897,l),
(101,741,l)
);
},
{
closed = 1;
nodes = (
(405,936,l),
(444,957,o),
(469,1008,o),
(469,1037,cs),
(469,1111,o),
(405,1153,o),
(318,1153,cs),
(276,1153,o),
(225,1143,o),
(191,1127,c),
(191,1014,l),
(215,1022,o),
(241,1029,o),
(267,1029,cs),
(292,1029,o),
(313,1023,o),
(313,1002,cs),
(313,989,o),
(303,969,o),
(262,936,c)
);
}
);
width = 604;
},
{
layerId = "E5E0E007-7D1B-446D-9E5D-3F173D74C5C6";
shapes = (
{
closed = 1;
nodes = (
(545,0,l),
(545,145,l),
(222,145,l),
(222,555,l),
(545,555,l),
(545,700,l),
(64,700,l),
(64,0,l)
);
},
{
closed = 1;
nodes = (
(524,283,l),
(524,421,l),
(140,421,l),
(140,283,l)
);
},
{
closed = 1;
nodes = (
(266,755,l),
(369,843,l),
(283,843,l),
(388,755,l),
(532,755,l),
(407,894,l),
(248,894,l),
(123,755,l)
);
},
{
closed = 1;
nodes = (
(384,939,l),
(424,957,o),
(443,989,o),
(443,1024,cs),
(443,1073,o),
(398,1110,o),
(319,1110,cs),
(284,1110,o),
(239,1102,o),
(209,1088,c),
(209,1004,l),
(230,1011,o),
(259,1015,o),
(280,1015,cs),
(303,1015,o),
(314,1007,o),
(314,994,cs),
(314,980,o),
(306,965,o),
(270,939,c)
);
}
);
width = 595;
},
{
layerId = "7BCD794D-E026-4384-BE12-1D1749EC9686";
shapes = (
{
closed = 1;
nodes = (
(518,0,l),
(518,84,l),
(171,84,l),
(171,616,l),
(518,616,l),
(518,700,l),
(80,700,l),
(80,0,l)
);
},
{
closed = 1;
nodes = (
(497,310,l),
(497,391,l),
(126,391,l),
(126,310,l)
);
},
{
closed = 1;
nodes = (
(232,772,l),
(342,856,l),
(291,856,l),
(402,772,l),
(489,772,l),
(364,890,l),
(271,890,l),
(145,772,l)
);
},
{
closed = 1;
nodes = (
(354,932,l),
(388,953,o),
(404,978,o),
(404,1008,cs),
(404,1051,o),
(367,1082,o),
(305,1082,cs),
(276,1082,o),
(240,1074,o),
(214,1058,c),
(214,1006,l),
(236,1018,o),
(266,1023,o),
(287,1023,cs),
(314,1023,o),
(328,1011,o),
(328,993,cs),
(328,974,o),
(315,958,o),
(282,932,c)
);
}
);
width = 570;
},
{
layerId = "88D78F5D-58B5-49C3-9C35-A3A5CAE2A296";
shapes = (
{
closed = 1;
nodes = (
(492,0,l),
(492,28,l),
(123,28,l),
(123,672,l),
(492,672,l),
(492,700,l),
(94,700,l),
(94,0,l)
);
},
{
closed = 1;
nodes = (
(471,336,l),
(471,364,l),
(112,364,l),
(112,336,l)
);
},
{
closed = 1;
nodes = (
(200,788,l),
(317,869,l),
(299,869,l),
(416,788,l),
(450,788,l),
(324,887,l),
(293,887,l),
(166,788,l)
);
},
{
closed = 1;
nodes = (
(327,926,l),
(354,950,o),
(368,967,o),
(368,993,cs),
(368,1030,o),
(339,1055,o),
(293,1055,cs),
(269,1055,o),
(242,1048,o),
(218,1031,c),
(218,1008,l),
(242,1024,o),
(272,1031,o),
(293,1031,cs),
(325,1031,o),
(341,1015,o),
(341,992,cs),
(341,969,o),
(324,952,o),
(294,926,c)
);
}
);
width = 547;
}
);
leftKerningGroup = E;
rightKerningGroup = E;
unicode = 7874;
},
{
color = 8;
glyphname = Ecircumflextilde;
layers = (
{
layerId = "70CAE81F-A09E-4C14-9794-768AE0E0C4C3";
shapes = (
{
closed = 1;
nodes = (
(565,0,l),
(565,192,l),
(266,192,l),
(266,508,l),
(565,508,l),
(565,700,l),
(48,700,l),
(48,0,l)
);
},
{
closed = 1;
nodes = (
(544,265,l),
(544,440,l),
(149,440,l),
(149,265,l)
);
},
{
closed = 1;
nodes = (
(500,926,o),
(542,1001,o),
(542,1089,c),
(413,1089,l),
(412,1068,o),
(409,1057,o),
(395,1057,cs),
(378,1057,o),
(317,1099,o),
(257,1099,cs),
(165,1099,o),
(128,1023,o),
(127,936,c),
(250,936,l),
(251,959,o),
(256,969,o),
(271,969,cs),
(290,969,o),
(342,926,o),
(408,926,cs)
);
},
{
closed = 1;
nodes = (
(291,741,l),
(388,838,l),
(273,838,l),
(373,741,l),
(564,741,l),
(439,891,l),
(226,891,l),
(101,741,l)
);
}
);
width = 604;
},
{
layerId = "E5E0E007-7D1B-446D-9E5D-3F173D74C5C6";
shapes = (
{
closed = 1;
nodes = (
(545,0,l),
(545,145,l),
(222,145,l),
(222,555,l),
(545,555,l),
(545,700,l),
(64,700,l),
(64,0,l)
);
},
{
closed = 1;
nodes = (
(524,283,l),
(524,421,l),
(140,421,l),
(140,283,l)
);
},
{
closed = 1;
nodes = (
(470,933,o),
(507,995,o),
(507,1073,c),
(410,1073,l),
(409,1047,o),
(402,1032,o),
(385,1032,cs),
(359,1032,o),
(321,1085,o),
(261,1085,cs),
(185,1085,o),
(151,1023,o),
(150,946,c),
(243,946,l),
(244,974,o),
(253,987,o),
(271,987,cs),
(298,987,o),
(330,933,o),
(394,933,cs)
);
},
{
closed = 1;
nodes = (
(266,755,l),
(369,843,l),
(283,843,l),
(388,755,l),
(532,755,l),
(407,894,l),
(248,894,l),
(123,755,l)
);
}
);
width = 595;
},
{
layerId = "7BCD794D-E026-4384-BE12-1D1749EC9686";
shapes = (
{
closed = 1;
nodes = (
(518,0,l),
(518,84,l),
(171,84,l),
(171,616,l),
(518,616,l),
(518,700,l),
(80,700,l),
(80,0,l)
);
},
{
closed = 1;
nodes = (
(497,310,l),
(497,391,l),
(126,391,l),
(126,310,l)
);
},
{
closed = 1;
nodes = (
(438,937,o),
(470,982,o),
(470,1048,c),
(411,1048,l),
(410,1016,o),
(399,997,o),
(377,997,cs),
(341,997,o),
(314,1063,o),
(254,1063,cs),
(197,1063,o),
(166,1016,o),
(165,953,c),
(222,953,l),
(223,986,o),
(237,1004,o),
(259,1004,cs),
(295,1004,o),
(320,937,o),
(382,937,cs)
);
},
{
closed = 1;
nodes = (
(232,772,l),
(342,862,l),
(291,862,l),
(402,772,l),
(489,772,l),
(364,896,l),
(271,896,l),
(145,772,l)
);
}
);
width = 570;
},
{
layerId = "88D78F5D-58B5-49C3-9C35-A3A5CAE2A296";
shapes = (
{
closed = 1;
nodes = (
(492,0,l),
(492,28,l),
(123,28,l),
(123,672,l),
(492,672,l),
(492,700,l),
(94,700,l),
(94,0,l)
);
},
{
closed = 1;
nodes = (
(471,336,l),
(471,364,l),
(112,364,l),
(112,336,l)
);
},
{
closed = 1;
nodes = (
(409,940,o),
(435,970,o),
(435,1025,c),
(413,1025,l),
(412,987,o),
(396,964,o),
(370,964,cs),
(324,964,o),
(307,1042,o),
(247,1042,cs),
(208,1042,o),
(180,1010,o),
(180,959,c),
(202,959,l),
(203,998,o),
(222,1019,o),
(248,1019,cs),
(292,1019,o),
(311,940,o),
(371,940,cs)
);
},
{
closed = 1;
nodes = (
(200,788,l),
(317,879,l),
(299,879,l),
(416,788,l),
(450,788,l),
(324,897,l),
(293,897,l),
(166,788,l)
);
}
);
width = 547;
}
);
leftKerningGroup = E;
rightKerningGroup = E;
unicode = 7876;
},
{
glyphname = Edieresis;
layers = (
{
layerId = "70CAE81F-A09E-4C14-9794-768AE0E0C4C3";
shapes = (
{
closed = 1;
nodes = (
(565,0,l),
(565,192,l),
(266,192,l),
(266,508,l),
(565,508,l),
(565,700,l),
(48,700,l),
(48,0,l)
);
},
{
closed = 1;
nodes = (
(544,265,l),
(544,440,l),
(149,440,l),
(149,265,l)
);
},
{
closed = 1;
nodes = (
(549,741,l),
(549,902,l),
(349,902,l),
(349,741,l)
);
},
{
closed = 1;
nodes = (
(313,741,l),
(313,902,l),
(119,902,l),
(119,741,l)
);
}
);
width = 604;
},
{
layerId = "E5E0E007-7D1B-446D-9E5D-3F173D74C5C6";
shapes = (
{
closed = 1;
nodes = (
(545,0,l),
(545,145,l),
(222,145,l),
(222,555,l),
(545,555,l),
(545,700,l),
(64,700,l),
(64,0,l)
);
},
{
closed = 1;
nodes = (
(524,283,l),
(524,421,l),
(140,421,l),
(140,283,l)
);
},
{
closed = 1;
nodes = (
(509,778,l),
(509,914,l),
(361,914,l),
(361,778,l)
);
},
{
closed = 1;
nodes = (
(292,778,l),
(292,914,l),
(144,914,l),
(144,778,l)
);
}
);
width = 595;
},
{
layerId = "7BCD794D-E026-4384-BE12-1D1749EC9686";
shapes = (
{
closed = 1;
nodes = (
(518,0,l),
(518,84,l),
(171,84,l),
(171,616,l),
(518,616,l),
(518,700,l),
(80,700,l),
(80,0,l)
);
},
{
closed = 1;
nodes = (
(497,310,l),
(497,391,l),
(126,391,l),
(126,310,l)
);
},
{
closed = 1;
nodes = (
(461,795,l),
(461,901,l),
(375,901,l),
(375,795,l)
);
},
{
closed = 1;
nodes = (
(259,795,l),
(259,901,l),
(173,901,l),
(173,795,l)
);
}
);
width = 570;
},
{
layerId = "88D78F5D-58B5-49C3-9C35-A3A5CAE2A296";
shapes = (
{
closed = 1;
nodes = (
(492,0,l),
(492,28,l),
(123,28,l),
(123,672,l),
(492,672,l),
(492,700,l),
(94,700,l),
(94,0,l)
);
},
{
closed = 1;
nodes = (
(471,336,l),
(471,364,l),
(112,364,l),
(112,336,l)
);
},
{
closed = 1;
nodes = (
(416,811,l),
(416,888,l),
(388,888,l),
(388,811,l)
);
},
{
closed = 1;
nodes = (
(228,811,l),
(228,888,l),
(200,888,l),
(200,811,l)
);
}
);
width = 547;
}
);
leftKerningGroup = E;
rightKerningGroup = E;
unicode = 203;
},
{
glyphname = Edotaccent;
layers = (
{
layerId = "70CAE81F-A09E-4C14-9794-768AE0E0C4C3";
shapes = (
{
closed = 1;
nodes = (
(565,0,l),
(565,192,l),
(266,192,l),
(266,508,l),
(565,508,l),
(565,700,l),
(48,700,l),
(48,0,l)
);
},
{
closed = 1;
nodes = (
(544,265,l),
(544,440,l),
(149,440,l),
(149,265,l)
);
},
{
closed = 1;
nodes = (
(444,741,l),
(444,901,l),
(220,901,l),
(220,741,l)
);
}
);
width = 604;
},
{
layerId = "E5E0E007-7D1B-446D-9E5D-3F173D74C5C6";
shapes = (
{
closed = 1;
nodes = (
(545,0,l),
(545,145,l),
(222,145,l),
(222,555,l),
(545,555,l),
(545,700,l),
(64,700,l),
(64,0,l)
);
},
{
closed = 1;
nodes = (
(524,283,l),
(524,421,l),
(140,421,l),
(140,283,l)
);
},
{
closed = 1;
nodes = (
(410,777,l),
(410,914,l),
(244,914,l),
(244,777,l)
);
}
);
width = 595;
},
{
layerId = "7BCD794D-E026-4384-BE12-1D1749EC9686";
shapes = (
{
closed = 1;
nodes = (
(518,0,l),
(518,84,l),
(171,84,l),
(171,616,l),
(518,616,l),
(518,700,l),
(80,700,l),
(80,0,l)
);
},
{
closed = 1;
nodes = (
(497,310,l),
(497,391,l),
(126,391,l),
(126,310,l)
);
},
{
closed = 1;
nodes = (
(365,793,l),
(365,902,l),
(269,902,l),
(269,793,l)
);
}
);
width = 570;
},
{
layerId = "88D78F5D-58B5-49C3-9C35-A3A5CAE2A296";
shapes = (
{
closed = 1;
nodes = (
(492,0,l),
(492,28,l),
(123,28,l),
(123,672,l),
(492,672,l),
(492,700,l),
(94,700,l),
(94,0,l)
);
},
{
closed = 1;
nodes = (
(471,336,l),
(471,364,l),
(112,364,l),
(112,336,l)
);
},
{
closed = 1;
nodes = (
(323,807,l),
(323,891,l),
(293,891,l),
(293,807,l)
);
}
);
width = 547;
}
);
leftKerningGroup = E;
rightKerningGroup = E;
unicode = 278;
},
{
color = 8;
glyphname = Edotbelow;
layers = (
{
layerId = "70CAE81F-A09E-4C14-9794-768AE0E0C4C3";
shapes = (
{
closed = 1;
nodes = (
(565,0,l),
(565,192,l),
(266,192,l),
(266,508,l),
(565,508,l),
(565,700,l),
(48,700,l),
(48,0,l)
);
},
{
closed = 1;
nodes = (
(544,265,l),
(544,440,l),
(149,440,l),
(149,265,l)
);
},
{
closed = 1;
nodes = (
(453,-210,l),
(453,-49,l),
(229,-49,l),
(229,-210,l)
);
}
);
width = 604;
},
{
layerId = "E5E0E007-7D1B-446D-9E5D-3F173D74C5C6";
shapes = (
{
closed = 1;
nodes = (
(545,0,l),
(545,145,l),
(222,145,l),
(222,555,l),
(545,555,l),
(545,700,l),
(64,700,l),
(64,0,l)
);
},
{
closed = 1;
nodes = (
(524,283,l),
(524,421,l),
(140,421,l),
(140,283,l)
);
},
{
closed = 1;
nodes = (
(418,-210,l),
(418,-70,l),
(252,-70,l),
(252,-210,l)
);
}
);
width = 595;
},
{
layerId = "7BCD794D-E026-4384-BE12-1D1749EC9686";
shapes = (
{
closed = 1;
nodes = (
(518,0,l),
(518,84,l),
(171,84,l),
(171,616,l),
(518,616,l),
(518,700,l),
(80,700,l),
(80,0,l)
);
},
{
closed = 1;
nodes = (
(497,310,l),
(497,391,l),
(126,391,l),
(126,310,l)
);
},
{
closed = 1;
nodes = (
(373,-182,l),
(373,-66,l),
(276,-66,l),
(276,-182,l)
);
}
);
width = 570;
},
{
layerId = "88D78F5D-58B5-49C3-9C35-A3A5CAE2A296";
shapes = (
{
closed = 1;
nodes = (
(492,0,l),
(492,28,l),
(123,28,l),
(123,672,l),
(492,672,l),
(492,700,l),
(94,700,l),
(94,0,l)
);
},
{
closed = 1;
nodes = (
(471,336,l),
(471,364,l),
(112,364,l),
(112,336,l)
);
},
{
closed = 1;
nodes = (
(332,-156,l),
(332,-63,l),
(299,-63,l),
(299,-156,l)
);
}
);
width = 547;
}
);
leftKerningGroup = E;
rightKerningGroup = E;
unicode = 7864;
},
{
glyphname = Egrave;
layers = (
{
layerId = "70CAE81F-A09E-4C14-9794-768AE0E0C4C3";
shapes = (
{
closed = 1;
nodes = (
(565,0,l),
(565,192,l),
(266,192,l),
(266,508,l),
(565,508,l),
(565,700,l),
(48,700,l),
(48,0,l)
);
},
{
closed = 1;
nodes = (
(544,265,l),
(544,440,l),
(149,440,l),
(149,265,l)
);
},
{
closed = 1;
nodes = (
(435,741,l),
(351,917,l),
(116,917,l),
(229,741,l)
);
}
);
width = 604;
},
{
layerId = "E5E0E007-7D1B-446D-9E5D-3F173D74C5C6";
shapes = (
{
closed = 1;
nodes = (
(545,0,l),
(545,145,l),
(222,145,l),
(222,555,l),
(545,555,l),
(545,700,l),
(64,700,l),
(64,0,l)
);
},
{
closed = 1;
nodes = (
(524,283,l),
(524,421,l),
(140,421,l),
(140,283,l)
);
},
{
closed = 1;
nodes = (
(404,755,l),
(319,914,l),
(143,914,l),
(250,755,l)
);
}
);
width = 595;
},
{
layerId = "7BCD794D-E026-4384-BE12-1D1749EC9686";
shapes = (
{
closed = 1;
nodes = (
(518,0,l),
(518,84,l),
(171,84,l),
(171,616,l),
(518,616,l),
(518,700,l),
(80,700,l),
(80,0,l)
);
},
{
closed = 1;
nodes = (
(497,310,l),
(497,391,l),
(126,391,l),
(126,310,l)
);
},
{
closed = 1;
nodes = (
(362,772,l),
(276,910,l),
(171,910,l),
(272,772,l)
);
}
);
width = 570;
},
{
layerId = "88D78F5D-58B5-49C3-9C35-A3A5CAE2A296";
shapes = (
{
closed = 1;
nodes = (
(492,0,l),
(492,28,l),
(123,28,l),
(123,672,l),
(492,672,l),
(492,700,l),
(94,700,l),
(94,0,l)
);
},
{
closed = 1;
nodes = (
(471,336,l),
(471,364,l),
(112,364,l),
(112,336,l)
);
},
{
closed = 1;
nodes = (
(324,788,l),
(237,907,l),
(198,907,l),
(292,788,l)
);
}
);
width = 547;
}
);
leftKerningGroup = E;
rightKerningGroup = E;
unicode = 200;
},
{
color = 8;
glyphname = Ehookabove;
layers = (
{
layerId = "70CAE81F-A09E-4C14-9794-768AE0E0C4C3";
shapes = (
{
closed = 1;
nodes = (
(565,0,l),
(565,192,l),
(266,192,l),
(266,508,l),
(565,508,l),
(565,700,l),
(48,700,l),
(48,0,l)
);
},
{
closed = 1;
nodes = (
(544,265,l),
(544,440,l),
(149,440,l),
(149,265,l)
);
},
{
closed = 1;
nodes = (
(411,741,l),
(452,772,o),
(475,823,o),
(475,852,cs),
(475,926,o),
(411,968,o),
(314,968,cs),
(272,968,o),
(221,958,o),
(187,942,c),
(187,829,l),
(211,837,o),
(237,844,o),
(263,844,cs),
(288,844,o),
(309,838,o),
(309,817,cs),
(309,804,o),
(303,784,o),
(258,741,c)
);
}
);
width = 604;
},
{
layerId = "E5E0E007-7D1B-446D-9E5D-3F173D74C5C6";
shapes = (
{
closed = 1;
nodes = (
(545,0,l),
(545,145,l),
(222,145,l),
(222,555,l),
(545,555,l),
(545,700,l),
(64,700,l),
(64,0,l)
);
},
{
closed = 1;
nodes = (
(524,283,l),
(524,421,l),
(140,421,l),
(140,283,l)
);
},
{
closed = 1;
nodes = (
(393,755,l),
(426,785,o),
(447,830,o),
(447,871,cs),
(447,931,o),
(398,971,o),
(323,971,cs),
(285,971,o),
(235,962,o),
(203,947,c),
(203,849,l),
(226,857,o),
(253,863,o),
(276,863,cs),
(295,863,o),
(317,859,o),
(317,835,cs),
(317,818,o),
(308,794,o),
(269,755,c)
);
}
);
width = 595;
},
{
layerId = "7BCD794D-E026-4384-BE12-1D1749EC9686";
shapes = (
{
closed = 1;
nodes = (
(518,0,l),
(518,84,l),
(171,84,l),
(171,616,l),
(518,616,l),
(518,700,l),
(80,700,l),
(80,0,l)
);
},
{
closed = 1;
nodes = (
(497,310,l),
(497,391,l),
(126,391,l),
(126,310,l)
);
},
{
closed = 1;
nodes = (
(359,772,l),
(389,799,o),
(406,832,o),
(406,865,cs),
(406,915,o),
(367,948,o),
(307,948,cs),
(276,948,o),
(237,940,o),
(210,924,c),
(210,865,l),
(233,877,o),
(261,884,o),
(283,884,cs),
(309,884,o),
(330,871,o),
(330,847,cs),
(330,827,o),
(317,804,o),
(282,772,c)
);
}
);
width = 570;
},
{
layerId = "88D78F5D-58B5-49C3-9C35-A3A5CAE2A296";
shapes = (
{
closed = 1;
nodes = (
(492,0,l),
(492,28,l),
(123,28,l),
(123,672,l),
(492,672,l),
(492,700,l),
(94,700,l),
(94,0,l)
);
},
{
closed = 1;
nodes = (
(471,336,l),
(471,364,l),
(112,364,l),
(112,336,l)
);
},
{
closed = 1;
nodes = (
(328,788,l),
(355,812,o),
(369,834,o),
(369,860,cs),
(369,900,o),
(338,927,o),
(292,927,cs),
(268,927,o),
(240,920,o),
(216,903,c),
(216,880,l),
(240,896,o),
(268,903,o),
(289,903,cs),
(323,903,o),
(342,883,o),
(342,859,cs),
(342,836,o),
(325,814,o),
(295,788,c)
);
}
);
width = 547;
}
);
leftKerningGroup = E;
rightKerningGroup = E;
unicode = 7866;
},
{
glyphname = Emacron;
layers = (
{
layerId = "70CAE81F-A09E-4C14-9794-768AE0E0C4C3";
shapes = (
{
closed = 1;
nodes = (
(565,0,l),
(565,192,l),
(266,192,l),
(266,508,l),
(565,508,l),
(565,700,l),
(48,700,l),
(48,0,l)
);
},
{
closed = 1;
nodes = (
(544,265,l),
(544,440,l),
(149,440,l),
(149,265,l)
);
},
{
closed = 1;
nodes = (
(501,746,l),
(501,897,l),
(164,897,l),
(164,746,l)
);
}
);
width = 604;
},
{
layerId = "E5E0E007-7D1B-446D-9E5D-3F173D74C5C6";
shapes = (
{
closed = 1;
nodes = (
(545,0,l),
(545,145,l),
(222,145,l),
(222,555,l),
(545,555,l),
(545,700,l),
(64,700,l),
(64,0,l)
);
},
{
closed = 1;
nodes = (
(524,283,l),
(524,421,l),
(140,421,l),
(140,283,l)
);
},
{
closed = 1;
nodes = (
(487,771,l),
(487,884,l),
(168,884,l),
(168,771,l)
);
}
);
width = 595;
},
{
layerId = "7BCD794D-E026-4384-BE12-1D1749EC9686";
shapes = (
{
closed = 1;
nodes = (
(518,0,l),
(518,84,l),
(171,84,l),
(171,616,l),
(518,616,l),
(518,700,l),
(80,700,l),
(80,0,l)
);
},
{
closed = 1;
nodes = (
(497,310,l),
(497,391,l),
(126,391,l),
(126,310,l)
);
},
{
closed = 1;
nodes = (
(466,789,l),
(466,856,l),
(168,856,l),
(168,789,l)
);
}
);
width = 570;
},
{
layerId = "88D78F5D-58B5-49C3-9C35-A3A5CAE2A296";
shapes = (
{
closed = 1;
nodes = (
(492,0,l),
(492,28,l),
(123,28,l),
(123,672,l),
(492,672,l),
(492,700,l),
(94,700,l),
(94,0,l)
);
},
{
closed = 1;
nodes = (
(471,336,l),
(471,364,l),
(112,364,l),
(112,336,l)
);
},
{
closed = 1;
nodes = (
(447,805,l),
(447,830,l),
(169,830,l),
(169,805,l)
);
}
);
width = 547;
}
);
leftKerningGroup = E;
rightKerningGroup = E;
unicode = 274;
},
{
glyphname = Eogonek;
layers = (
{
layerId = "70CAE81F-A09E-4C14-9794-768AE0E0C4C3";
shapes = (
{
closed = 1;
nodes = (
(565,0,l),
(565,192,l),
(266,192,l),
(266,508,l),
(565,508,l),
(565,700,l),
(48,700,l),
(48,0,l)
);
},
{
closed = 1;
nodes = (
(544,265,l),
(544,440,l),
(149,440,l),
(149,265,l)
);
},
{
closed = 1;
nodes = (
(565,-215,l),
(565,-81,l),
(548,-81,ls),
(536,-81,o),
(530,-75,o),
(530,-68,cs),
(530,-62,o),
(532,-57,o),
(539,-45,cs),
(565,0,l),
(477,84,l),
(403,1,ls),
(376,-30,o),
(354,-65,o),
(354,-100,cs),
(354,-170,o),
(405,-215,o),
(484,-215,cs)
);
}
);
width = 604;
},
{
layerId = "E5E0E007-7D1B-446D-9E5D-3F173D74C5C6";
shapes = (
{
closed = 1;
nodes = (
(545,0,l),
(545,145,l),
(222,145,l),
(222,555,l),
(545,555,l),
(545,700,l),
(64,700,l),
(64,0,l)
);
},
{
closed = 1;
nodes = (
(524,283,l),
(524,421,l),
(140,421,l),
(140,283,l)
);
},
{
closed = 1;
nodes = (
(545,-200,l),
(545,-99,l),
(527,-99,ls),
(507,-99,o),
(502,-87,o),
(502,-77,cs),
(502,-67,o),
(508,-56,o),
(513,-49,cs),
(545,0,l),
(477,72,l),
(433,23,ls),
(386,-29,o),
(371,-59,o),
(371,-100,cs),
(371,-160,o),
(413,-200,o),
(481,-200,cs)
);
}
);
width = 595;
},
{
layerId = "7BCD794D-E026-4384-BE12-1D1749EC9686";
shapes = (
{
closed = 1;
nodes = (
(518,0,l),
(518,84,l),
(171,84,l),
(171,616,l),
(518,616,l),
(518,700,l),
(80,700,l),
(80,0,l)
);
},
{
closed = 1;
nodes = (
(497,310,l),
(497,391,l),
(126,391,l),
(126,310,l)
);
},
{
closed = 1;
nodes = (
(515,-200,l),
(515,-138,l),
(487,-138,ls),
(463,-138,o),
(455,-123,o),
(455,-109,cs),
(455,-95,o),
(462,-81,o),
(470,-69,cs),
(518,0,l),
(475,42,l),
(422,-26,l),
(390,-64,o),
(377,-89,o),
(377,-121,cs),
(377,-166,o),
(408,-200,o),
(463,-200,cs)
);
}
);
width = 570;
},
{
layerId = "88D78F5D-58B5-49C3-9C35-A3A5CAE2A296";
shapes = (
{
closed = 1;
nodes = (
(492,0,l),
(492,28,l),
(123,28,l),
(123,672,l),
(492,672,l),
(492,700,l),
(94,700,l),
(94,0,l)
);
},
{
closed = 1;
nodes = (
(471,336,l),
(471,364,l),
(112,364,l),
(112,336,l)
);
},
{
closed = 1;
nodes = (
(486,-200,l),
(486,-175,l),
(448,-175,ls),
(422,-175,o),
(410,-157,o),
(410,-138,cs),
(410,-121,o),
(419,-104,o),
(430,-87,c),
(492,0,l),
(473,14,l),
(411,-72,ls),
(393,-96,o),
(382,-117,o),
(382,-140,cs),
(382,-172,o),
(402,-200,o),
(445,-200,cs)
);
}
);
width = 547;
}
);
leftKerningGroup = E;
rightKerningGroup = E;
unicode = 280;
},
{
color = 8;
glyphname = Etilde;
layers = (
{
layerId = "70CAE81F-A09E-4C14-9794-768AE0E0C4C3";
shapes = (
{
closed = 1;
nodes = (
(565,0,l),
(565,192,l),
(266,192,l),
(266,508,l),
(565,508,l),
(565,700,l),
(48,700,l),
(48,0,l)
);
},
{
closed = 1;
nodes = (
(544,265,l),
(544,440,l),
(149,440,l),
(149,265,l)
);
},
{
closed = 1;
nodes = (
(497,732,o),
(547,804,o),
(547,918,c),
(408,918,l),
(408,889,o),
(403,881,o),
(394,881,cs),
(368,881,o),
(324,947,o),
(254,947,cs),
(166,947,o),
(119,882,o),
(120,762,c),
(258,762,l),
(259,793,o),
(262,801,o),
(271,801,cs),
(291,801,o),
(333,732,o),
(407,732,cs)
);
}
);
width = 604;
},
{
layerId = "E5E0E007-7D1B-446D-9E5D-3F173D74C5C6";
shapes = (
{
closed = 1;
nodes = (
(545,0,l),
(545,145,l),
(222,145,l),
(222,555,l),
(545,555,l),
(545,700,l),
(64,700,l),
(64,0,l)
);
},
{
closed = 1;
nodes = (
(524,283,l),
(524,421,l),
(140,421,l),
(140,283,l)
);
},
{
closed = 1;
nodes = (
(477,738,o),
(520,794,o),
(520,891,c),
(416,891,l),
(416,873,o),
(415,853,o),
(398,853,cs),
(373,853,o),
(318,919,o),
(251,919,cs),
(177,919,o),
(136,863,o),
(136,767,c),
(240,767,l),
(240,787,o),
(241,806,o),
(256,806,cs),
(279,806,o),
(330,738,o),
(401,738,cs)
);
}
);
width = 595;
},
{
layerId = "7BCD794D-E026-4384-BE12-1D1749EC9686";
shapes = (
{
closed = 1;
nodes = (
(518,0,l),
(518,84,l),
(171,84,l),
(171,616,l),
(518,616,l),
(518,700,l),
(80,700,l),
(80,0,l)
);
},
{
closed = 1;
nodes = (
(497,310,l),
(497,391,l),
(126,391,l),
(126,310,l)
);
},
{
closed = 1;
nodes = (
(449,765,o),
(484,810,o),
(483,885,c),
(419,885,l),
(420,855,o),
(411,833,o),
(388,833,cs),
(350,833,o),
(307,911,o),
(244,911,cs),
(186,911,o),
(153,868,o),
(152,794,c),
(216,794,l),
(217,824,o),
(225,845,o),
(245,845,cs),
(280,845,o),
(322,765,o),
(389,765,cs)
);
}
);
width = 570;
},
{
layerId = "88D78F5D-58B5-49C3-9C35-A3A5CAE2A296";
shapes = (
{
closed = 1;
nodes = (
(492,0,l),
(492,28,l),
(123,28,l),
(123,672,l),
(492,672,l),
(492,700,l),
(94,700,l),
(94,0,l)
);
},
{
closed = 1;
nodes = (
(471,336,l),
(471,364,l),
(112,364,l),
(112,336,l)
);
},
{
closed = 1;
nodes = (
(423,791,o),
(450,825,o),
(449,880,c),
(423,880,l),
(424,839,o),
(408,815,o),
(379,815,cs),
(328,815,o),
(297,904,o),
(237,904,cs),
(195,904,o),
(169,872,o),
(167,819,c),
(193,819,l),
(195,858,o),
(210,881,o),
(235,881,cs),
(281,881,o),
(315,791,o),
(379,791,cs)
);
}
);
width = 547;
}
);
leftKerningGroup = E;
rightKerningGroup = E;
unicode = 7868;
},
{
glyphname = F;
layers = (
{
layerId = "70CAE81F-A09E-4C14-9794-768AE0E0C4C3";
shapes = (
{
closed = 1;
nodes = (
(266,0,l),
(266,505,l),
(554,505,l),
(554,700,l),
(50,700,l),
(50,0,l)
);
},
{
closed = 1;
nodes = (
(527,212,l),
(527,407,l),
(160,407,l),
(160,212,l)
);
}
);
width = 577;
},
{
layerId = "E5E0E007-7D1B-446D-9E5D-3F173D74C5C6";
shapes = (
{
closed = 1;
nodes = (
(228,0,l),
(228,555,l),
(540,555,l),
(540,700,l),
(68,700,l),
(68,0,l)
);
},
{
closed = 1;
nodes = (
(515,251,l),
(515,394,l),
(150,394,l),
(150,251,l)
);
}
);
width = 570;
},
{
layerId = "7BCD794D-E026-4384-BE12-1D1749EC9686";
shapes = (
{
closed = 1;
nodes = (
(175,0,l),
(175,616,l),
(516,616,l),
(516,700,l),
(83,700,l),
(83,0,l)
);
},
{
closed = 1;
nodes = (
(493,287,l),
(493,370,l),
(131,370,l),
(131,287,l)
);
}
);
width = 548;
},
{
layerId = "88D78F5D-58B5-49C3-9C35-A3A5CAE2A296";
shapes = (
{
closed = 1;
nodes = (
(126,0,l),
(126,672,l),
(493,672,l),
(493,700,l),
(97,700,l),
(97,0,l)
);
},
{
closed = 1;
nodes = (
(473,320,l),
(473,348,l),
(113,348,l),
(113,320,l)
);
}
);
width = 528;
}
);
unicode = 70;
},
{
glyphname = G;
layers = (
{
anchors = (
{
name = bottom;
position = "{368, 0}";
},
{
name = top;
position = "{394, 700}";
}
);
hints = (
{
horizontal = 1;
origin = (0,30);
target = (0,9);
type = Stem;
},
{
horizontal = 1;
origin = (0,5);
target = (0,3);
type = Stem;
},
{
horizontal = 1;
origin = (0,16);
target = (0,23);
type = Stem;
},
{
origin = (0,27);
target = (0,13);
type = Stem;
},
{
origin = (0,6);
target = (0,2);
type = Stem;
}
);
layerId = "70CAE81F-A09E-4C14-9794-768AE0E0C4C3";
shapes = (
{
closed = 1;
nodes = (
(624,-15,o),
(761,141,o),
(728,407,c),
(392,407,l),
(392,242,l),
(605,242,l),
(512,296,l),
(536,220,o),
(477,181,o),
(399,181,cs),
(310,181,o),
(245,248,o),
(245,349,cs),
(245,350,ls),
(245,443,o),
(308,510,o),
(406,510,cs),
(459,510,o),
(508,490,o),
(547,438,c),
(695,583,l),
(622,665,o),
(528,715,o),
(397,715,cs),
(178,715,o),
(23,565,o),
(23,350,cs),
(23,349,ls),
(23,135,o),
(176,-15,o),
(394,-15,cs)
);
}
);
width = 755;
},
{
anchors = (
{
name = bottom;
position = "{377, 0}";
},
{
name = top;
position = "{395, 700}";
}
);
hints = (
{
horizontal = 1;
origin = (0,30);
target = (0,9);
type = Stem;
},
{
horizontal = 1;
origin = (0,5);
target = (0,3);
type = Stem;
},
{
horizontal = 1;
origin = (0,16);
target = (0,23);
type = Stem;
},
{
origin = (0,27);
target = (0,13);
type = Stem;
},
{
origin = (0,6);
target = (0,2);
type = Stem;
}
);
layerId = "E5E0E007-7D1B-446D-9E5D-3F173D74C5C6";
shapes = (
{
closed = 1;
nodes = (
(618,-15,o),
(750,146,o),
(718,396,c),
(412,396,l),
(412,266,l),
(628,266,l),
(559,308,l),
(579,208,o),
(506,135,o),
(400,135,cs),
(283,135,o),
(199,222,o),
(199,346,cs),
(199,353,ls),
(199,476,o),
(283,563,o),
(404,563,cs),
(463,563,o),
(514,542,o),
(555,493,c),
(667,604,l),
(600,673,o),
(513,715,o),
(401,715,cs),
(186,715,o),
(35,566,o),
(35,353,cs),
(35,346,ls),
(35,134,o),
(184,-15,o),
(396,-15,cs)
);
}
);
width = 748;
},
{
anchors = (
{
name = bottom;
position = "{385, 0}";
},
{
name = top;
position = "{394, 700}";
}
);
layerId = "7BCD794D-E026-4384-BE12-1D1749EC9686";
shapes = (
{
closed = 1;
nodes = (
(605,-15,o),
(729,149,o),
(705,371,c),
(434,371,l),
(434,294,l),
(653,294,l),
(613,322,l),
(629,185,o),
(539,72,o),
(398,72,cs),
(248,72,o),
(142,184,o),
(142,342,cs),
(142,357,ls),
(142,515,o),
(250,627,o),
(404,627,cs),
(465,627,o),
(522,607,o),
(567,564,c),
(631,629,l),
(570,684,o),
(493,715,o),
(403,715,cs),
(194,715,o),
(47,568,o),
(47,357,cs),
(47,342,ls),
(47,132,o),
(191,-15,o),
(397,-15,cs)
);
}
);
width = 740;
},
{
anchors = (
{
name = bottom;
position = "{393, 0}";
},
{
name = top;
position = "{393, 700}";
}
);
layerId = "88D78F5D-58B5-49C3-9C35-A3A5CAE2A296";
shapes = (
{
closed = 1;
nodes = (
(593,-15,o),
(710,151,o),
(693,348,c),
(454,348,l),
(454,321,l),
(677,321,l),
(664,335,l),
(675,164,o),
(569,14,o),
(397,14,cs),
(216,14,o),
(88,148,o),
(88,339,cs),
(88,360,ls),
(88,552,o),
(219,686,o),
(404,686,cs),
(467,686,o),
(529,668,o),
(579,630,c),
(597,653,l),
(542,694,o),
(474,715,o),
(405,715,cs),
(201,715,o),
(58,569,o),
(58,360,cs),
(58,339,ls),
(58,131,o),
(198,-15,o),
(397,-15,cs)
);
}
);
width = 732;
}
);
leftKerningGroup = O;
rightKerningGroup = G;
unicode = 71;
},
{
glyphname = Gbreve;
layers = (
{
layerId = "70CAE81F-A09E-4C14-9794-768AE0E0C4C3";
shapes = (
{
closed = 1;
nodes = (
(624,-15,o),
(761,141,o),
(728,407,c),
(392,407,l),
(392,242,l),
(605,242,l),
(512,296,l),
(536,220,o),
(477,181,o),
(399,181,cs),
(310,181,o),
(245,248,o),
(245,349,cs),
(245,350,ls),
(245,443,o),
(308,510,o),
(406,510,cs),
(459,510,o),
(508,490,o),
(547,438,c),
(695,583,l),
(622,665,o),
(528,715,o),
(397,715,cs),
(178,715,o),
(23,565,o),
(23,350,cs),
(23,349,ls),
(23,135,o),
(176,-15,o),
(394,-15,cs)
);
},
{
closed = 1;
nodes = (
(501,736,o),
(587,774,o),
(587,917,c),
(430,917,l),
(430,884,o),
(418,867,o),
(394,867,cs),
(371,867,o),
(359,884,o),
(359,917,c),
(199,917,l),
(199,774,o),
(287,736,o),
(394,736,cs)
);
}
);
width = 755;
},
{
layerId = "E5E0E007-7D1B-446D-9E5D-3F173D74C5C6";
shapes = (
{
closed = 1;
nodes = (
(618,-15,o),
(750,146,o),
(718,396,c),
(412,396,l),
(412,266,l),
(628,266,l),
(559,308,l),
(579,208,o),
(506,135,o),
(400,135,cs),
(283,135,o),
(199,222,o),
(199,346,cs),
(199,353,ls),
(199,476,o),
(283,563,o),
(404,563,cs),
(463,563,o),
(514,542,o),
(555,493,c),
(667,604,l),
(600,673,o),
(513,715,o),
(401,715,cs),
(186,715,o),
(35,566,o),
(35,353,cs),
(35,346,ls),
(35,134,o),
(184,-15,o),
(396,-15,cs)
);
},
{
closed = 1;
nodes = (
(495,750,o),
(570,789,o),
(570,914,c),
(452,914,l),
(452,863,o),
(437,849,o),
(395,849,cs),
(353,849,o),
(339,863,o),
(339,914,c),
(219,914,l),
(219,789,o),
(295,750,o),
(395,750,cs)
);
}
);
width = 748;
},
{
layerId = "7BCD794D-E026-4384-BE12-1D1749EC9686";
shapes = (
{
closed = 1;
nodes = (
(605,-15,o),
(729,149,o),
(705,371,c),
(434,371,l),
(434,294,l),
(653,294,l),
(613,322,l),
(629,185,o),
(539,72,o),
(398,72,cs),
(248,72,o),
(142,184,o),
(142,342,cs),
(142,357,ls),
(142,515,o),
(250,627,o),
(404,627,cs),
(465,627,o),
(522,607,o),
(567,564,c),
(631,629,l),
(570,684,o),
(493,715,o),
(403,715,cs),
(194,715,o),
(47,568,o),
(47,357,cs),
(47,342,ls),
(47,132,o),
(191,-15,o),
(397,-15,cs)
);
},
{
closed = 1;
nodes = (
(485,767,o),
(547,807,o),
(547,910,c),
(476,910,l),
(476,851,o),
(449,827,o),
(394,827,cs),
(339,827,o),
(313,851,o),
(313,910,c),
(241,910,l),
(241,807,o),
(303,767,o),
(394,767,cs)
);
}
);
width = 740;
},
{
layerId = "88D78F5D-58B5-49C3-9C35-A3A5CAE2A296";
shapes = (
{
closed = 1;
nodes = (
(593,-15,o),
(710,151,o),
(693,348,c),
(454,348,l),
(454,321,l),
(677,321,l),
(664,335,l),
(675,164,o),
(569,14,o),
(397,14,cs),
(216,14,o),
(88,148,o),
(88,339,cs),
(88,360,ls),
(88,552,o),
(219,686,o),
(404,686,cs),
(467,686,o),
(529,668,o),
(579,630,c),
(597,653,l),
(542,694,o),
(474,715,o),
(405,715,cs),
(201,715,o),
(58,569,o),
(58,360,cs),
(58,339,ls),
(58,131,o),
(198,-15,o),
(397,-15,cs)
);
},
{
closed = 1;
nodes = (
(476,783,o),
(525,824,o),
(525,907,c),
(498,907,l),
(498,839,o),
(460,806,o),
(393,806,cs),
(326,806,o),
(288,839,o),
(288,907,c),
(261,907,l),
(261,824,o),
(310,783,o),
(393,783,cs)
);
}
);
width = 732;
}
);
leftKerningGroup = O;
rightKerningGroup = G;
unicode = 286;
},
{
glyphname = Gcommaaccent;
layers = (
{
layerId = "70CAE81F-A09E-4C14-9794-768AE0E0C4C3";
shapes = (
{
closed = 1;
nodes = (
(624,-15,o),
(761,141,o),
(728,407,c),
(392,407,l),
(392,242,l),
(605,242,l),
(512,296,l),
(536,220,o),
(477,181,o),
(399,181,cs),
(310,181,o),
(245,248,o),
(245,349,cs),
(245,350,ls),
(245,443,o),
(308,510,o),
(406,510,cs),
(459,510,o),
(508,490,o),
(547,438,c),
(695,583,l),
(622,665,o),
(528,715,o),
(397,715,cs),
(178,715,o),
(23,565,o),
(23,350,cs),
(23,349,ls),
(23,135,o),
(176,-15,o),
(394,-15,cs)
);
},
{
closed = 1;
nodes = (
(393,-245,ls),
(442,-245,o),
(474,-215,o),
(474,-169,cs),
(474,-36,l),
(262,-36,l),
(262,-153,l),
(369,-153,l),
(369,-168,ls),
(369,-173,o),
(367,-175,o),
(362,-175,cs),
(262,-175,l),
(262,-245,l)
);
}
);
width = 755;
},
{
layerId = "E5E0E007-7D1B-446D-9E5D-3F173D74C5C6";
shapes = (
{
closed = 1;
nodes = (
(618,-15,o),
(750,146,o),
(718,396,c),
(412,396,l),
(412,266,l),
(628,266,l),
(559,308,l),
(579,208,o),
(506,135,o),
(400,135,cs),
(283,135,o),
(199,222,o),
(199,346,cs),
(199,353,ls),
(199,476,o),
(283,563,o),
(404,563,cs),
(463,563,o),
(514,542,o),
(555,493,c),
(667,604,l),
(600,673,o),
(513,715,o),
(401,715,cs),
(186,715,o),
(35,566,o),
(35,353,cs),
(35,346,ls),
(35,134,o),
(184,-15,o),
(396,-15,cs)
);
},
{
closed = 1;
nodes = (
(384,-235,ls),
(427,-235,o),
(456,-208,o),
(456,-167,cs),
(456,-53,l),
(298,-53,l),
(298,-146,l),
(379,-146,l),
(379,-162,ls),
(379,-166,o),
(376,-170,o),
(371,-170,cs),
(298,-170,l),
(298,-235,l)
);
}
);
width = 748;
},
{
layerId = "7BCD794D-E026-4384-BE12-1D1749EC9686";
shapes = (
{
closed = 1;
nodes = (
(605,-15,o),
(729,149,o),
(705,371,c),
(434,371,l),
(434,294,l),
(653,294,l),
(613,322,l),
(629,185,o),
(539,72,o),
(398,72,cs),
(248,72,o),
(142,184,o),
(142,342,cs),
(142,357,ls),
(142,515,o),
(250,627,o),
(404,627,cs),
(465,627,o),
(522,607,o),
(567,564,c),
(631,629,l),
(570,684,o),
(493,715,o),
(403,715,cs),
(194,715,o),
(47,568,o),
(47,357,cs),
(47,342,ls),
(47,132,o),
(191,-15,o),
(397,-15,cs)
);
},
{
closed = 1;
nodes = (
(370,-217,ls),
(405,-217,o),
(431,-195,o),
(431,-159,cs),
(431,-61,l),
(339,-61,l),
(339,-132,l),
(381,-132,l),
(381,-156,ls),
(381,-168,o),
(375,-176,o),
(363,-176,cs),
(315,-176,l),
(315,-217,l)
);
}
);
width = 740;
},
{
layerId = "88D78F5D-58B5-49C3-9C35-A3A5CAE2A296";
shapes = (
{
closed = 1;
nodes = (
(593,-15,o),
(710,151,o),
(693,348,c),
(454,348,l),
(454,321,l),
(677,321,l),
(664,335,l),
(675,164,o),
(569,14,o),
(397,14,cs),
(216,14,o),
(88,148,o),
(88,339,cs),
(88,360,ls),
(88,552,o),
(219,686,o),
(404,686,cs),
(467,686,o),
(529,668,o),
(579,630,c),
(597,653,l),
(542,694,o),
(474,715,o),
(405,715,cs),
(201,715,o),
(58,569,o),
(58,360,cs),
(58,339,ls),
(58,131,o),
(198,-15,o),
(397,-15,cs)
);
},
{
closed = 1;
nodes = (
(357,-201,ls),
(386,-201,o),
(408,-182,o),
(408,-151,cs),
(408,-69,l),
(378,-69,l),
(378,-118,l),
(384,-118,l),
(384,-151,ls),
(384,-169,o),
(375,-181,o),
(357,-181,cs),
(331,-181,l),
(331,-201,l)
);
}
);
width = 732;
}
);
leftKerningGroup = O;
rightKerningGroup = G;
unicode = 290;
},
{
glyphname = Gdotaccent;
layers = (
{
layerId = "70CAE81F-A09E-4C14-9794-768AE0E0C4C3";
shapes = (
{
closed = 1;
nodes = (
(624,-15,o),
(761,141,o),
(728,407,c),
(392,407,l),
(392,242,l),
(605,242,l),
(512,296,l),
(536,220,o),
(477,181,o),
(399,181,cs),
(310,181,o),
(245,248,o),
(245,349,cs),
(245,350,ls),
(245,443,o),
(308,510,o),
(406,510,cs),
(459,510,o),
(508,490,o),
(547,438,c),
(695,583,l),
(622,665,o),
(528,715,o),
(397,715,cs),
(178,715,o),
(23,565,o),
(23,350,cs),
(23,349,ls),
(23,135,o),
(176,-15,o),
(394,-15,cs)
);
},
{
closed = 1;
nodes = (
(506,741,l),
(506,901,l),
(282,901,l),
(282,741,l)
);
}
);
width = 755;
},
{
layerId = "E5E0E007-7D1B-446D-9E5D-3F173D74C5C6";
shapes = (
{
closed = 1;
nodes = (
(618,-15,o),
(750,146,o),
(718,396,c),
(412,396,l),
(412,266,l),
(628,266,l),
(559,308,l),
(579,208,o),
(506,135,o),
(400,135,cs),
(283,135,o),
(199,222,o),
(199,346,cs),
(199,353,ls),
(199,476,o),
(283,563,o),
(404,563,cs),
(463,563,o),
(514,542,o),
(555,493,c),
(667,604,l),
(600,673,o),
(513,715,o),
(401,715,cs),
(186,715,o),
(35,566,o),
(35,353,cs),
(35,346,ls),
(35,134,o),
(184,-15,o),
(396,-15,cs)
);
},
{
closed = 1;
nodes = (
(478,777,l),
(478,914,l),
(312,914,l),
(312,777,l)
);
}
);
width = 748;
},
{
layerId = "7BCD794D-E026-4384-BE12-1D1749EC9686";
shapes = (
{
closed = 1;
nodes = (
(605,-15,o),
(729,149,o),
(705,371,c),
(434,371,l),
(434,294,l),
(653,294,l),
(613,322,l),
(629,185,o),
(539,72,o),
(398,72,cs),
(248,72,o),
(142,184,o),
(142,342,cs),
(142,357,ls),
(142,515,o),
(250,627,o),
(404,627,cs),
(465,627,o),
(522,607,o),
(567,564,c),
(631,629,l),
(570,684,o),
(493,715,o),
(403,715,cs),
(194,715,o),
(47,568,o),
(47,357,cs),
(47,342,ls),
(47,132,o),
(191,-15,o),
(397,-15,cs)
);
},
{
closed = 1;
nodes = (
(442,793,l),
(442,902,l),
(346,902,l),
(346,793,l)
);
}
);
width = 740;
},
{
layerId = "88D78F5D-58B5-49C3-9C35-A3A5CAE2A296";
shapes = (
{
closed = 1;
nodes = (
(593,-15,o),
(710,151,o),
(693,348,c),
(454,348,l),
(454,321,l),
(677,321,l),
(664,335,l),
(675,164,o),
(569,14,o),
(397,14,cs),
(216,14,o),
(88,148,o),
(88,339,cs),
(88,360,ls),
(88,552,o),
(219,686,o),
(404,686,cs),
(467,686,o),
(529,668,o),
(579,630,c),
(597,653,l),
(542,694,o),
(474,715,o),
(405,715,cs),
(201,715,o),
(58,569,o),
(58,360,cs),
(58,339,ls),
(58,131,o),
(198,-15,o),
(397,-15,cs)
);
},
{
closed = 1;
nodes = (
(408,807,l),
(408,891,l),
(378,891,l),
(378,807,l)
);
}
);
width = 732;
}
);
leftKerningGroup = O;
rightKerningGroup = G;
unicode = 288;
},
{
glyphname = H;
layers = (
{
hints = (
{
horizontal = 1;
origin = (1,3);
target = up;
type = BottomGhost;
},
{
horizontal = 1;
origin = (2,3);
target = (2,2);
type = Stem;
},
{
horizontal = 1;
origin = (1,2);
target = down;
type = TopGhost;
},
{
origin = (1,3);
target = (1,1);
type = Stem;
},
{
origin = (0,3);
target = (0,1);
type = Stem;
}
);
layerId = "70CAE81F-A09E-4C14-9794-768AE0E0C4C3";
shapes = (
{
closed = 1;
nodes = (
(691,0,l),
(691,700,l),
(473,700,l),
(473,0,l)
);
},
{
closed = 1;
nodes = (
(270,0,l),
(270,700,l),
(52,700,l),
(52,0,l)
);
},
{
closed = 1;
nodes = (
(558,259,l),
(558,454,l),
(161,454,l),
(161,259,l)
);
}
);
width = 743;
},
{
hints = (
{
horizontal = 1;
origin = (1,3);
target = up;
type = BottomGhost;
},
{
horizontal = 1;
origin = (2,3);
target = (2,2);
type = Stem;
},
{
horizontal = 1;
origin = (1,2);
target = down;
type = TopGhost;
},
{
origin = (1,3);
target = (1,1);
type = Stem;
},
{
origin = (0,3);
target = (0,1);
type = Stem;
}
);
layerId = "E5E0E007-7D1B-446D-9E5D-3F173D74C5C6";
shapes = (
{
closed = 1;
nodes = (
(672,0,l),
(672,700,l),
(511,700,l),
(511,0,l)
);
},
{
closed = 1;
nodes = (
(231,0,l),
(231,700,l),
(70,700,l),
(70,0,l)
);
},
{
closed = 1;
nodes = (
(573,289,l),
(573,434,l),
(152,434,l),
(152,289,l)
);
}
);
width = 742;
},
{
layerId = "7BCD794D-E026-4384-BE12-1D1749EC9686";
shapes = (
{
closed = 1;
nodes = (
(642,0,l),
(642,700,l),
(550,700,l),
(550,0,l)
);
},
{
closed = 1;
nodes = (
(178,0,l),
(178,700,l),
(86,700,l),
(86,0,l)
);
},
{
closed = 1;
nodes = (
(585,319,l),
(585,403,l),
(135,403,l),
(135,319,l)
);
}
);
width = 728;
},
{
layerId = "88D78F5D-58B5-49C3-9C35-A3A5CAE2A296";
shapes = (
{
closed = 1;
nodes = (
(615,0,l),
(615,700,l),
(586,700,l),
(586,0,l)
);
},
{
closed = 1;
nodes = (
(129,0,l),
(129,700,l),
(100,700,l),
(100,0,l)
);
},
{
closed = 1;
nodes = (
(596,346,l),
(596,374,l),
(119,374,l),
(119,346,l)
);
}
);
width = 715;
}
);
leftKerningGroup = H;
rightKerningGroup = H;
unicode = 72;
},
{
glyphname = Hbar;
layers = (
{
layerId = "70CAE81F-A09E-4C14-9794-768AE0E0C4C3";
shapes = (
{
closed = 1;
nodes = (
(796,458,l),
(796,612,l),
(24,612,l),
(24,458,l)
);
},
{
closed = 1;
nodes = (
(730,0,l),
(730,700,l),
(512,700,l),
(512,0,l)
);
},
{
closed = 1;
nodes = (
(309,0,l),
(309,700,l),
(91,700,l),
(91,0,l)
);
},
{
closed = 1;
nodes = (
(597,193,l),
(597,388,l),
(200,388,l),
(200,193,l)
);
}
);
width = 820;
},
{
layerId = "E5E0E007-7D1B-446D-9E5D-3F173D74C5C6";
shapes = (
{
closed = 1;
nodes = (
(770,470,l),
(770,589,l),
(28,589,l),
(28,470,l)
);
},
{
closed = 1;
nodes = (
(700,0,l),
(700,700,l),
(539,700,l),
(539,0,l)
);
},
{
closed = 1;
nodes = (
(259,0,l),
(259,700,l),
(98,700,l),
(98,0,l)
);
},
{
closed = 1;
nodes = (
(601,229,l),
(601,374,l),
(180,374,l),
(180,229,l)
);
}
);
width = 798;
},
{
layerId = "7BCD794D-E026-4384-BE12-1D1749EC9686";
shapes = (
{
closed = 1;
nodes = (
(736,492,l),
(736,562,l),
(31,562,l),
(31,492,l)
);
},
{
closed = 1;
nodes = (
(662,0,l),
(662,700,l),
(569,700,l),
(569,0,l)
);
},
{
closed = 1;
nodes = (
(197,0,l),
(197,700,l),
(105,700,l),
(105,0,l)
);
},
{
closed = 1;
nodes = (
(604,273,l),
(604,357,l),
(154,357,l),
(154,273,l)
);
}
);
width = 767;
},
{
layerId = "88D78F5D-58B5-49C3-9C35-A3A5CAE2A296";
shapes = (
{
closed = 1;
nodes = (
(705,512,l),
(705,536,l),
(33,536,l),
(33,512,l)
);
},
{
closed = 1;
nodes = (
(626,0,l),
(626,700,l),
(597,700,l),
(597,0,l)
);
},
{
closed = 1;
nodes = (
(140,0,l),
(140,700,l),
(111,700,l),
(111,0,l)
);
},
{
closed = 1;
nodes = (
(607,314,l),
(607,342,l),
(130,342,l),
(130,314,l)
);
}
);
width = 738;
}
);
leftKerningGroup = H;
rightKerningGroup = H;
unicode = 294;
},
{
glyphname = I;
leftMetricsKey = E;
rightMetricsKey = "|E";
layers = (
{
anchors = (
{
name = bottom;
position = "{108, 0}";
},
{
name = ogonek;
position = "{123, -10}";
},
{
name = top;
position = "{110, 700}";
}
);
layerId = "632B351B-3748-4642-A8C4-C39028D72536";
name = "#instance";
shapes = (
{
closed = 1;
nodes = (
(124,0,l),
(124,700,l),
(94,700,l),
(94,0,l)
);
}
);
width = 218;
},
{
anchors = (
{
name = bottom;
position = "{157, 0}";
},
{
name = ogonek;
position = "{265, 0}";
},
{
name = top;
position = "{157, 700}";
}
);
hints = (
{
horizontal = 1;
place = (0,195);
type = Stem;
},
{
horizontal = 1;
place = (505,195);
type = Stem;
},
{
place = (48,218);
type = Stem;
}
);
layerId = "70CAE81F-A09E-4C14-9794-768AE0E0C4C3";
shapes = (
{
closed = 1;
nodes = (
(266,0,l),
(266,700,l),
(48,700,l),
(48,0,l)
);
}
);
width = 314;
},
{
anchors = (
{
name = bottom;
position = "{145, 0}";
},
{
name = ogonek;
position = "{225, 0}";
},
{
name = top;
position = "{145, 700}";
}
);
hints = (
{
horizontal = 1;
place = (0,145);
type = Stem;
},
{
horizontal = 1;
place = (555,145);
type = Stem;
},
{
place = (64,161);
type = Stem;
}
);
layerId = "E5E0E007-7D1B-446D-9E5D-3F173D74C5C6";
shapes = (
{
closed = 1;
nodes = (
(225,0,l),
(225,700,l),
(64,700,l),
(64,0,l)
);
}
);
width = 289;
},
{
anchors = (
{
name = bottom;
position = "{127, 0}";
},
{
name = ogonek;
position = "{174, -5}";
},
{
name = top;
position = "{128, 700}";
}
);
layerId = "7BCD794D-E026-4384-BE12-1D1749EC9686";
shapes = (
{
closed = 1;
nodes = (
(173,0,l),
(173,700,l),
(80,700,l),
(80,0,l)
);
}
);
width = 253;
},
{
anchors = (
{
name = bottom;
position = "{108, 0}";
},
{
name = ogonek;
position = "{123, -10}";
},
{
name = top;
position = "{110, 700}";
}
);
layerId = "88D78F5D-58B5-49C3-9C35-A3A5CAE2A296";
shapes = (
{
closed = 1;
nodes = (
(124,0,l),
(124,700,l),
(94,700,l),
(94,0,l)
);
}
);
width = 218;
}
);
leftKerningGroup = I;
rightKerningGroup = I;
unicode = 73;
},
{
glyphname = Iacute;
leftMetricsKey = I;
widthMetricsKey = I;
layers = (
{
layerId = "70CAE81F-A09E-4C14-9794-768AE0E0C4C3";
shapes = (
{
closed = 1;
nodes = (
(266,0,l),
(266,700,l),
(48,700,l),
(48,0,l)
);
},
{
closed = 1;
nodes = (
(260,741,l),
(373,917,l),
(138,917,l),
(54,741,l)
);
}
);
width = 314;
},
{
layerId = "E5E0E007-7D1B-446D-9E5D-3F173D74C5C6";
shapes = (
{
closed = 1;
nodes = (
(225,0,l),
(225,700,l),
(64,700,l),
(64,0,l)
);
},
{
closed = 1;
nodes = (
(222,755,l),
(329,914,l),
(153,914,l),
(68,755,l)
);
}
);
width = 289;
},
{
layerId = "7BCD794D-E026-4384-BE12-1D1749EC9686";
shapes = (
{
closed = 1;
nodes = (
(173,0,l),
(173,700,l),
(80,700,l),
(80,0,l)
);
},
{
closed = 1;
nodes = (
(173,772,l),
(274,910,l),
(169,910,l),
(83,772,l)
);
}
);
width = 253;
},
{
layerId = "88D78F5D-58B5-49C3-9C35-A3A5CAE2A296";
shapes = (
{
closed = 1;
nodes = (
(124,0,l),
(124,700,l),
(94,700,l),
(94,0,l)
);
},
{
closed = 1;
nodes = (
(126,788,l),
(220,907,l),
(181,907,l),
(94,788,l)
);
}
);
width = 218;
}
);
leftKerningGroup = I;
rightKerningGroup = I;
unicode = 205;
},
{
glyphname = Icircumflex;
leftMetricsKey = I;
widthMetricsKey = I;
layers = (
{
layerId = "70CAE81F-A09E-4C14-9794-768AE0E0C4C3";
shapes = (
{
closed = 1;
nodes = (
(266,0,l),
(266,700,l),
(48,700,l),
(48,0,l)
);
},
{
closed = 1;
nodes = (
(116,741,l),
(213,864,l),
(98,864,l),
(198,741,l),
(389,741,l),
(264,917,l),
(51,917,l),
(-74,741,l)
);
}
);
width = 314;
},
{
layerId = "E5E0E007-7D1B-446D-9E5D-3F173D74C5C6";
shapes = (
{
closed = 1;
nodes = (
(225,0,l),
(225,700,l),
(64,700,l),
(64,0,l)
);
},
{
closed = 1;
nodes = (
(84,755,l),
(187,873,l),
(101,873,l),
(206,755,l),
(350,755,l),
(225,914,l),
(66,914,l),
(-59,755,l)
);
}
);
width = 289;
},
{
layerId = "7BCD794D-E026-4384-BE12-1D1749EC9686";
shapes = (
{
closed = 1;
nodes = (
(173,0,l),
(173,700,l),
(80,700,l),
(80,0,l)
);
},
{
closed = 1;
nodes = (
(43,772,l),
(153,884,l),
(102,884,l),
(213,772,l),
(300,772,l),
(175,910,l),
(82,910,l),
(-44,772,l)
);
}
);
width = 253;
},
{
layerId = "88D78F5D-58B5-49C3-9C35-A3A5CAE2A296";
shapes = (
{
closed = 1;
nodes = (
(124,0,l),
(124,700,l),
(94,700,l),
(94,0,l)
);
},
{
closed = 1;
nodes = (
(2,788,l),
(119,894,l),
(101,894,l),
(218,788,l),
(252,788,l),
(126,907,l),
(95,907,l),
(-32,788,l)
);
}
);
width = 218;
}
);
leftKerningGroup = I;
rightKerningGroup = I;
unicode = 206;
},
{
glyphname = Idieresis;
leftMetricsKey = I;
widthMetricsKey = I;
layers = (
{
layerId = "70CAE81F-A09E-4C14-9794-768AE0E0C4C3";
shapes = (
{
closed = 1;
nodes = (
(266,0,l),
(266,700,l),
(48,700,l),
(48,0,l)
);
},
{
closed = 1;
nodes = (
(374,741,l),
(374,902,l),
(174,902,l),
(174,741,l)
);
},
{
closed = 1;
nodes = (
(138,741,l),
(138,902,l),
(-56,902,l),
(-56,741,l)
);
}
);
width = 314;
},
{
layerId = "E5E0E007-7D1B-446D-9E5D-3F173D74C5C6";
shapes = (
{
closed = 1;
nodes = (
(225,0,l),
(225,700,l),
(64,700,l),
(64,0,l)
);
},
{
closed = 1;
nodes = (
(327,778,l),
(327,914,l),
(179,914,l),
(179,778,l)
);
},
{
closed = 1;
nodes = (
(110,778,l),
(110,914,l),
(-38,914,l),
(-38,778,l)
);
}
);
width = 289;
},
{
layerId = "7BCD794D-E026-4384-BE12-1D1749EC9686";
shapes = (
{
closed = 1;
nodes = (
(173,0,l),
(173,700,l),
(80,700,l),
(80,0,l)
);
},
{
closed = 1;
nodes = (
(272,795,l),
(272,901,l),
(186,901,l),
(186,795,l)
);
},
{
closed = 1;
nodes = (
(70,795,l),
(70,901,l),
(-16,901,l),
(-16,795,l)
);
}
);
width = 253;
},
{
layerId = "88D78F5D-58B5-49C3-9C35-A3A5CAE2A296";
shapes = (
{
closed = 1;
nodes = (
(124,0,l),
(124,700,l),
(94,700,l),
(94,0,l)
);
},
{
closed = 1;
nodes = (
(218,811,l),
(218,888,l),
(190,888,l),
(190,811,l)
);
},
{
closed = 1;
nodes = (
(30,811,l),
(30,888,l),
(2,888,l),
(2,811,l)
);
}
);
width = 218;
}
);
leftKerningGroup = I;
rightKerningGroup = I;
unicode = 207;
},
{
glyphname = Idotaccent;
leftMetricsKey = I;
widthMetricsKey = I;
layers = (
{
layerId = "70CAE81F-A09E-4C14-9794-768AE0E0C4C3";
shapes = (
{
closed = 1;
nodes = (
(266,0,l),
(266,700,l),
(48,700,l),
(48,0,l)
);
},
{
closed = 1;
nodes = (
(269,741,l),
(269,901,l),
(45,901,l),
(45,741,l)
);
}
);
width = 314;
},
{
layerId = "E5E0E007-7D1B-446D-9E5D-3F173D74C5C6";
shapes = (
{
closed = 1;
nodes = (
(225,0,l),
(225,700,l),
(64,700,l),
(64,0,l)
);
},
{
closed = 1;
nodes = (
(228,777,l),
(228,914,l),
(62,914,l),
(62,777,l)
);
}
);
width = 289;
},
{
layerId = "7BCD794D-E026-4384-BE12-1D1749EC9686";
shapes = (
{
closed = 1;
nodes = (
(173,0,l),
(173,700,l),
(80,700,l),
(80,0,l)
);
},
{
closed = 1;
nodes = (
(176,793,l),
(176,902,l),
(80,902,l),
(80,793,l)
);
}
);
width = 253;
},
{
layerId = "88D78F5D-58B5-49C3-9C35-A3A5CAE2A296";
shapes = (
{
closed = 1;
nodes = (
(124,0,l),
(124,700,l),
(94,700,l),
(94,0,l)
);
},
{
closed = 1;
nodes = (
(125,807,l),
(125,891,l),
(95,891,l),
(95,807,l)
);
}
);
width = 218;
}
);
leftKerningGroup = I;
rightKerningGroup = I;
unicode = 304;
},
{
color = 8;
glyphname = Idotbelow;
leftMetricsKey = I;
widthMetricsKey = I;
layers = (
{
layerId = "70CAE81F-A09E-4C14-9794-768AE0E0C4C3";
shapes = (
{
closed = 1;
nodes = (
(266,0,l),
(266,700,l),
(48,700,l),
(48,0,l)
);
},
{
closed = 1;
nodes = (
(269,-210,l),
(269,-49,l),
(45,-49,l),
(45,-210,l)
);
}
);
width = 314;
},
{
layerId = "E5E0E007-7D1B-446D-9E5D-3F173D74C5C6";
shapes = (
{
closed = 1;
nodes = (
(225,0,l),
(225,700,l),
(64,700,l),
(64,0,l)
);
},
{
closed = 1;
nodes = (
(228,-210,l),
(228,-70,l),
(62,-70,l),
(62,-210,l)
);
}
);
width = 289;
},
{
layerId = "7BCD794D-E026-4384-BE12-1D1749EC9686";
shapes = (
{
closed = 1;
nodes = (
(173,0,l),
(173,700,l),
(80,700,l),
(80,0,l)
);
},
{
closed = 1;
nodes = (
(176,-182,l),
(176,-66,l),
(79,-66,l),
(79,-182,l)
);
}
);
width = 253;
},
{
layerId = "88D78F5D-58B5-49C3-9C35-A3A5CAE2A296";
shapes = (
{
closed = 1;
nodes = (
(124,0,l),
(124,700,l),
(94,700,l),
(94,0,l)
);
},
{
closed = 1;
nodes = (
(125,-156,l),
(125,-63,l),
(92,-63,l),
(92,-156,l)
);
}
);
width = 218;
}
);
leftKerningGroup = I;
rightKerningGroup = I;
unicode = 7882;
},
{
glyphname = Igrave;
leftMetricsKey = I;
widthMetricsKey = I;
layers = (
{
layerId = "70CAE81F-A09E-4C14-9794-768AE0E0C4C3";
shapes = (
{
closed = 1;
nodes = (
(266,0,l),
(266,700,l),
(48,700,l),
(48,0,l)
);
},
{
closed = 1;
nodes = (
(260,741,l),
(176,917,l),
(-59,917,l),
(54,741,l)
);
}
);
width = 314;
},
{
layerId = "E5E0E007-7D1B-446D-9E5D-3F173D74C5C6";
shapes = (
{
closed = 1;
nodes = (
(225,0,l),
(225,700,l),
(64,700,l),
(64,0,l)
);
},
{
closed = 1;
nodes = (
(222,755,l),
(137,914,l),
(-39,914,l),
(68,755,l)
);
}
);
width = 289;
},
{
layerId = "7BCD794D-E026-4384-BE12-1D1749EC9686";
shapes = (
{
closed = 1;
nodes = (
(173,0,l),
(173,700,l),
(80,700,l),
(80,0,l)
);
},
{
closed = 1;
nodes = (
(173,772,l),
(87,910,l),
(-18,910,l),
(83,772,l)
);
}
);
width = 253;
},
{
layerId = "88D78F5D-58B5-49C3-9C35-A3A5CAE2A296";
shapes = (
{
closed = 1;
nodes = (
(124,0,l),
(124,700,l),
(94,700,l),
(94,0,l)
);
},
{
closed = 1;
nodes = (
(126,788,l),
(39,907,l),
(0,907,l),
(94,788,l)
);
}
);
width = 218;
}
);
leftKerningGroup = I;
rightKerningGroup = I;
unicode = 204;
},
{
color = 8;
glyphname = Ihookabove;
leftMetricsKey = I;
widthMetricsKey = I;
layers = (
{
layerId = "70CAE81F-A09E-4C14-9794-768AE0E0C4C3";
shapes = (
{
closed = 1;
nodes = (
(266,0,l),
(266,700,l),
(48,700,l),
(48,0,l)
);
},
{
closed = 1;
nodes = (
(236,741,l),
(277,772,o),
(300,823,o),
(300,852,cs),
(300,926,o),
(236,968,o),
(139,968,cs),
(97,968,o),
(46,958,o),
(12,942,c),
(12,829,l),
(36,837,o),
(62,844,o),
(88,844,cs),
(113,844,o),
(134,838,o),
(134,817,cs),
(134,804,o),
(128,784,o),
(83,741,c)
);
}
);
width = 314;
},
{
layerId = "E5E0E007-7D1B-446D-9E5D-3F173D74C5C6";
shapes = (
{
closed = 1;
nodes = (
(225,0,l),
(225,700,l),
(64,700,l),
(64,0,l)
);
},
{
closed = 1;
nodes = (
(211,755,l),
(244,785,o),
(265,830,o),
(265,871,cs),
(265,931,o),
(216,971,o),
(141,971,cs),
(103,971,o),
(53,962,o),
(21,947,c),
(21,849,l),
(44,857,o),
(71,863,o),
(94,863,cs),
(113,863,o),
(135,859,o),
(135,835,cs),
(135,818,o),
(126,794,o),
(87,755,c)
);
}
);
width = 289;
},
{
layerId = "7BCD794D-E026-4384-BE12-1D1749EC9686";
shapes = (
{
closed = 1;
nodes = (
(173,0,l),
(173,700,l),
(80,700,l),
(80,0,l)
);
},
{
closed = 1;
nodes = (
(170,772,l),
(200,799,o),
(217,832,o),
(217,865,cs),
(217,915,o),
(178,948,o),
(118,948,cs),
(87,948,o),
(48,940,o),
(21,924,c),
(21,865,l),
(44,877,o),
(72,884,o),
(94,884,cs),
(120,884,o),
(141,871,o),
(141,847,cs),
(141,827,o),
(128,804,o),
(93,772,c)
);
}
);
width = 253;
},
{
layerId = "88D78F5D-58B5-49C3-9C35-A3A5CAE2A296";
shapes = (
{
closed = 1;
nodes = (
(124,0,l),
(124,700,l),
(94,700,l),
(94,0,l)
);
},
{
closed = 1;
nodes = (
(130,788,l),
(157,812,o),
(171,834,o),
(171,860,cs),
(171,900,o),
(140,927,o),
(94,927,cs),
(70,927,o),
(42,920,o),
(18,903,c),
(18,880,l),
(42,896,o),
(70,903,o),
(91,903,cs),
(125,903,o),
(144,883,o),
(144,859,cs),
(144,836,o),
(127,814,o),
(97,788,c)
);
}
);
width = 218;
}
);
leftKerningGroup = I;
rightKerningGroup = I;
unicode = 7880;
},
{
glyphname = Imacron;
leftMetricsKey = I;
widthMetricsKey = I;
layers = (
{
layerId = "70CAE81F-A09E-4C14-9794-768AE0E0C4C3";
shapes = (
{
closed = 1;
nodes = (
(266,0,l),
(266,700,l),
(48,700,l),
(48,0,l)
);
},
{
closed = 1;
nodes = (
(326,746,l),
(326,897,l),
(-11,897,l),
(-11,746,l)
);
}
);
width = 314;
},
{
layerId = "E5E0E007-7D1B-446D-9E5D-3F173D74C5C6";
shapes = (
{
closed = 1;
nodes = (
(225,0,l),
(225,700,l),
(64,700,l),
(64,0,l)
);
},
{
closed = 1;
nodes = (
(305,771,l),
(305,884,l),
(-14,884,l),
(-14,771,l)
);
}
);
width = 289;
},
{
layerId = "7BCD794D-E026-4384-BE12-1D1749EC9686";
shapes = (
{
closed = 1;
nodes = (
(173,0,l),
(173,700,l),
(80,700,l),
(80,0,l)
);
},
{
closed = 1;
nodes = (
(277,789,l),
(277,856,l),
(-21,856,l),
(-21,789,l)
);
}
);
width = 253;
},
{
layerId = "88D78F5D-58B5-49C3-9C35-A3A5CAE2A296";
shapes = (
{
closed = 1;
nodes = (
(124,0,l),
(124,700,l),
(94,700,l),
(94,0,l)
);
},
{
closed = 1;
nodes = (
(249,805,l),
(249,830,l),
(-29,830,l),
(-29,805,l)
);
}
);
width = 218;
}
);
leftKerningGroup = I;
rightKerningGroup = I;
unicode = 298;
},
{
glyphname = Iogonek;
leftMetricsKey = I;
widthMetricsKey = I;
layers = (
{
layerId = "70CAE81F-A09E-4C14-9794-768AE0E0C4C3";
shapes = (
{
closed = 1;
nodes = (
(266,0,l),
(266,700,l),
(48,700,l),
(48,0,l)
);
},
{
closed = 1;
nodes = (
(265,-215,l),
(265,-81,l),
(248,-81,ls),
(236,-81,o),
(230,-75,o),
(230,-68,cs),
(230,-62,o),
(232,-57,o),
(239,-45,cs),
(265,0,l),
(177,84,l),
(103,1,ls),
(76,-30,o),
(54,-65,o),
(54,-100,cs),
(54,-170,o),
(105,-215,o),
(184,-215,cs)
);
}
);
width = 314;
},
{
layerId = "E5E0E007-7D1B-446D-9E5D-3F173D74C5C6";
shapes = (
{
closed = 1;
nodes = (
(225,0,l),
(225,700,l),
(64,700,l),
(64,0,l)
);
},
{
closed = 1;
nodes = (
(225,-200,l),
(225,-99,l),
(207,-99,ls),
(187,-99,o),
(182,-87,o),
(182,-77,cs),
(182,-67,o),
(188,-56,o),
(193,-49,cs),
(225,0,l),
(157,72,l),
(113,23,ls),
(66,-29,o),
(51,-59,o),
(51,-100,cs),
(51,-160,o),
(93,-200,o),
(161,-200,cs)
);
}
);
width = 289;
},
{
layerId = "7BCD794D-E026-4384-BE12-1D1749EC9686";
shapes = (
{
closed = 1;
nodes = (
(173,0,l),
(173,700,l),
(80,700,l),
(80,0,l)
);
},
{
closed = 1;
nodes = (
(171,-200,l),
(171,-138,l),
(143,-138,ls),
(119,-138,o),
(111,-123,o),
(111,-109,cs),
(111,-95,o),
(118,-81,o),
(126,-69,cs),
(174,0,l),
(131,42,l),
(78,-26,l),
(46,-64,o),
(33,-89,o),
(33,-121,cs),
(33,-166,o),
(64,-200,o),
(119,-200,cs)
);
}
);
width = 253;
},
{
layerId = "88D78F5D-58B5-49C3-9C35-A3A5CAE2A296";
shapes = (
{
closed = 1;
nodes = (
(124,0,l),
(124,700,l),
(94,700,l),
(94,0,l)
);
},
{
closed = 1;
nodes = (
(117,-210,l),
(117,-185,l),
(79,-185,ls),
(53,-185,o),
(41,-167,o),
(41,-148,cs),
(41,-131,o),
(50,-114,o),
(61,-97,c),
(123,-10,l),
(104,4,l),
(42,-82,ls),
(24,-106,o),
(13,-127,o),
(13,-150,cs),
(13,-182,o),
(33,-210,o),
(76,-210,cs)
);
}
);
width = 218;
}
);
leftKerningGroup = I;
rightKerningGroup = I;
unicode = 302;
},
{
color = 8;
glyphname = Itilde;
leftMetricsKey = I;
widthMetricsKey = I;
layers = (
{
layerId = "70CAE81F-A09E-4C14-9794-768AE0E0C4C3";
shapes = (
{
closed = 1;
nodes = (
(266,0,l),
(266,700,l),
(48,700,l),
(48,0,l)
);
},
{
closed = 1;
nodes = (
(322,732,o),
(372,804,o),
(372,918,c),
(233,918,l),
(233,889,o),
(228,881,o),
(219,881,cs),
(193,881,o),
(149,947,o),
(79,947,cs),
(-9,947,o),
(-56,882,o),
(-55,762,c),
(83,762,l),
(84,793,o),
(87,801,o),
(96,801,cs),
(116,801,o),
(158,732,o),
(232,732,cs)
);
}
);
width = 314;
},
{
layerId = "E5E0E007-7D1B-446D-9E5D-3F173D74C5C6";
shapes = (
{
closed = 1;
nodes = (
(225,0,l),
(225,700,l),
(64,700,l),
(64,0,l)
);
},
{
closed = 1;
nodes = (
(295,738,o),
(338,794,o),
(338,891,c),
(234,891,l),
(234,873,o),
(233,853,o),
(216,853,cs),
(191,853,o),
(136,919,o),
(69,919,cs),
(-5,919,o),
(-46,863,o),
(-46,767,c),
(58,767,l),
(58,787,o),
(59,806,o),
(74,806,cs),
(97,806,o),
(148,738,o),
(219,738,cs)
);
}
);
width = 289;
},
{
layerId = "7BCD794D-E026-4384-BE12-1D1749EC9686";
shapes = (
{
closed = 1;
nodes = (
(173,0,l),
(173,700,l),
(80,700,l),
(80,0,l)
);
},
{
closed = 1;
nodes = (
(260,765,o),
(295,810,o),
(294,885,c),
(230,885,l),
(231,855,o),
(222,833,o),
(199,833,cs),
(161,833,o),
(118,911,o),
(55,911,cs),
(-3,911,o),
(-36,868,o),
(-37,794,c),
(27,794,l),
(28,824,o),
(36,845,o),
(56,845,cs),
(91,845,o),
(133,765,o),
(200,765,cs)
);
}
);
width = 253;
},
{
layerId = "88D78F5D-58B5-49C3-9C35-A3A5CAE2A296";
shapes = (
{
closed = 1;
nodes = (
(124,0,l),
(124,700,l),
(94,700,l),
(94,0,l)
);
},
{
closed = 1;
nodes = (
(225,791,o),
(252,825,o),
(251,880,c),
(225,880,l),
(226,839,o),
(210,815,o),
(181,815,cs),
(130,815,o),
(99,904,o),
(39,904,cs),
(-3,904,o),
(-29,872,o),
(-31,819,c),
(-5,819,l),
(-3,858,o),
(12,881,o),
(37,881,cs),
(83,881,o),
(117,791,o),
(181,791,cs)
);
}
);
width = 218;
}
);
leftKerningGroup = I;
rightKerningGroup = I;
unicode = 296;
},
{
glyphname = J;
layers = (
{
layerId = "70CAE81F-A09E-4C14-9794-768AE0E0C4C3";
shapes = (
{
closed = 1;
nodes = (
(118,0,ls),
(307,0,o),
(395,81,o),
(395,256,cs),
(395,700,l),
(177,700,l),
(177,234,ls),
(177,212,o),
(161,195,o),
(139,195,cs),
(27,195,l),
(27,0,l)
);
}
);
width = 442;
},
{
layerId = "E5E0E007-7D1B-446D-9E5D-3F173D74C5C6";
shapes = (
{
closed = 1;
nodes = (
(144,0,ls),
(296,0,o),
(371,70,o),
(371,212,cs),
(371,700,l),
(210,700,l),
(210,196,ls),
(210,167,o),
(188,145,o),
(159,145,cs),
(29,145,l),
(29,0,l)
);
}
);
width = 437;
},
{
layerId = "7BCD794D-E026-4384-BE12-1D1749EC9686";
shapes = (
{
closed = 1;
nodes = (
(168,0,ls),
(275,0,o),
(334,57,o),
(334,159,cs),
(334,700,l),
(242,700,l),
(242,150,ls),
(242,113,o),
(213,84,o),
(176,84,cs),
(24,84,l),
(24,0,l)
);
}
);
width = 416;
},
{
layerId = "88D78F5D-58B5-49C3-9C35-A3A5CAE2A296";
shapes = (
{
closed = 1;
nodes = (
(190,0,ls),
(255,0,o),
(300,45,o),
(300,109,cs),
(300,700,l),
(271,700,l),
(271,108,ls),
(271,62,o),
(236,28,o),
(191,28,cs),
(19,28,l),
(19,0,l)
);
}
);
width = 397;
}
);
unicode = 74;
},
{
glyphname = K;
layers = (
{
anchors = (
{
name = bottom;
position = "{371, 0}";
},
{
name = top;
position = "{368, 700}";
}
);
hints = (
{
horizontal = 1;
origin = (2,3);
target = up;
type = BottomGhost;
},
{
horizontal = 1;
origin = (1,2);
target = down;
type = TopGhost;
},
{
origin = (1,3);
target = (1,1);
type = Stem;
}
);
layerId = "70CAE81F-A09E-4C14-9794-768AE0E0C4C3";
shapes = (
{
closed = 1;
nodes = (
(698,700,l),
(449,700,l),
(199,337,l),
(222,45,l)
);
},
{
closed = 1;
nodes = (
(270,0,l),
(270,700,l),
(52,700,l),
(52,0,l)
);
},
{
closed = 1;
nodes = (
(701,0,l),
(442,512,l),
(288,352,l),
(444,0,l)
);
}
);
width = 690;
},
{
anchors = (
{
name = bottom;
position = "{356, 0}";
},
{
name = top;
position = "{354, 700}";
}
);
hints = (
{
horizontal = 1;
origin = (2,3);
target = up;
type = BottomGhost;
},
{
horizontal = 1;
origin = (1,2);
target = down;
type = TopGhost;
},
{
origin = (1,3);
target = (1,1);
type = Stem;
}
);
layerId = "E5E0E007-7D1B-446D-9E5D-3F173D74C5C6";
shapes = (
{
closed = 1;
nodes = (
(643,700,l),
(458,700,l),
(149,303,l),
(166,87,l)
);
},
{
closed = 1;
nodes = (
(230,0,l),
(230,700,l),
(70,700,l),
(70,0,l)
);
},
{
closed = 1;
nodes = (
(653,0,l),
(393,479,l),
(279,361,l),
(462,0,l)
);
}
);
width = 651;
},
{
anchors = (
{
name = bottom;
position = "{332, 0}";
},
{
name = top;
position = "{331, 700}";
}
);
layerId = "7BCD794D-E026-4384-BE12-1D1749EC9686";
shapes = (
{
closed = 1;
nodes = (
(594,700,l),
(486,700,l),
(131,262,l),
(141,137,l)
);
},
{
closed = 1;
nodes = (
(178,0,l),
(178,700,l),
(86,700,l),
(86,0,l)
);
},
{
closed = 1;
nodes = (
(613,0,l),
(336,439,l),
(270,371,l),
(502,0,l)
);
}
);
width = 616;
},
{
anchors = (
{
name = bottom;
position = "{309, 0}";
},
{
name = top;
position = "{309, 700}";
}
);
layerId = "88D78F5D-58B5-49C3-9C35-A3A5CAE2A296";
shapes = (
{
closed = 1;
nodes = (
(549,700,l),
(513,700,l),
(115,224,l),
(117,184,l)
);
},
{
closed = 1;
nodes = (
(129,0,l),
(129,700,l),
(100,700,l),
(100,0,l)
);
},
{
closed = 1;
nodes = (
(576,0,l),
(282,402,l),
(261,381,l),
(539,0,l)
);
}
);
width = 584;
}
);
leftKerningGroup = H;
rightKerningGroup = K;
unicode = 75;
},
{
glyphname = Kcommaaccent;
layers = (
{
layerId = "70CAE81F-A09E-4C14-9794-768AE0E0C4C3";
shapes = (
{
closed = 1;
nodes = (
(698,700,l),
(449,700,l),
(199,337,l),
(222,45,l)
);
},
{
closed = 1;
nodes = (
(270,0,l),
(270,700,l),
(52,700,l),
(52,0,l)
);
},
{
closed = 1;
nodes = (
(701,0,l),
(442,512,l),
(288,352,l),
(444,0,l)
);
},
{
closed = 1;
nodes = (
(396,-245,ls),
(445,-245,o),
(477,-215,o),
(477,-169,cs),
(477,-36,l),
(265,-36,l),
(265,-153,l),
(372,-153,l),
(372,-168,ls),
(372,-173,o),
(370,-175,o),
(365,-175,cs),
(265,-175,l),
(265,-245,l)
);
}
);
width = 690;
},
{
layerId = "E5E0E007-7D1B-446D-9E5D-3F173D74C5C6";
shapes = (
{
closed = 1;
nodes = (
(643,700,l),
(458,700,l),
(149,303,l),
(166,87,l)
);
},
{
closed = 1;
nodes = (
(230,0,l),
(230,700,l),
(70,700,l),
(70,0,l)
);
},
{
closed = 1;
nodes = (
(653,0,l),
(393,479,l),
(279,361,l),
(462,0,l)
);
},
{
closed = 1;
nodes = (
(363,-235,ls),
(406,-235,o),
(435,-208,o),
(435,-167,cs),
(435,-53,l),
(277,-53,l),
(277,-146,l),
(358,-146,l),
(358,-162,ls),
(358,-166,o),
(355,-170,o),
(350,-170,cs),
(277,-170,l),
(277,-235,l)
);
}
);
width = 651;
},
{
layerId = "7BCD794D-E026-4384-BE12-1D1749EC9686";
shapes = (
{
closed = 1;
nodes = (
(594,700,l),
(486,700,l),
(131,262,l),
(141,137,l)
);
},
{
closed = 1;
nodes = (
(178,0,l),
(178,700,l),
(86,700,l),
(86,0,l)
);
},
{
closed = 1;
nodes = (
(613,0,l),
(336,439,l),
(270,371,l),
(502,0,l)
);
},
{
closed = 1;
nodes = (
(317,-217,ls),
(352,-217,o),
(378,-195,o),
(378,-159,cs),
(378,-61,l),
(286,-61,l),
(286,-132,l),
(328,-132,l),
(328,-156,ls),
(328,-168,o),
(322,-176,o),
(310,-176,cs),
(262,-176,l),
(262,-217,l)
);
}
);
width = 616;
},
{
layerId = "88D78F5D-58B5-49C3-9C35-A3A5CAE2A296";
shapes = (
{
closed = 1;
nodes = (
(549,700,l),
(513,700,l),
(115,224,l),
(117,184,l)
);
},
{
closed = 1;
nodes = (
(129,0,l),
(129,700,l),
(100,700,l),
(100,0,l)
);
},
{
closed = 1;
nodes = (
(576,0,l),
(282,402,l),
(261,381,l),
(539,0,l)
);
},
{
closed = 1;
nodes = (
(273,-201,ls),
(302,-201,o),
(324,-182,o),
(324,-151,cs),
(324,-69,l),
(294,-69,l),
(294,-118,l),
(300,-118,l),
(300,-151,ls),
(300,-169,o),
(291,-181,o),
(273,-181,cs),
(247,-181,l),
(247,-201,l)
);
}
);
width = 584;
}
);
leftKerningGroup = H;
rightKerningGroup = K;
unicode = 310;
},
{
glyphname = L;
layers = (
{
anchors = (
{
name = bottom;
position = "{295, 0}";
},
{
name = center;
position = "{184, 364}";
},
{
name = top;
position = "{160, 700}";
},
{
name = topright;
position = "{316, 700}";
}
);
hints = (
{
horizontal = 1;
origin = (0,5);
target = (0,2);
type = Stem;
},
{
horizontal = 1;
origin = (0,4);
target = down;
type = TopGhost;
},
{
place = (50,218);
type = Stem;
}
);
layerId = "70CAE81F-A09E-4C14-9794-768AE0E0C4C3";
shapes = (
{
closed = 1;
nodes = (
(548,0,l),
(548,195,l),
(268,195,l),
(268,700,l),
(50,700,l),
(50,0,l)
);
}
);
width = 559;
},
{
anchors = (
{
name = bottom;
position = "{302, 0}";
},
{
name = center;
position = "{175, 360}";
},
{
name = top;
position = "{150, 700}";
},
{
name = topright;
position = "{319, 700}";
}
);
hints = (
{
horizontal = 1;
origin = (0,5);
target = (0,2);
type = Stem;
},
{
horizontal = 1;
origin = (0,4);
target = down;
type = TopGhost;
},
{
place = (68,160);
type = Stem;
}
);
layerId = "E5E0E007-7D1B-446D-9E5D-3F173D74C5C6";
shapes = (
{
closed = 1;
nodes = (
(532,0,l),
(532,150,l),
(228,150,l),
(228,700,l),
(68,700,l),
(68,0,l)
);
}
);
width = 545;
},
{
anchors = (
{
name = bottom;
position = "{303, 0}";
},
{
name = center;
position = "{157, 355}";
},
{
name = top;
position = "{130, 700}";
},
{
name = topright;
position = "{315, 700}";
}
);
layerId = "7BCD794D-E026-4384-BE12-1D1749EC9686";
shapes = (
{
closed = 1;
nodes = (
(505,0,l),
(505,87,l),
(175,87,l),
(175,700,l),
(83,700,l),
(83,0,l)
);
}
);
width = 518;
},
{
anchors = (
{
name = bottom;
position = "{304, 0}";
},
{
name = center;
position = "{140, 351}";
},
{
name = top;
position = "{112, 700}";
},
{
name = topright;
position = "{312, 700}";
}
);
layerId = "88D78F5D-58B5-49C3-9C35-A3A5CAE2A296";
shapes = (
{
closed = 1;
nodes = (
(480,0,l),
(480,29,l),
(126,29,l),
(126,700,l),
(97,700,l),
(97,0,l)
);
}
);
width = 493;
}
);
leftKerningGroup = L;
rightKerningGroup = L;
unicode = 76;
},
{
glyphname = Lacute;
layers = (
{
layerId = "70CAE81F-A09E-4C14-9794-768AE0E0C4C3";
shapes = (
{
closed = 1;
nodes = (
(548,0,l),
(548,195,l),
(268,195,l),
(268,700,l),
(50,700,l),
(50,0,l)
);
},
{
closed = 1;
nodes = (
(263,741,l),
(376,917,l),
(141,917,l),
(57,741,l)
);
}
);
width = 559;
},
{
layerId = "E5E0E007-7D1B-446D-9E5D-3F173D74C5C6";
shapes = (
{
closed = 1;
nodes = (
(532,0,l),
(532,150,l),
(228,150,l),
(228,700,l),
(68,700,l),
(68,0,l)
);
},
{
closed = 1;
nodes = (
(227,755,l),
(334,914,l),
(158,914,l),
(73,755,l)
);
}
);
width = 545;
},
{
layerId = "7BCD794D-E026-4384-BE12-1D1749EC9686";
shapes = (
{
closed = 1;
nodes = (
(505,0,l),
(505,87,l),
(175,87,l),
(175,700,l),
(83,700,l),
(83,0,l)
);
},
{
closed = 1;
nodes = (
(175,772,l),
(276,910,l),
(171,910,l),
(85,772,l)
);
}
);
width = 518;
},
{
layerId = "88D78F5D-58B5-49C3-9C35-A3A5CAE2A296";
shapes = (
{
closed = 1;
nodes = (
(480,0,l),
(480,29,l),
(126,29,l),
(126,700,l),
(97,700,l),
(97,0,l)
);
},
{
closed = 1;
nodes = (
(128,788,l),
(222,907,l),
(183,907,l),
(96,788,l)
);
}
);
width = 493;
}
);
leftKerningGroup = L;
rightKerningGroup = L;
unicode = 313;
},
{
glyphname = Lcaron;
layers = (
{
layerId = "70CAE81F-A09E-4C14-9794-768AE0E0C4C3";
shapes = (
{
closed = 1;
nodes = (
(548,0,l),
(548,195,l),
(268,195,l),
(268,700,l),
(50,700,l),
(50,0,l)
);
},
{
closed = 1;
nodes = (
(479,467,l),
(505,700,l),
(316,700,l),
(316,467,l)
);
}
);
width = 562;
},
{
layerId = "E5E0E007-7D1B-446D-9E5D-3F173D74C5C6";
shapes = (
{
closed = 1;
nodes = (
(532,0,l),
(532,150,l),
(228,150,l),
(228,700,l),
(68,700,l),
(68,0,l)
);
},
{
closed = 1;
nodes = (
(441,488,l),
(460,700,l),
(319,700,l),
(319,488,l)
);
}
);
width = 548;
},
{
layerId = "7BCD794D-E026-4384-BE12-1D1749EC9686";
shapes = (
{
closed = 1;
nodes = (
(505,0,l),
(505,87,l),
(175,87,l),
(175,700,l),
(83,700,l),
(83,0,l)
);
},
{
closed = 1;
nodes = (
(388,513,l),
(397,700,l),
(315,700,l),
(315,513,l)
);
}
);
width = 520;
},
{
layerId = "88D78F5D-58B5-49C3-9C35-A3A5CAE2A296";
shapes = (
{
closed = 1;
nodes = (
(480,0,l),
(480,29,l),
(126,29,l),
(126,700,l),
(97,700,l),
(97,0,l)
);
},
{
closed = 1;
nodes = (
(339,537,l),
(340,700,l),
(312,700,l),
(312,537,l)
);
}
);
width = 494;
}
);
leftKerningGroup = L;
rightKerningGroup = L;
unicode = 317;
},
{
glyphname = Lcommaaccent;
layers = (
{
layerId = "70CAE81F-A09E-4C14-9794-768AE0E0C4C3";
shapes = (
{
closed = 1;
nodes = (
(548,0,l),
(548,195,l),
(268,195,l),
(268,700,l),
(50,700,l),
(50,0,l)
);
},
{
closed = 1;
nodes = (
(320,-245,ls),
(369,-245,o),
(401,-215,o),
(401,-169,cs),
(401,-36,l),
(189,-36,l),
(189,-153,l),
(296,-153,l),
(296,-168,ls),
(296,-173,o),
(294,-175,o),
(289,-175,cs),
(189,-175,l),
(189,-245,l)
);
}
);
width = 559;
},
{
layerId = "E5E0E007-7D1B-446D-9E5D-3F173D74C5C6";
shapes = (
{
closed = 1;
nodes = (
(532,0,l),
(532,150,l),
(228,150,l),
(228,700,l),
(68,700,l),
(68,0,l)
);
},
{
closed = 1;
nodes = (
(309,-235,ls),
(352,-235,o),
(381,-208,o),
(381,-167,cs),
(381,-53,l),
(223,-53,l),
(223,-146,l),
(304,-146,l),
(304,-162,ls),
(304,-166,o),
(301,-170,o),
(296,-170,cs),
(223,-170,l),
(223,-235,l)
);
}
);
width = 545;
},
{
layerId = "7BCD794D-E026-4384-BE12-1D1749EC9686";
shapes = (
{
closed = 1;
nodes = (
(505,0,l),
(505,87,l),
(175,87,l),
(175,700,l),
(83,700,l),
(83,0,l)
);
},
{
closed = 1;
nodes = (
(288,-217,ls),
(323,-217,o),
(349,-195,o),
(349,-159,cs),
(349,-61,l),
(257,-61,l),
(257,-132,l),
(299,-132,l),
(299,-156,ls),
(299,-168,o),
(293,-176,o),
(281,-176,cs),
(233,-176,l),
(233,-217,l)
);
}
);
width = 518;
},
{
layerId = "88D78F5D-58B5-49C3-9C35-A3A5CAE2A296";
shapes = (
{
closed = 1;
nodes = (
(480,0,l),
(480,29,l),
(126,29,l),
(126,700,l),
(97,700,l),
(97,0,l)
);
},
{
closed = 1;
nodes = (
(268,-201,ls),
(297,-201,o),
(319,-182,o),
(319,-151,cs),
(319,-69,l),
(289,-69,l),
(289,-118,l),
(295,-118,l),
(295,-151,ls),
(295,-169,o),
(286,-181,o),
(268,-181,cs),
(242,-181,l),
(242,-201,l)
);
}
);
width = 493;
}
);
leftKerningGroup = L;
rightKerningGroup = L;
unicode = 315;
},
{
glyphname = Lslash;
layers = (
{
layerId = "70CAE81F-A09E-4C14-9794-768AE0E0C4C3";
shapes = (
{
closed = 1;
nodes = (
(603,0,l),
(603,195,l),
(323,195,l),
(323,700,l),
(105,700,l),
(105,0,l)
);
},
{
closed = 1;
nodes = (
(465,362,l),
(465,552,l),
(15,364,l),
(15,174,l)
);
}
);
width = 614;
},
{
layerId = "E5E0E007-7D1B-446D-9E5D-3F173D74C5C6";
shapes = (
{
closed = 1;
nodes = (
(593,0,l),
(593,150,l),
(289,150,l),
(289,700,l),
(129,700,l),
(129,0,l)
);
},
{
closed = 1;
nodes = (
(441,373,l),
(441,523,l),
(33,346,l),
(33,196,l)
);
}
);
width = 606;
},
{
layerId = "7BCD794D-E026-4384-BE12-1D1749EC9686";
shapes = (
{
closed = 1;
nodes = (
(559,0,l),
(559,87,l),
(229,87,l),
(229,700,l),
(137,700,l),
(137,0,l)
);
},
{
closed = 1;
nodes = (
(390,394,l),
(390,482,l),
(33,317,l),
(33,230,l)
);
}
);
width = 572;
},
{
layerId = "88D78F5D-58B5-49C3-9C35-A3A5CAE2A296";
shapes = (
{
closed = 1;
nodes = (
(528,0,l),
(528,29,l),
(174,29,l),
(174,700,l),
(145,700,l),
(145,0,l)
);
},
{
closed = 1;
nodes = (
(343,412,l),
(343,442,l),
(34,289,l),
(34,260,l)
);
}
);
width = 541;
}
);
rightKerningGroup = L;
unicode = 321;
},
{
glyphname = M;
layers = (
{
layerId = "70CAE81F-A09E-4C14-9794-768AE0E0C4C3";
shapes = (
{
closed = 1;
nodes = (
(263,0,l),
(263,610,l),
(182,610,l),
(362,102,l),
(516,102,l),
(696,610,l),
(616,610,l),
(616,0,l),
(826,0,l),
(826,700,l),
(536,700,l),
(388,290,l),
(490,290,l),
(343,700,l),
(52,700,l),
(52,0,l)
);
}
);
width = 878;
},
{
layerId = "E5E0E007-7D1B-446D-9E5D-3F173D74C5C6";
shapes = (
{
closed = 1;
nodes = (
(226,0,l),
(226,627,l),
(168,627,l),
(368,130,l),
(485,130,l),
(685,627,l),
(627,627,l),
(627,0,l),
(783,0,l),
(783,700,l),
(568,700,l),
(389,269,l),
(464,269,l),
(285,700,l),
(70,700,l),
(70,0,l)
);
}
);
width = 853;
},
{
layerId = "7BCD794D-E026-4384-BE12-1D1749EC9686";
shapes = (
{
closed = 1;
nodes = (
(176,0,l),
(176,648,l),
(145,648,l),
(369,164,l),
(441,164,l),
(665,648,l),
(634,648,l),
(634,0,l),
(724,0,l),
(724,700,l),
(601,700,l),
(384,243,l),
(426,243,l),
(209,700,l),
(86,700,l),
(86,0,l)
);
}
);
width = 810;
},
{
layerId = "88D78F5D-58B5-49C3-9C35-A3A5CAE2A296";
shapes = (
{
closed = 1;
nodes = (
(129,0,l),
(129,668,l),
(123,667,l),
(370,195,l),
(400,195,l),
(647,667,l),
(641,668,l),
(641,0,l),
(670,0,l),
(670,700,l),
(631,700,l),
(379,219,l),
(391,219,l),
(138,700,l),
(100,700,l),
(100,0,l)
);
}
);
width = 770;
}
);
leftKerningGroup = H;
rightKerningGroup = H;
unicode = 77;
},
{
glyphname = N;
layers = (
{
layerId = "70CAE81F-A09E-4C14-9794-768AE0E0C4C3";
shapes = (
{
closed = 1;
nodes = (
(268,0,l),
(268,458,l),
(182,443,l),
(507,0,l),
(691,0,l),
(691,700,l),
(475,700,l),
(475,233,l),
(570,247,l),
(243,700,l),
(52,700,l),
(52,0,l)
);
}
);
width = 743;
},
{
layerId = "E5E0E007-7D1B-446D-9E5D-3F173D74C5C6";
shapes = (
{
closed = 1;
nodes = (
(230,0,l),
(230,521,l),
(167,510,l),
(521,0,l),
(660,0,l),
(660,700,l),
(500,700,l),
(500,172,l),
(569,183,l),
(213,700,l),
(70,700,l),
(70,0,l)
);
}
);
width = 730;
},
{
layerId = "7BCD794D-E026-4384-BE12-1D1749EC9686";
shapes = (
{
closed = 1;
nodes = (
(178,0,l),
(178,598,l),
(143,591,l),
(532,0,l),
(617,0,l),
(617,700,l),
(524,700,l),
(524,98,l),
(561,105,l),
(171,700,l),
(86,700,l),
(86,0,l)
);
}
);
width = 702;
},
{
layerId = "88D78F5D-58B5-49C3-9C35-A3A5CAE2A296";
shapes = (
{
closed = 1;
nodes = (
(129,0,l),
(129,669,l),
(121,667,l),
(542,0,l),
(576,0,l),
(576,700,l),
(547,700,l),
(547,30,l),
(554,33,l),
(132,700,l),
(100,700,l),
(100,0,l)
);
}
);
width = 676;
}
);
leftKerningGroup = H;
rightKerningGroup = H;
unicode = 78;
},
{
glyphname = Nacute;
layers = (
{
layerId = "70CAE81F-A09E-4C14-9794-768AE0E0C4C3";
shapes = (
{
closed = 1;
nodes = (
(268,0,l),
(268,458,l),
(182,443,l),
(507,0,l),
(691,0,l),
(691,700,l),
(475,700,l),
(475,233,l),
(570,247,l),
(243,700,l),
(52,700,l),
(52,0,l)
);
},
{
closed = 1;
nodes = (
(474,741,l),
(587,917,l),
(352,917,l),
(268,741,l)
);
}
);
width = 743;
},
{
layerId = "E5E0E007-7D1B-446D-9E5D-3F173D74C5C6";
shapes = (
{
closed = 1;
nodes = (
(230,0,l),
(230,521,l),
(167,510,l),
(521,0,l),
(660,0,l),
(660,700,l),
(500,700,l),
(500,172,l),
(569,183,l),
(213,700,l),
(70,700,l),
(70,0,l)
);
},
{
closed = 1;
nodes = (
(442,755,l),
(549,914,l),
(373,914,l),
(288,755,l)
);
}
);
width = 730;
},
{
layerId = "7BCD794D-E026-4384-BE12-1D1749EC9686";
shapes = (
{
closed = 1;
nodes = (
(178,0,l),
(178,598,l),
(143,591,l),
(532,0,l),
(617,0,l),
(617,700,l),
(524,700,l),
(524,98,l),
(561,105,l),
(171,700,l),
(86,700,l),
(86,0,l)
);
},
{
closed = 1;
nodes = (
(397,772,l),
(498,910,l),
(393,910,l),
(307,772,l)
);
}
);
width = 702;
},
{
layerId = "88D78F5D-58B5-49C3-9C35-A3A5CAE2A296";
shapes = (
{
closed = 1;
nodes = (
(129,0,l),
(129,669,l),
(121,667,l),
(542,0,l),
(576,0,l),
(576,700,l),
(547,700,l),
(547,30,l),
(554,33,l),
(132,700,l),
(100,700,l),
(100,0,l)
);
},
{
closed = 1;
nodes = (
(355,788,l),
(449,907,l),
(410,907,l),
(323,788,l)
);
}
);
width = 676;
}
);
leftKerningGroup = H;
rightKerningGroup = H;
unicode = 323;
},
{
glyphname = Ncaron;
layers = (
{
layerId = "70CAE81F-A09E-4C14-9794-768AE0E0C4C3";
shapes = (
{
closed = 1;
nodes = (
(268,0,l),
(268,458,l),
(182,443,l),
(507,0,l),
(691,0,l),
(691,700,l),
(475,700,l),
(475,233,l),
(570,247,l),
(243,700,l),
(52,700,l),
(52,0,l)
);
},
{
closed = 1;
nodes = (
(477,741,l),
(602,917,l),
(412,917,l),
(315,793,l),
(430,793,l),
(330,917,l),
(139,917,l),
(264,741,l)
);
}
);
width = 743;
},
{
layerId = "E5E0E007-7D1B-446D-9E5D-3F173D74C5C6";
shapes = (
{
closed = 1;
nodes = (
(230,0,l),
(230,521,l),
(167,510,l),
(521,0,l),
(660,0,l),
(660,700,l),
(500,700,l),
(500,172,l),
(569,183,l),
(213,700,l),
(70,700,l),
(70,0,l)
);
},
{
closed = 1;
nodes = (
(444,755,l),
(569,914,l),
(426,914,l),
(323,796,l),
(409,796,l),
(304,914,l),
(160,914,l),
(285,755,l)
);
}
);
width = 730;
},
{
layerId = "7BCD794D-E026-4384-BE12-1D1749EC9686";
shapes = (
{
closed = 1;
nodes = (
(178,0,l),
(178,598,l),
(143,591,l),
(532,0,l),
(617,0,l),
(617,700,l),
(524,700,l),
(524,98,l),
(561,105,l),
(171,700,l),
(86,700,l),
(86,0,l)
);
},
{
closed = 1;
nodes = (
(398,772,l),
(524,910,l),
(437,910,l),
(327,799,l),
(378,799,l),
(267,910,l),
(180,910,l),
(305,772,l)
);
}
);
width = 702;
},
{
layerId = "88D78F5D-58B5-49C3-9C35-A3A5CAE2A296";
shapes = (
{
closed = 1;
nodes = (
(129,0,l),
(129,669,l),
(121,667,l),
(542,0,l),
(576,0,l),
(576,700,l),
(547,700,l),
(547,30,l),
(554,33,l),
(132,700,l),
(100,700,l),
(100,0,l)
);
},
{
closed = 1;
nodes = (
(354,788,l),
(481,907,l),
(447,907,l),
(330,802,l),
(348,802,l),
(231,907,l),
(197,907,l),
(323,788,l)
);
}
);
width = 676;
}
);
leftKerningGroup = H;
rightKerningGroup = H;
unicode = 327;
},
{
glyphname = Ncommaaccent;
layers = (
{
layerId = "70CAE81F-A09E-4C14-9794-768AE0E0C4C3";
shapes = (
{
closed = 1;
nodes = (
(268,0,l),
(268,458,l),
(182,443,l),
(507,0,l),
(691,0,l),
(691,700,l),
(475,700,l),
(475,233,l),
(570,247,l),
(243,700,l),
(52,700,l),
(52,0,l)
);
},
{
closed = 1;
nodes = (
(396,-245,ls),
(445,-245,o),
(477,-215,o),
(477,-169,cs),
(477,-36,l),
(265,-36,l),
(265,-153,l),
(372,-153,l),
(372,-168,ls),
(372,-173,o),
(370,-175,o),
(365,-175,cs),
(265,-175,l),
(265,-245,l)
);
}
);
width = 743;
},
{
layerId = "E5E0E007-7D1B-446D-9E5D-3F173D74C5C6";
shapes = (
{
closed = 1;
nodes = (
(230,0,l),
(230,521,l),
(167,510,l),
(521,0,l),
(660,0,l),
(660,700,l),
(500,700,l),
(500,172,l),
(569,183,l),
(213,700,l),
(70,700,l),
(70,0,l)
);
},
{
closed = 1;
nodes = (
(372,-235,ls),
(415,-235,o),
(444,-208,o),
(444,-167,cs),
(444,-53,l),
(286,-53,l),
(286,-146,l),
(367,-146,l),
(367,-162,ls),
(367,-166,o),
(364,-170,o),
(359,-170,cs),
(286,-170,l),
(286,-235,l)
);
}
);
width = 730;
},
{
layerId = "7BCD794D-E026-4384-BE12-1D1749EC9686";
shapes = (
{
closed = 1;
nodes = (
(178,0,l),
(178,598,l),
(143,591,l),
(532,0,l),
(617,0,l),
(617,700,l),
(524,700,l),
(524,98,l),
(561,105,l),
(171,700,l),
(86,700,l),
(86,0,l)
);
},
{
closed = 1;
nodes = (
(337,-217,ls),
(372,-217,o),
(398,-195,o),
(398,-159,cs),
(398,-61,l),
(306,-61,l),
(306,-132,l),
(348,-132,l),
(348,-156,ls),
(348,-168,o),
(342,-176,o),
(330,-176,cs),
(282,-176,l),
(282,-217,l)
);
}
);
width = 702;
},
{
layerId = "88D78F5D-58B5-49C3-9C35-A3A5CAE2A296";
shapes = (
{
closed = 1;
nodes = (
(129,0,l),
(129,669,l),
(121,667,l),
(542,0,l),
(576,0,l),
(576,700,l),
(547,700,l),
(547,30,l),
(554,33,l),
(132,700,l),
(100,700,l),
(100,0,l)
);
},
{
closed = 1;
nodes = (
(303,-201,ls),
(332,-201,o),
(354,-182,o),
(354,-151,cs),
(354,-69,l),
(324,-69,l),
(324,-118,l),
(330,-118,l),
(330,-151,ls),
(330,-169,o),
(321,-181,o),
(303,-181,cs),
(277,-181,l),
(277,-201,l)
);
}
);
width = 676;
}
);
leftKerningGroup = H;
rightKerningGroup = H;
unicode = 325;
},
{
glyphname = Ntilde;
layers = (
{
layerId = "70CAE81F-A09E-4C14-9794-768AE0E0C4C3";
shapes = (
{
closed = 1;
nodes = (
(268,0,l),
(268,458,l),
(182,443,l),
(507,0,l),
(691,0,l),
(691,700,l),
(475,700,l),
(475,233,l),
(570,247,l),
(243,700,l),
(52,700,l),
(52,0,l)
);
},
{
closed = 1;
nodes = (
(536,732,o),
(586,804,o),
(586,918,c),
(447,918,l),
(447,889,o),
(442,881,o),
(433,881,cs),
(407,881,o),
(363,947,o),
(293,947,cs),
(205,947,o),
(158,882,o),
(159,762,c),
(297,762,l),
(298,793,o),
(301,801,o),
(310,801,cs),
(330,801,o),
(372,732,o),
(446,732,cs)
);
}
);
width = 743;
},
{
layerId = "E5E0E007-7D1B-446D-9E5D-3F173D74C5C6";
shapes = (
{
closed = 1;
nodes = (
(230,0,l),
(230,521,l),
(167,510,l),
(521,0,l),
(660,0,l),
(660,700,l),
(500,700,l),
(500,172,l),
(569,183,l),
(213,700,l),
(70,700,l),
(70,0,l)
);
},
{
closed = 1;
nodes = (
(515,738,o),
(558,794,o),
(558,891,c),
(454,891,l),
(454,873,o),
(453,853,o),
(436,853,cs),
(411,853,o),
(356,919,o),
(289,919,cs),
(215,919,o),
(174,863,o),
(174,767,c),
(278,767,l),
(278,787,o),
(279,806,o),
(294,806,cs),
(317,806,o),
(368,738,o),
(439,738,cs)
);
}
);
width = 730;
},
{
layerId = "7BCD794D-E026-4384-BE12-1D1749EC9686";
shapes = (
{
closed = 1;
nodes = (
(178,0,l),
(178,598,l),
(143,591,l),
(532,0,l),
(617,0,l),
(617,700,l),
(524,700,l),
(524,98,l),
(561,105,l),
(171,700,l),
(86,700,l),
(86,0,l)
);
},
{
closed = 1;
nodes = (
(484,765,o),
(519,810,o),
(518,885,c),
(454,885,l),
(455,855,o),
(446,833,o),
(423,833,cs),
(385,833,o),
(342,911,o),
(279,911,cs),
(221,911,o),
(188,868,o),
(187,794,c),
(251,794,l),
(252,824,o),
(260,845,o),
(280,845,cs),
(315,845,o),
(357,765,o),
(424,765,cs)
);
}
);
width = 702;
},
{
layerId = "88D78F5D-58B5-49C3-9C35-A3A5CAE2A296";
shapes = (
{
closed = 1;
nodes = (
(129,0,l),
(129,669,l),
(121,667,l),
(542,0,l),
(576,0,l),
(576,700,l),
(547,700,l),
(547,30,l),
(554,33,l),
(132,700,l),
(100,700,l),
(100,0,l)
);
},
{
closed = 1;
nodes = (
(454,791,o),
(481,825,o),
(480,880,c),
(454,880,l),
(455,839,o),
(439,815,o),
(410,815,cs),
(359,815,o),
(328,904,o),
(268,904,cs),
(226,904,o),
(200,872,o),
(198,819,c),
(224,819,l),
(226,858,o),
(241,881,o),
(266,881,cs),
(312,881,o),
(346,791,o),
(410,791,cs)
);
}
);
width = 676;
}
);
leftKerningGroup = H;
rightKerningGroup = H;
unicode = 209;
},
{
glyphname = Eng;
layers = (
{
layerId = "70CAE81F-A09E-4C14-9794-768AE0E0C4C3";
shapes = (
{
closed = 1;
nodes = (
(533,302,l),
(243,700,l),
(52,700,l),
(52,0,l),
(268,0,l),
(268,439,l),
(196,425,l),
(533,-37,l)
);
},
{
closed = 1;
nodes = (
(424,-200,ls),
(613,-200,o),
(691,-119,o),
(691,56,cs),
(691,700,l),
(475,700,l),
(475,34,ls),
(475,12,o),
(457,-5,o),
(435,-5,cs),
(325,-5,l),
(325,-200,l)
);
}
);
width = 743;
},
{
layerId = "E5E0E007-7D1B-446D-9E5D-3F173D74C5C6";
shapes = (
{
closed = 1;
nodes = (
(544,219,l),
(213,700,l),
(70,700,l),
(70,0,l),
(230,0,l),
(230,508,l),
(177,497,l),
(544,-34,l)
);
},
{
closed = 1;
nodes = (
(433,-200,ls),
(585,-200,o),
(660,-130,o),
(660,12,cs),
(660,700,l),
(500,700,l),
(500,-4,ls),
(500,-33,o),
(477,-55,o),
(448,-55,cs),
(348,-55,l),
(348,-200,l)
);
}
);
width = 730;
},
{
layerId = "7BCD794D-E026-4384-BE12-1D1749EC9686";
shapes = (
{
closed = 1;
nodes = (
(551,119,l),
(171,700,l),
(86,700,l),
(86,0,l),
(178,0,l),
(178,591,l),
(149,585,l),
(551,-30,l)
);
},
{
closed = 1;
nodes = (
(450,-200,ls),
(557,-200,o),
(617,-143,o),
(617,-41,cs),
(617,700,l),
(524,700,l),
(524,-50,ls),
(524,-87,o),
(495,-116,o),
(458,-116,cs),
(370,-116,l),
(370,-200,l)
);
}
);
width = 702;
},
{
layerId = "88D78F5D-58B5-49C3-9C35-A3A5CAE2A296";
shapes = (
{
closed = 1;
nodes = (
(558,25,l),
(132,700,l),
(100,700,l),
(100,0,l),
(129,0,l),
(129,669,l),
(122,666,l),
(558,-26,l)
);
},
{
closed = 1;
nodes = (
(466,-200,ls),
(531,-200,o),
(576,-155,o),
(576,-91,cs),
(576,700,l),
(547,700,l),
(547,-92,ls),
(547,-138,o),
(512,-172,o),
(467,-172,cs),
(390,-172,l),
(390,-200,l)
);
}
);
width = 676;
}
);
leftKerningGroup = H;
rightKerningGroup = H;
unicode = 330;
},
{
glyphname = O;
layers = (
{
anchors = (
{
name = bottom;
position = "{389, -1}";
},
{
name = center;
position = "{389, 350}";
},
{
name = tail.Q;
position = "{389, 0}";
},
{
name = top;
position = "{389, 700}";
},
{
name = topright;
position = "{451, 700}";
}
);
hints = (
{
horizontal = 1;
origin = (0,13);
target = (1,13);
type = Stem;
},
{
horizontal = 1;
origin = (1,6);
target = (0,6);
type = Stem;
},
{
origin = (0,10);
target = (1,3);
type = Stem;
},
{
origin = (1,10);
target = (0,3);
type = Stem;
}
);
layerId = "70CAE81F-A09E-4C14-9794-768AE0E0C4C3";
shapes = (
{
closed = 1;
nodes = (
(592,-15,o),
(753,127,o),
(753,344,cs),
(753,350,ls),
(753,572,o),
(592,715,o),
(389,715,cs),
(186,715,o),
(24,572,o),
(24,350,cs),
(24,344,ls),
(24,127,o),
(186,-15,o),
(389,-15,cs)
);
},
{
closed = 1;
nodes = (
(303,193,o),
(245,253,o),
(245,344,cs),
(245,350,ls),
(245,444,o),
(303,507,o),
(389,507,cs),
(475,507,o),
(532,444,o),
(532,350,cs),
(532,344,ls),
(532,253,o),
(475,193,o),
(389,193,cs)
);
}
);
width = 777;
},
{
anchors = (
{
name = bottom;
position = "{387, -1}";
},
{
name = center;
position = "{387, 350}";
},
{
name = tail.Q;
position = "{387, 0}";
},
{
name = top;
position = "{387, 700}";
},
{
name = topright;
position = "{449, 700}";
}
);
hints = (
{
horizontal = 1;
origin = (0,13);
target = (1,13);
type = Stem;
},
{
horizontal = 1;
origin = (1,6);
target = (0,6);
type = Stem;
},
{
origin = (0,10);
target = (1,3);
type = Stem;
},
{
origin = (1,10);
target = (0,3);
type = Stem;
}
);
layerId = "E5E0E007-7D1B-446D-9E5D-3F173D74C5C6";
shapes = (
{
closed = 1;
nodes = (
(587,-15,o),
(737,130,o),
(737,346,cs),
(737,353,ls),
(737,570,o),
(587,715,o),
(387,715,cs),
(187,715,o),
(36,570,o),
(36,353,cs),
(36,346,ls),
(36,130,o),
(187,-15,o),
(387,-15,cs)
);
},
{
closed = 1;
nodes = (
(278,141,o),
(200,216,o),
(200,346,cs),
(200,353,ls),
(200,483,o),
(278,559,o),
(387,559,cs),
(495,559,o),
(573,483,o),
(573,353,cs),
(573,346,ls),
(573,216,o),
(495,141,o),
(387,141,cs)
);
}
);
width = 773;
},
{
anchors = (
{
name = bottom;
position = "{387, -1}";
},
{
name = center;
position = "{387, 350}";
},
{
name = tail.Q;
position = "{387, 0}";
},
{
name = top;
position = "{387, 700}";
},
{
name = topright;
position = "{449, 700}";
}
);
layerId = "7BCD794D-E026-4384-BE12-1D1749EC9686";
shapes = (
{
closed = 1;
nodes = (
(583,-12,o),
(726,134,o),
(726,348,cs),
(726,357,ls),
(726,568,o),
(583,712,o),
(387,712,cs),
(191,712,o),
(47,568,o),
(47,357,cs),
(47,348,ls),
(47,134,o),
(191,-12,o),
(387,-12,cs)
);
},
{
closed = 1;
nodes = (
(244,78,o),
(142,184,o),
(142,348,cs),
(142,357,ls),
(142,517,o),
(244,622,o),
(387,622,cs),
(530,622,o),
(632,517,o),
(632,357,cs),
(632,348,ls),
(632,184,o),
(530,78,o),
(387,78,cs)
);
}
);
width = 774;
},
{
anchors = (
{
name = bottom;
position = "{387, -1}";
},
{
name = center;
position = "{387, 350}";
},
{
name = tail.Q;
position = "{387, 0}";
},
{
name = top;
position = "{387, 700}";
},
{
name = topright;
position = "{449, 700}";
}
);
layerId = "88D78F5D-58B5-49C3-9C35-A3A5CAE2A296";
shapes = (
{
closed = 1;
nodes = (
(580,-10,o),
(716,138,o),
(716,350,cs),
(716,360,ls),
(716,566,o),
(580,710,o),
(387,710,cs),
(194,710,o),
(58,566,o),
(58,360,cs),
(58,350,ls),
(58,138,o),
(194,-10,o),
(387,-10,cs)
);
},
{
closed = 1;
nodes = (
(212,19,o),
(88,154,o),
(88,350,cs),
(88,360,ls),
(88,549,o),
(212,681,o),
(387,681,cs),
(562,681,o),
(686,549,o),
(686,360,cs),
(686,350,ls),
(686,154,o),
(562,19,o),
(387,19,cs)
);
}
);
width = 774;
}
);
leftKerningGroup = O;
rightKerningGroup = O;
unicode = 79;
},
{
glyphname = Oacute;
layers = (
{
layerId = "70CAE81F-A09E-4C14-9794-768AE0E0C4C3";
shapes = (
{
closed = 1;
nodes = (
(592,-15,o),
(753,127,o),
(753,344,cs),
(753,350,ls),
(753,572,o),
(592,715,o),
(389,715,cs),
(186,715,o),
(24,572,o),
(24,350,cs),
(24,344,ls),
(24,127,o),
(186,-15,o),
(389,-15,cs)
);
},
{
closed = 1;
nodes = (
(303,193,o),
(245,253,o),
(245,344,cs),
(245,350,ls),
(245,444,o),
(303,507,o),
(389,507,cs),
(475,507,o),
(532,444,o),
(532,350,cs),
(532,344,ls),
(532,253,o),
(475,193,o),
(389,193,cs)
);
},
{
closed = 1;
nodes = (
(492,741,l),
(605,917,l),
(370,917,l),
(286,741,l)
);
}
);
width = 777;
},
{
layerId = "E5E0E007-7D1B-446D-9E5D-3F173D74C5C6";
shapes = (
{
closed = 1;
nodes = (
(587,-15,o),
(737,130,o),
(737,346,cs),
(737,353,ls),
(737,570,o),
(587,715,o),
(387,715,cs),
(187,715,o),
(36,570,o),
(36,353,cs),
(36,346,ls),
(36,130,o),
(187,-15,o),
(387,-15,cs)
);
},
{
closed = 1;
nodes = (
(278,141,o),
(200,216,o),
(200,346,cs),
(200,353,ls),
(200,483,o),
(278,559,o),
(387,559,cs),
(495,559,o),
(573,483,o),
(573,353,cs),
(573,346,ls),
(573,216,o),
(495,141,o),
(387,141,cs)
);
},
{
closed = 1;
nodes = (
(464,755,l),
(571,914,l),
(395,914,l),
(310,755,l)
);
}
);
width = 773;
},
{
layerId = "7BCD794D-E026-4384-BE12-1D1749EC9686";
shapes = (
{
closed = 1;
nodes = (
(583,-12,o),
(726,134,o),
(726,348,cs),
(726,357,ls),
(726,568,o),
(583,712,o),
(387,712,cs),
(191,712,o),
(47,568,o),
(47,357,cs),
(47,348,ls),
(47,134,o),
(191,-12,o),
(387,-12,cs)
);
},
{
closed = 1;
nodes = (
(244,78,o),
(142,184,o),
(142,348,cs),
(142,357,ls),
(142,517,o),
(244,622,o),
(387,622,cs),
(530,622,o),
(632,517,o),
(632,357,cs),
(632,348,ls),
(632,184,o),
(530,78,o),
(387,78,cs)
);
},
{
closed = 1;
nodes = (
(432,772,l),
(533,910,l),
(428,910,l),
(342,772,l)
);
}
);
width = 774;
},
{
layerId = "88D78F5D-58B5-49C3-9C35-A3A5CAE2A296";
shapes = (
{
closed = 1;
nodes = (
(580,-10,o),
(716,138,o),
(716,350,cs),
(716,360,ls),
(716,566,o),
(580,710,o),
(387,710,cs),
(194,710,o),
(58,566,o),
(58,360,cs),
(58,350,ls),
(58,138,o),
(194,-10,o),
(387,-10,cs)
);
},
{
closed = 1;
nodes = (
(212,19,o),
(88,154,o),
(88,350,cs),
(88,360,ls),
(88,549,o),
(212,681,o),
(387,681,cs),
(562,681,o),
(686,549,o),
(686,360,cs),
(686,350,ls),
(686,154,o),
(562,19,o),
(387,19,cs)
);
},
{
closed = 1;
nodes = (
(403,788,l),
(497,907,l),
(458,907,l),
(371,788,l)
);
}
);
width = 774;
}
);
leftKerningGroup = O;
rightKerningGroup = O;
unicode = 211;
},
{
glyphname = Ocircumflex;
layers = (
{
layerId = "70CAE81F-A09E-4C14-9794-768AE0E0C4C3";
shapes = (
{
closed = 1;
nodes = (
(592,-15,o),
(753,127,o),
(753,344,cs),
(753,350,ls),
(753,572,o),
(592,715,o),
(389,715,cs),
(186,715,o),
(24,572,o),
(24,350,cs),
(24,344,ls),
(24,127,o),
(186,-15,o),
(389,-15,cs)
);
},
{
closed = 1;
nodes = (
(303,193,o),
(245,253,o),
(245,344,cs),
(245,350,ls),
(245,444,o),
(303,507,o),
(389,507,cs),
(475,507,o),
(532,444,o),
(532,350,cs),
(532,344,ls),
(532,253,o),
(475,193,o),
(389,193,cs)
);
},
{
closed = 1;
nodes = (
(348,741,l),
(445,864,l),
(330,864,l),
(430,741,l),
(621,741,l),
(496,917,l),
(283,917,l),
(158,741,l)
);
}
);
width = 777;
},
{
layerId = "E5E0E007-7D1B-446D-9E5D-3F173D74C5C6";
shapes = (
{
closed = 1;
nodes = (
(587,-15,o),
(737,130,o),
(737,346,cs),
(737,353,ls),
(737,570,o),
(587,715,o),
(387,715,cs),
(187,715,o),
(36,570,o),
(36,353,cs),
(36,346,ls),
(36,130,o),
(187,-15,o),
(387,-15,cs)
);
},
{
closed = 1;
nodes = (
(278,141,o),
(200,216,o),
(200,346,cs),
(200,353,ls),
(200,483,o),
(278,559,o),
(387,559,cs),
(495,559,o),
(573,483,o),
(573,353,cs),
(573,346,ls),
(573,216,o),
(495,141,o),
(387,141,cs)
);
},
{
closed = 1;
nodes = (
(326,755,l),
(429,873,l),
(343,873,l),
(448,755,l),
(592,755,l),
(467,914,l),
(308,914,l),
(183,755,l)
);
}
);
width = 773;
},
{
layerId = "7BCD794D-E026-4384-BE12-1D1749EC9686";
shapes = (
{
closed = 1;
nodes = (
(583,-12,o),
(726,134,o),
(726,348,cs),
(726,357,ls),
(726,568,o),
(583,712,o),
(387,712,cs),
(191,712,o),
(47,568,o),
(47,357,cs),
(47,348,ls),
(47,134,o),
(191,-12,o),
(387,-12,cs)
);
},
{
closed = 1;
nodes = (
(244,78,o),
(142,184,o),
(142,348,cs),
(142,357,ls),
(142,517,o),
(244,622,o),
(387,622,cs),
(530,622,o),
(632,517,o),
(632,357,cs),
(632,348,ls),
(632,184,o),
(530,78,o),
(387,78,cs)
);
},
{
closed = 1;
nodes = (
(302,772,l),
(412,884,l),
(361,884,l),
(472,772,l),
(559,772,l),
(434,910,l),
(341,910,l),
(215,772,l)
);
}
);
width = 774;
},
{
layerId = "88D78F5D-58B5-49C3-9C35-A3A5CAE2A296";
shapes = (
{
closed = 1;
nodes = (
(580,-10,o),
(716,138,o),
(716,350,cs),
(716,360,ls),
(716,566,o),
(580,710,o),
(387,710,cs),
(194,710,o),
(58,566,o),
(58,360,cs),
(58,350,ls),
(58,138,o),
(194,-10,o),
(387,-10,cs)
);
},
{
closed = 1;
nodes = (
(212,19,o),
(88,154,o),
(88,350,cs),
(88,360,ls),
(88,549,o),
(212,681,o),
(387,681,cs),
(562,681,o),
(686,549,o),
(686,360,cs),
(686,350,ls),
(686,154,o),
(562,19,o),
(387,19,cs)
);
},
{
closed = 1;
nodes = (
(279,788,l),
(396,894,l),
(378,894,l),
(495,788,l),
(529,788,l),
(403,907,l),
(372,907,l),
(245,788,l)
);
}
);
width = 774;
}
);
leftKerningGroup = O;
rightKerningGroup = O;
unicode = 212;
},
{
color = 8;
glyphname = Ocircumflexacute;
layers = (
{
layerId = "70CAE81F-A09E-4C14-9794-768AE0E0C4C3";
shapes = (
{
closed = 1;
nodes = (
(592,-15,o),
(753,127,o),
(753,344,cs),
(753,350,ls),
(753,572,o),
(592,715,o),
(389,715,cs),
(186,715,o),
(24,572,o),
(24,350,cs),
(24,344,ls),
(24,127,o),
(186,-15,o),
(389,-15,cs)
);
},
{
closed = 1;
nodes = (
(303,193,o),
(245,253,o),
(245,344,cs),
(245,350,ls),
(245,444,o),
(303,507,o),
(389,507,cs),
(475,507,o),
(532,444,o),
(532,350,cs),
(532,344,ls),
(532,253,o),
(475,193,o),
(389,193,cs)
);
},
{
closed = 1;
nodes = (
(348,741,l),
(445,844,l),
(330,844,l),
(430,741,l),
(621,741,l),
(496,897,l),
(283,897,l),
(158,741,l)
);
},
{
closed = 1;
nodes = (
(484,936,l),
(591,1071,l),
(375,1071,l),
(291,936,l)
);
}
);
width = 777;
},
{
layerId = "E5E0E007-7D1B-446D-9E5D-3F173D74C5C6";
shapes = (
{
closed = 1;
nodes = (
(587,-15,o),
(737,130,o),
(737,346,cs),
(737,353,ls),
(737,570,o),
(587,715,o),
(387,715,cs),
(187,715,o),
(36,570,o),
(36,353,cs),
(36,346,ls),
(36,130,o),
(187,-15,o),
(387,-15,cs)
);
},
{
closed = 1;
nodes = (
(278,141,o),
(200,216,o),
(200,346,cs),
(200,353,ls),
(200,483,o),
(278,559,o),
(387,559,cs),
(495,559,o),
(573,483,o),
(573,353,cs),
(573,346,ls),
(573,216,o),
(495,141,o),
(387,141,cs)
);
},
{
closed = 1;
nodes = (
(326,755,l),
(429,843,l),
(343,843,l),
(448,755,l),
(592,755,l),
(467,894,l),
(308,894,l),
(183,755,l)
);
},
{
closed = 1;
nodes = (
(460,939,l),
(561,1061,l),
(400,1061,l),
(315,939,l)
);
}
);
width = 773;
},
{
layerId = "7BCD794D-E026-4384-BE12-1D1749EC9686";
shapes = (
{
closed = 1;
nodes = (
(583,-12,o),
(726,134,o),
(726,348,cs),
(726,357,ls),
(726,568,o),
(583,712,o),
(387,712,cs),
(191,712,o),
(47,568,o),
(47,357,cs),
(47,348,ls),
(47,134,o),
(191,-12,o),
(387,-12,cs)
);
},
{
closed = 1;
nodes = (
(244,78,o),
(142,184,o),
(142,348,cs),
(142,357,ls),
(142,517,o),
(244,622,o),
(387,622,cs),
(530,622,o),
(632,517,o),
(632,357,cs),
(632,348,ls),
(632,184,o),
(530,78,o),
(387,78,cs)
);
},
{
closed = 1;
nodes = (
(302,772,l),
(412,856,l),
(361,856,l),
(472,772,l),
(559,772,l),
(433,890,l),
(341,890,l),
(215,772,l)
);
},
{
closed = 1;
nodes = (
(430,933,l),
(525,1051,l),
(430,1051,l),
(344,933,l)
);
}
);
width = 774;
},
{
layerId = "88D78F5D-58B5-49C3-9C35-A3A5CAE2A296";
shapes = (
{
closed = 1;
nodes = (
(580,-10,o),
(716,138,o),
(716,350,cs),
(716,360,ls),
(716,566,o),
(580,710,o),
(387,710,cs),
(194,710,o),
(58,566,o),
(58,360,cs),
(58,350,ls),
(58,138,o),
(194,-10,o),
(387,-10,cs)
);
},
{
closed = 1;
nodes = (
(212,19,o),
(88,154,o),
(88,350,cs),
(88,360,ls),
(88,549,o),
(212,681,o),
(387,681,cs),
(562,681,o),
(686,549,o),
(686,360,cs),
(686,350,ls),
(686,154,o),
(562,19,o),
(387,19,cs)
);
},
{
closed = 1;
nodes = (
(279,788,l),
(396,869,l),
(378,869,l),
(495,788,l),
(529,788,l),
(402,887,l),
(371,887,l),
(245,788,l)
);
},
{
closed = 1;
nodes = (
(402,927,l),
(491,1041,l),
(457,1041,l),
(371,927,l)
);
}
);
width = 774;
}
);
leftKerningGroup = O;
rightKerningGroup = O;
unicode = 7888;
},
{
color = 8;
glyphname = Ocircumflexdotbelow;
layers = (
{
layerId = "70CAE81F-A09E-4C14-9794-768AE0E0C4C3";
shapes = (
{
closed = 1;
nodes = (
(592,-15,o),
(753,127,o),
(753,344,cs),
(753,350,ls),
(753,572,o),
(592,715,o),
(389,715,cs),
(186,715,o),
(24,572,o),
(24,350,cs),
(24,344,ls),
(24,127,o),
(186,-15,o),
(389,-15,cs)
);
},
{
closed = 1;
nodes = (
(303,193,o),
(245,253,o),
(245,344,cs),
(245,350,ls),
(245,444,o),
(303,507,o),
(389,507,cs),
(475,507,o),
(532,444,o),
(532,350,cs),
(532,344,ls),
(532,253,o),
(475,193,o),
(389,193,cs)
);
},
{
closed = 1;
nodes = (
(501,-211,l),
(501,-50,l),
(277,-50,l),
(277,-211,l)
);
},
{
closed = 1;
nodes = (
(348,741,l),
(445,864,l),
(330,864,l),
(430,741,l),
(621,741,l),
(496,917,l),
(283,917,l),
(158,741,l)
);
}
);
width = 777;
},
{
layerId = "E5E0E007-7D1B-446D-9E5D-3F173D74C5C6";
shapes = (
{
closed = 1;
nodes = (
(587,-15,o),
(737,130,o),
(737,346,cs),
(737,353,ls),
(737,570,o),
(587,715,o),
(387,715,cs),
(187,715,o),
(36,570,o),
(36,353,cs),
(36,346,ls),
(36,130,o),
(187,-15,o),
(387,-15,cs)
);
},
{
closed = 1;
nodes = (
(278,141,o),
(200,216,o),
(200,346,cs),
(200,353,ls),
(200,483,o),
(278,559,o),
(387,559,cs),
(495,559,o),
(573,483,o),
(573,353,cs),
(573,346,ls),
(573,216,o),
(495,141,o),
(387,141,cs)
);
},
{
closed = 1;
nodes = (
(470,-211,l),
(470,-71,l),
(304,-71,l),
(304,-211,l)
);
},
{
closed = 1;
nodes = (
(326,755,l),
(429,873,l),
(343,873,l),
(448,755,l),
(592,755,l),
(467,914,l),
(308,914,l),
(183,755,l)
);
}
);
width = 773;
},
{
layerId = "7BCD794D-E026-4384-BE12-1D1749EC9686";
shapes = (
{
closed = 1;
nodes = (
(583,-12,o),
(726,134,o),
(726,348,cs),
(726,357,ls),
(726,568,o),
(583,712,o),
(387,712,cs),
(191,712,o),
(47,568,o),
(47,357,cs),
(47,348,ls),
(47,134,o),
(191,-12,o),
(387,-12,cs)
);
},
{
closed = 1;
nodes = (
(244,78,o),
(142,184,o),
(142,348,cs),
(142,357,ls),
(142,517,o),
(244,622,o),
(387,622,cs),
(530,622,o),
(632,517,o),
(632,357,cs),
(632,348,ls),
(632,184,o),
(530,78,o),
(387,78,cs)
);
},
{
closed = 1;
nodes = (
(435,-183,l),
(435,-67,l),
(338,-67,l),
(338,-183,l)
);
},
{
closed = 1;
nodes = (
(302,772,l),
(412,884,l),
(361,884,l),
(472,772,l),
(559,772,l),
(434,910,l),
(341,910,l),
(215,772,l)
);
}
);
width = 774;
},
{
layerId = "88D78F5D-58B5-49C3-9C35-A3A5CAE2A296";
shapes = (
{
closed = 1;
nodes = (
(580,-10,o),
(716,138,o),
(716,350,cs),
(716,360,ls),
(716,566,o),
(580,710,o),
(387,710,cs),
(194,710,o),
(58,566,o),
(58,360,cs),
(58,350,ls),
(58,138,o),
(194,-10,o),
(387,-10,cs)
);
},
{
closed = 1;
nodes = (
(212,19,o),
(88,154,o),
(88,350,cs),
(88,360,ls),
(88,549,o),
(212,681,o),
(387,681,cs),
(562,681,o),
(686,549,o),
(686,360,cs),
(686,350,ls),
(686,154,o),
(562,19,o),
(387,19,cs)
);
},
{
closed = 1;
nodes = (
(404,-157,l),
(404,-64,l),
(371,-64,l),
(371,-157,l)
);
},
{
closed = 1;
nodes = (
(279,788,l),
(396,894,l),
(378,894,l),
(495,788,l),
(529,788,l),
(403,907,l),
(372,907,l),
(245,788,l)
);
}
);
width = 774;
}
);
leftKerningGroup = O;
rightKerningGroup = O;
unicode = 7896;
},
{
color = 8;
glyphname = Ocircumflexgrave;
layers = (
{
layerId = "70CAE81F-A09E-4C14-9794-768AE0E0C4C3";
shapes = (
{
closed = 1;
nodes = (
(592,-15,o),
(753,127,o),
(753,344,cs),
(753,350,ls),
(753,572,o),
(592,715,o),
(389,715,cs),
(186,715,o),
(24,572,o),
(24,350,cs),
(24,344,ls),
(24,127,o),
(186,-15,o),
(389,-15,cs)
);
},
{
closed = 1;
nodes = (
(303,193,o),
(245,253,o),
(245,344,cs),
(245,350,ls),
(245,444,o),
(303,507,o),
(389,507,cs),
(475,507,o),
(532,444,o),
(532,350,cs),
(532,344,ls),
(532,253,o),
(475,193,o),
(389,193,cs)
);
},
{
closed = 1;
nodes = (
(349,741,l),
(449,844,l),
(334,844,l),
(431,741,l),
(621,741,l),
(496,897,l),
(283,897,l),
(158,741,l)
);
},
{
closed = 1;
nodes = (
(488,936,l),
(404,1071,l),
(188,1071,l),
(295,936,l)
);
}
);
width = 777;
},
{
layerId = "E5E0E007-7D1B-446D-9E5D-3F173D74C5C6";
shapes = (
{
closed = 1;
nodes = (
(587,-15,o),
(737,130,o),
(737,346,cs),
(737,353,ls),
(737,570,o),
(587,715,o),
(387,715,cs),
(187,715,o),
(36,570,o),
(36,353,cs),
(36,346,ls),
(36,130,o),
(187,-15,o),
(387,-15,cs)
);
},
{
closed = 1;
nodes = (
(278,141,o),
(200,216,o),
(200,346,cs),
(200,353,ls),
(200,483,o),
(278,559,o),
(387,559,cs),
(495,559,o),
(573,483,o),
(573,353,cs),
(573,346,ls),
(573,216,o),
(495,141,o),
(387,141,cs)
);
},
{
closed = 1;
nodes = (
(326,755,l),
(429,843,l),
(343,843,l),
(448,755,l),
(592,755,l),
(467,894,l),
(308,894,l),
(183,755,l)
);
},
{
closed = 1;
nodes = (
(459,939,l),
(373,1061,l),
(212,1061,l),
(313,939,l)
);
}
);
width = 773;
},
{
layerId = "7BCD794D-E026-4384-BE12-1D1749EC9686";
shapes = (
{
closed = 1;
nodes = (
(583,-12,o),
(726,134,o),
(726,348,cs),
(726,357,ls),
(726,568,o),
(583,712,o),
(387,712,cs),
(191,712,o),
(47,568,o),
(47,357,cs),
(47,348,ls),
(47,134,o),
(191,-12,o),
(387,-12,cs)
);
},
{
closed = 1;
nodes = (
(244,78,o),
(142,184,o),
(142,348,cs),
(142,357,ls),
(142,517,o),
(244,622,o),
(387,622,cs),
(530,622,o),
(632,517,o),
(632,357,cs),
(632,348,ls),
(632,184,o),
(530,78,o),
(387,78,cs)
);
},
{
closed = 1;
nodes = (
(302,772,l),
(412,856,l),
(361,856,l),
(472,772,l),
(559,772,l),
(434,890,l),
(341,890,l),
(215,772,l)
);
},
{
closed = 1;
nodes = (
(430,933,l),
(344,1051,l),
(249,1051,l),
(344,933,l)
);
}
);
width = 774;
},
{
layerId = "88D78F5D-58B5-49C3-9C35-A3A5CAE2A296";
shapes = (
{
closed = 1;
nodes = (
(580,-10,o),
(716,138,o),
(716,350,cs),
(716,360,ls),
(716,566,o),
(580,710,o),
(387,710,cs),
(194,710,o),
(58,566,o),
(58,360,cs),
(58,350,ls),
(58,138,o),
(194,-10,o),
(387,-10,cs)
);
},
{
closed = 1;
nodes = (
(212,19,o),
(88,154,o),
(88,350,cs),
(88,360,ls),
(88,549,o),
(212,681,o),
(387,681,cs),
(562,681,o),
(686,549,o),
(686,360,cs),
(686,350,ls),
(686,154,o),
(562,19,o),
(387,19,cs)
);
},
{
closed = 1;
nodes = (
(279,788,l),
(396,869,l),
(378,869,l),
(495,788,l),
(529,788,l),
(403,887,l),
(372,887,l),
(245,788,l)
);
},
{
closed = 1;
nodes = (
(403,927,l),
(317,1041,l),
(283,1041,l),
(372,927,l)
);
}
);
width = 774;
}
);
leftKerningGroup = O;
rightKerningGroup = O;
unicode = 7890;
},
{
color = 8;
glyphname = Ocircumflexhookabove;
layers = (
{
layerId = "70CAE81F-A09E-4C14-9794-768AE0E0C4C3";
shapes = (
{
closed = 1;
nodes = (
(592,-15,o),
(753,127,o),
(753,344,cs),
(753,350,ls),
(753,572,o),
(592,715,o),
(389,715,cs),
(186,715,o),
(24,572,o),
(24,350,cs),
(24,344,ls),
(24,127,o),
(186,-15,o),
(389,-15,cs)
);
},
{
closed = 1;
nodes = (
(303,193,o),
(245,253,o),
(245,344,cs),
(245,350,ls),
(245,444,o),
(303,507,o),
(389,507,cs),
(475,507,o),
(532,444,o),
(532,350,cs),
(532,344,ls),
(532,253,o),
(475,193,o),
(389,193,cs)
);
},
{
closed = 1;
nodes = (
(348,741,l),
(445,844,l),
(330,844,l),
(430,741,l),
(621,741,l),
(496,897,l),
(283,897,l),
(158,741,l)
);
},
{
closed = 1;
nodes = (
(462,936,l),
(501,957,o),
(526,1008,o),
(526,1037,cs),
(526,1111,o),
(462,1153,o),
(375,1153,cs),
(333,1153,o),
(282,1143,o),
(248,1127,c),
(248,1014,l),
(272,1022,o),
(298,1029,o),
(324,1029,cs),
(349,1029,o),
(370,1023,o),
(370,1002,cs),
(370,989,o),
(360,969,o),
(319,936,c)
);
}
);
width = 777;
},
{
layerId = "E5E0E007-7D1B-446D-9E5D-3F173D74C5C6";
shapes = (
{
closed = 1;
nodes = (
(587,-15,o),
(737,130,o),
(737,346,cs),
(737,353,ls),
(737,570,o),
(587,715,o),
(387,715,cs),
(187,715,o),
(36,570,o),
(36,353,cs),
(36,346,ls),
(36,130,o),
(187,-15,o),
(387,-15,cs)
);
},
{
closed = 1;
nodes = (
(278,141,o),
(200,216,o),
(200,346,cs),
(200,353,ls),
(200,483,o),
(278,559,o),
(387,559,cs),
(495,559,o),
(573,483,o),
(573,353,cs),
(573,346,ls),
(573,216,o),
(495,141,o),
(387,141,cs)
);
},
{
closed = 1;
nodes = (
(326,755,l),
(429,843,l),
(343,843,l),
(448,755,l),
(592,755,l),
(467,894,l),
(308,894,l),
(183,755,l)
);
},
{
closed = 1;
nodes = (
(444,939,l),
(484,957,o),
(503,989,o),
(503,1024,cs),
(503,1073,o),
(458,1110,o),
(379,1110,cs),
(344,1110,o),
(299,1102,o),
(269,1088,c),
(269,1004,l),
(290,1011,o),
(319,1015,o),
(340,1015,cs),
(363,1015,o),
(374,1007,o),
(374,994,cs),
(374,980,o),
(366,965,o),
(330,939,c)
);
}
);
width = 773;
},
{
layerId = "7BCD794D-E026-4384-BE12-1D1749EC9686";
shapes = (
{
closed = 1;
nodes = (
(583,-12,o),
(726,134,o),
(726,348,cs),
(726,357,ls),
(726,568,o),
(583,712,o),
(387,712,cs),
(191,712,o),
(47,568,o),
(47,357,cs),
(47,348,ls),
(47,134,o),
(191,-12,o),
(387,-12,cs)
);
},
{
closed = 1;
nodes = (
(244,78,o),
(142,184,o),
(142,348,cs),
(142,357,ls),
(142,517,o),
(244,622,o),
(387,622,cs),
(530,622,o),
(632,517,o),
(632,357,cs),
(632,348,ls),
(632,184,o),
(530,78,o),
(387,78,cs)
);
},
{
closed = 1;
nodes = (
(302,772,l),
(412,856,l),
(361,856,l),
(472,772,l),
(559,772,l),
(434,890,l),
(341,890,l),
(215,772,l)
);
},
{
closed = 1;
nodes = (
(424,932,l),
(458,953,o),
(474,978,o),
(474,1008,cs),
(474,1051,o),
(437,1082,o),
(375,1082,cs),
(346,1082,o),
(310,1074,o),
(284,1058,c),
(284,1006,l),
(306,1018,o),
(336,1023,o),
(357,1023,cs),
(384,1023,o),
(398,1011,o),
(398,993,cs),
(398,974,o),
(385,958,o),
(352,932,c)
);
}
);
width = 774;
},
{
layerId = "88D78F5D-58B5-49C3-9C35-A3A5CAE2A296";
shapes = (
{
closed = 1;
nodes = (
(580,-10,o),
(716,138,o),
(716,350,cs),
(716,360,ls),
(716,566,o),
(580,710,o),
(387,710,cs),
(194,710,o),
(58,566,o),
(58,360,cs),
(58,350,ls),
(58,138,o),
(194,-10,o),
(387,-10,cs)
);
},
{
closed = 1;
nodes = (
(212,19,o),
(88,154,o),
(88,350,cs),
(88,360,ls),
(88,549,o),
(212,681,o),
(387,681,cs),
(562,681,o),
(686,549,o),
(686,360,cs),
(686,350,ls),
(686,154,o),
(562,19,o),
(387,19,cs)
);
},
{
closed = 1;
nodes = (
(279,788,l),
(396,869,l),
(378,869,l),
(495,788,l),
(529,788,l),
(403,887,l),
(372,887,l),
(245,788,l)
);
},
{
closed = 1;
nodes = (
(406,926,l),
(433,950,o),
(447,967,o),
(447,993,cs),
(447,1030,o),
(418,1055,o),
(372,1055,cs),
(348,1055,o),
(321,1048,o),
(297,1031,c),
(297,1008,l),
(321,1024,o),
(351,1031,o),
(372,1031,cs),
(404,1031,o),
(420,1015,o),
(420,992,cs),
(420,969,o),
(403,952,o),
(373,926,c)
);
}
);
width = 774;
}
);
leftKerningGroup = O;
rightKerningGroup = O;
unicode = 7892;
},
{
color = 8;
glyphname = Ocircumflextilde;
layers = (
{
layerId = "70CAE81F-A09E-4C14-9794-768AE0E0C4C3";
shapes = (
{
closed = 1;
nodes = (
(592,-15,o),
(753,127,o),
(753,344,cs),
(753,350,ls),
(753,572,o),
(592,715,o),
(389,715,cs),
(186,715,o),
(24,572,o),
(24,350,cs),
(24,344,ls),
(24,127,o),
(186,-15,o),
(389,-15,cs)
);
},
{
closed = 1;
nodes = (
(303,193,o),
(245,253,o),
(245,344,cs),
(245,350,ls),
(245,444,o),
(303,507,o),
(389,507,cs),
(475,507,o),
(532,444,o),
(532,350,cs),
(532,344,ls),
(532,253,o),
(475,193,o),
(389,193,cs)
);
},
{
closed = 1;
nodes = (
(557,926,o),
(599,1001,o),
(599,1089,c),
(470,1089,l),
(469,1068,o),
(466,1057,o),
(452,1057,cs),
(435,1057,o),
(374,1099,o),
(314,1099,cs),
(222,1099,o),
(185,1023,o),
(184,936,c),
(307,936,l),
(308,959,o),
(313,969,o),
(328,969,cs),
(347,969,o),
(399,926,o),
(465,926,cs)
);
},
{
closed = 1;
nodes = (
(348,741,l),
(445,838,l),
(330,838,l),
(430,741,l),
(621,741,l),
(496,891,l),
(283,891,l),
(158,741,l)
);
}
);
width = 777;
},
{
layerId = "E5E0E007-7D1B-446D-9E5D-3F173D74C5C6";
shapes = (
{
closed = 1;
nodes = (
(587,-15,o),
(737,130,o),
(737,346,cs),
(737,353,ls),
(737,570,o),
(587,715,o),
(387,715,cs),
(187,715,o),
(36,570,o),
(36,353,cs),
(36,346,ls),
(36,130,o),
(187,-15,o),
(387,-15,cs)
);
},
{
closed = 1;
nodes = (
(278,141,o),
(200,216,o),
(200,346,cs),
(200,353,ls),
(200,483,o),
(278,559,o),
(387,559,cs),
(495,559,o),
(573,483,o),
(573,353,cs),
(573,346,ls),
(573,216,o),
(495,141,o),
(387,141,cs)
);
},
{
closed = 1;
nodes = (
(530,933,o),
(567,995,o),
(567,1073,c),
(470,1073,l),
(469,1047,o),
(462,1032,o),
(445,1032,cs),
(419,1032,o),
(381,1085,o),
(321,1085,cs),
(245,1085,o),
(211,1023,o),
(210,946,c),
(303,946,l),
(304,974,o),
(313,987,o),
(331,987,cs),
(358,987,o),
(390,933,o),
(454,933,cs)
);
},
{
closed = 1;
nodes = (
(326,755,l),
(429,843,l),
(343,843,l),
(448,755,l),
(592,755,l),
(467,894,l),
(308,894,l),
(183,755,l)
);
}
);
width = 773;
},
{
layerId = "7BCD794D-E026-4384-BE12-1D1749EC9686";
shapes = (
{
closed = 1;
nodes = (
(583,-12,o),
(726,134,o),
(726,348,cs),
(726,357,ls),
(726,568,o),
(583,712,o),
(387,712,cs),
(191,712,o),
(47,568,o),
(47,357,cs),
(47,348,ls),
(47,134,o),
(191,-12,o),
(387,-12,cs)
);
},
{
closed = 1;
nodes = (
(244,78,o),
(142,184,o),
(142,348,cs),
(142,357,ls),
(142,517,o),
(244,622,o),
(387,622,cs),
(530,622,o),
(632,517,o),
(632,357,cs),
(632,348,ls),
(632,184,o),
(530,78,o),
(387,78,cs)
);
},
{
closed = 1;
nodes = (
(508,937,o),
(540,982,o),
(540,1048,c),
(481,1048,l),
(480,1016,o),
(469,997,o),
(447,997,cs),
(411,997,o),
(384,1063,o),
(324,1063,cs),
(267,1063,o),
(236,1016,o),
(235,953,c),
(292,953,l),
(293,986,o),
(307,1004,o),
(329,1004,cs),
(365,1004,o),
(390,937,o),
(452,937,cs)
);
},
{
closed = 1;
nodes = (
(302,772,l),
(412,862,l),
(361,862,l),
(472,772,l),
(559,772,l),
(434,896,l),
(341,896,l),
(215,772,l)
);
}
);
width = 774;
},
{
layerId = "88D78F5D-58B5-49C3-9C35-A3A5CAE2A296";
shapes = (
{
closed = 1;
nodes = (
(580,-10,o),
(716,138,o),
(716,350,cs),
(716,360,ls),
(716,566,o),
(580,710,o),
(387,710,cs),
(194,710,o),
(58,566,o),
(58,360,cs),
(58,350,ls),
(58,138,o),
(194,-10,o),
(387,-10,cs)
);
},
{
closed = 1;
nodes = (
(212,19,o),
(88,154,o),
(88,350,cs),
(88,360,ls),
(88,549,o),
(212,681,o),
(387,681,cs),
(562,681,o),
(686,549,o),
(686,360,cs),
(686,350,ls),
(686,154,o),
(562,19,o),
(387,19,cs)
);
},
{
closed = 1;
nodes = (
(488,940,o),
(514,970,o),
(514,1025,c),
(492,1025,l),
(491,987,o),
(475,964,o),
(449,964,cs),
(403,964,o),
(386,1042,o),
(326,1042,cs),
(287,1042,o),
(259,1010,o),
(259,959,c),
(281,959,l),
(282,998,o),
(301,1019,o),
(327,1019,cs),
(371,1019,o),
(390,940,o),
(450,940,cs)
);
},
{
closed = 1;
nodes = (
(279,788,l),
(396,879,l),
(378,879,l),
(495,788,l),
(529,788,l),
(403,897,l),
(372,897,l),
(245,788,l)
);
}
);
width = 774;
}
);
leftKerningGroup = O;
rightKerningGroup = O;
unicode = 7894;
},
